0
SECTION
2
HEADER
9
$INSUNITS
70
4
9
$ACADVER
1
AC1014
9
$HANDSEED
5
FFFF
0
ENDSEC
0
SECTION
2
TABLES
0
TABLE
2
VPORT
5
8
100
AcDbSymbolTable
0
ENDTAB
0
TABLE
2
LTYPE
5
5
100
AcDbSymbolTable
0
LTYPE
5
14
100
AcDbSymbolTableRecord
100
AcDbLinetypeTableRecord
2
BYBLOCK
70
0
0
LTYPE
5
15
100
AcDbSymbolTableRecord
100
AcDbLinetypeTableRecord
2
BYLAYER
70
0
0
ENDTAB
0
TABLE
2
LAYER
5
2
100
AcDbSymbolTable
70
2
0
LAYER
5
50
100
AcDbSymbolTableRecord
100
AcDbLayerTableRecord
2
0
70
0
6
CONTINUOUS
0
ENDTAB
0
TABLE
2
STYLE
5
3
100
AcDbSymbolTable
70
1
0
STYLE
5
11
100
AcDbSymbolTableRecord
100
AcDbTextStyleTableRecord
2
STANDARD
70
0
0
ENDTAB
0
TABLE
2
VIEW
5
6
100
AcDbSymbolTable
70
0
0
ENDTAB
0
TABLE
2
UCS
5
7
100
AcDbSymbolTable
70
0
0
ENDTAB
0
TABLE
2
APPID
5
9
100
AcDbSymbolTable
70
2
0
APPID
5
12
100
AcDbSymbolTableRecord
100
AcDbRegAppTableRecord
2
ACAD
70
0
0
ENDTAB
0
TABLE
2
DIMSTYLE
5
A
100
AcDbSymbolTable
70
1
0
ENDTAB
0
TABLE
2
BLOCK_RECORD
5
1
100
AcDbSymbolTable
70
1
0
BLOCK_RECORD
5
1F
100
AcDbSymbolTableRecord
100
AcDbBlockTableRecord
2
*MODEL_SPACE
0
BLOCK_RECORD
5
1B
100
AcDbSymbolTableRecord
100
AcDbBlockTableRecord
2
*PAPER_SPACE
0
ENDTAB
0
ENDSEC
0
SECTION
2
BLOCKS
0
BLOCK
5
20
100
AcDbEntity
100
AcDbBlockBegin
2
*MODEL_SPACE
0
ENDBLK
5
21
100
AcDbEntity
100
AcDbBlockEnd
0
BLOCK
5
1C
100
AcDbEntity
100
AcDbBlockBegin
2
*PAPER_SPACE
0
ENDBLK
5
1D
100
AcDbEntity
100
AcDbBlockEnd
0
ENDSEC
0
SECTION
2
ENTITIES
0
LWPOLYLINE
5
100
100
AcDbEntity
8
0
100
AcDbPolyline
90
19
70
1
43
0.0
10
-24.999999999999993
20
-8.9999999999999947
42
0.41421356237309342
10
-26.999999999999993
20
-10.999999999999995
10
-26.999999999999993
20
-24.287871230656776
42
0.3063516060411976
10
-25.744999999999955
20
-26.143935615315897
42
-0.30635160604120537
10
-24.489999999999917
20
-27.999999999975071
10
-24.490000000000116
20
-35.760000000000005
10
-19.910000000000117
20
-35.760000000000005
10
-19.909999999999922
20
-27.999999999999968
42
-0.41421356237308787
10
-17.909999999999922
20
-26.000000000000014
10
15.999999999999998
20
-26.000000000000011
10
18.009999994934308
20
-25.999999992501614
42
-0.41421356346574789
10
20.010000002395408
20
-27.999999992501614
10
20.010000002395401
20
-35.760000001098014
10
24.590000000000003
20
-35.759999998572518
10
24.59
20
-27.670408663014577
42
-0.29895891428651755
10
25.795000000000002
20
-25.835204314719817
42
0.29895891428651922
10
27.000000000000011
20
-23.999999966425051
10
27.000000000000011
20
-10.999999999999986
42
0.4142135623730937
10
25.000000000000007
20
-8.999999999999984
0
CIRCLE
5
101
100
AcDbEntity
8
0
100
AcDbCircle
10
20
20
-15
30
0
40
1.6000000000000014
210
0
220
0
230
1
0
LWPOLYLINE
5
102
100
AcDbEntity
8
0
100
AcDbPolyline
90
4
70
1
43
0.0
10
20.610000000000007
20
-29.240000000000009
10
21.450000000000003
20
-29.240000000000009
10
21.450000000000003
20
-30.080000000000005
10
20.610000000000007
20
-30.080000000000005
0
LWPOLYLINE
5
103
100
AcDbEntity
8
0
100
AcDbPolyline
90
4
70
1
43
0.0
10
23.990000000000002
20
-34.320000000000007
10
23.990000000000002
20
-35.160000000000004
10
23.150000000000006
20
-35.160000000000004
10
23.150000000000006
20
-34.320000000000007
0
LWPOLYLINE
5
104
100
AcDbEntity
8
0
100
AcDbPolyline
90
4
70
1
43
0.0
10
23.990000000000002
20
-31.780000000000008
10
23.990000000000002
20
-32.620000000000005
10
23.150000000000006
20
-32.620000000000005
10
23.150000000000006
20
-31.780000000000008
0
LWPOLYLINE
5
105
100
AcDbEntity
8
0
100
AcDbPolyline
90
4
70
1
43
0.0
10
23.990000000000002
20
-29.240000000000009
10
23.990000000000002
20
-30.080000000000005
10
23.150000000000006
20
-30.080000000000005
10
23.150000000000006
20
-29.240000000000009
0
LWPOLYLINE
5
106
100
AcDbEntity
8
0
100
AcDbPolyline
90
4
70
1
43
0.0
10
22.720000000000002
20
-34.320000000000007
10
22.720000000000002
20
-35.160000000000004
10
21.880000000000006
20
-35.160000000000004
10
21.880000000000006
20
-34.320000000000007
0
LWPOLYLINE
5
107
100
AcDbEntity
8
0
100
AcDbPolyline
90
4
70
1
43
0.0
10
21.450000000000003
20
-34.320000000000007
10
21.450000000000003
20
-35.160000000000004
10
20.610000000000007
20
-35.160000000000004
10
20.610000000000007
20
-34.320000000000007
0
LWPOLYLINE
5
108
100
AcDbEntity
8
0
100
AcDbPolyline
90
4
70
1
43
0.0
10
22.720000000000002
20
-31.780000000000008
10
22.720000000000002
20
-32.620000000000005
10
21.880000000000006
20
-32.620000000000005
10
21.880000000000006
20
-31.780000000000008
0
LWPOLYLINE
5
109
100
AcDbEntity
8
0
100
AcDbPolyline
90
4
70
1
43
0.0
10
21.450000000000003
20
-31.780000000000008
10
21.450000000000003
20
-32.620000000000005
10
20.610000000000007
20
-32.620000000000005
10
20.610000000000007
20
-31.780000000000008
0
LWPOLYLINE
5
110
100
AcDbEntity
8
0
100
AcDbPolyline
90
4
70
1
43
0.0
10
22.720000000000002
20
-29.240000000000009
10
22.720000000000002
20
-30.080000000000005
10
21.880000000000006
20
-30.080000000000005
10
21.880000000000006
20
-29.240000000000009
0
LWPOLYLINE
5
111
100
AcDbEntity
8
0
100
AcDbPolyline
90
4
70
1
43
0.0
10
-20.509999999999991
20
-35.160000000000004
10
-21.349999999999987
20
-35.160000000000004
10
-21.349999999999987
20
-34.320000000000007
10
-20.509999999999991
20
-34.320000000000007
0
LWPOLYLINE
5
112
100
AcDbEntity
8
0
100
AcDbPolyline
90
4
70
1
43
0.0
10
-20.509999999999991
20
-32.620000000000005
10
-21.349999999999987
20
-32.620000000000005
10
-21.349999999999987
20
-31.780000000000008
10
-20.509999999999991
20
-31.780000000000008
0
LWPOLYLINE
5
113
100
AcDbEntity
8
0
100
AcDbPolyline
90
4
70
1
43
0.0
10
-23.88999999999999
20
-29.240000000000009
10
-23.049999999999994
20
-29.240000000000009
10
-23.049999999999994
20
-30.080000000000005
10
-23.88999999999999
20
-30.080000000000005
0
LWPOLYLINE
5
114
100
AcDbEntity
8
0
100
AcDbPolyline
90
4
70
1
43
0.0
10
-21.77999999999999
20
-30.080000000000005
10
-22.619999999999987
20
-30.080000000000005
10
-22.619999999999987
20
-29.240000000000009
10
-21.77999999999999
20
-29.240000000000009
0
LWPOLYLINE
5
115
100
AcDbEntity
8
0
100
AcDbPolyline
90
4
70
1
43
0.0
10
-21.77999999999999
20
-32.620000000000005
10
-22.619999999999987
20
-32.620000000000005
10
-22.619999999999987
20
-31.780000000000008
10
-21.77999999999999
20
-31.780000000000008
0
LWPOLYLINE
5
116
100
AcDbEntity
8
0
100
AcDbPolyline
90
4
70
1
43
0.0
10
-23.049999999999994
20
-32.620000000000005
10
-23.88999999999999
20
-32.620000000000005
10
-23.88999999999999
20
-31.780000000000008
10
-23.049999999999994
20
-31.780000000000008
0
LWPOLYLINE
5
117
100
AcDbEntity
8
0
100
AcDbPolyline
90
4
70
1
43
0.0
10
-20.509999999999991
20
-30.080000000000005
10
-21.349999999999987
20
-30.080000000000005
10
-21.349999999999987
20
-29.240000000000009
10
-20.509999999999991
20
-29.240000000000009
0
LWPOLYLINE
5
118
100
AcDbEntity
8
0
100
AcDbPolyline
90
4
70
1
43
0.0
10
-21.77999999999999
20
-35.160000000000004
10
-22.619999999999987
20
-35.160000000000004
10
-22.619999999999987
20
-34.320000000000007
10
-21.77999999999999
20
-34.320000000000007
0
LWPOLYLINE
5
119
100
AcDbEntity
8
0
100
AcDbPolyline
90
4
70
1
43
0.0
10
-23.049999999999994
20
-35.160000000000004
10
-23.88999999999999
20
-35.160000000000004
10
-23.88999999999999
20
-34.320000000000007
10
-23.049999999999994
20
-34.320000000000007
0
CIRCLE
5
120
100
AcDbEntity
8
0
100
AcDbCircle
10
-20
20
-15
30
0
40
1.6000000000000014
210
0
220
0
230
1
0
ENDSEC
0
SECTION
2
OBJECTS
0
DICTIONARY
5
C
100
AcDbDictionary
3
ACAD_GROUP
350
D
3
ACAD_MLINESTYLE
350
17
0
DICTIONARY
5
D
100
AcDbDictionary
0
DICTIONARY
5
1A
330
C
100
AcDbDictionary
0
DICTIONARY
5
17
100
AcDbDictionary
0
ENDSEC
0
EOF
