0
SECTION
2
HEADER
9
$INSUNITS
70
4
9
$ACADVER
1
AC1014
9
$HANDSEED
5
FFFF
0
ENDSEC
0
SECTION
2
TABLES
0
TABLE
2
VPORT
5
8
100
AcDbSymbolTable
0
ENDTAB
0
TABLE
2
LTYPE
5
5
100
AcDbSymbolTable
0
LTYPE
5
14
100
AcDbSymbolTableRecord
100
AcDbLinetypeTableRecord
2
BYBLOCK
70
0
0
LTYPE
5
15
100
AcDbSymbolTableRecord
100
AcDbLinetypeTableRecord
2
BYLAYER
70
0
0
ENDTAB
0
TABLE
2
LAYER
5
2
100
AcDbSymbolTable
70
2
0
LAYER
5
50
100
AcDbSymbolTableRecord
100
AcDbLayerTableRecord
2
0
70
0
6
CONTINUOUS
0
ENDTAB
0
TABLE
2
STYLE
5
3
100
AcDbSymbolTable
70
1
0
STYLE
5
11
100
AcDbSymbolTableRecord
100
AcDbTextStyleTableRecord
2
STANDARD
70
0
0
ENDTAB
0
TABLE
2
VIEW
5
6
100
AcDbSymbolTable
70
0
0
ENDTAB
0
TABLE
2
UCS
5
7
100
AcDbSymbolTable
70
0
0
ENDTAB
0
TABLE
2
APPID
5
9
100
AcDbSymbolTable
70
2
0
APPID
5
12
100
AcDbSymbolTableRecord
100
AcDbRegAppTableRecord
2
ACAD
70
0
0
ENDTAB
0
TABLE
2
DIMSTYLE
5
A
100
AcDbSymbolTable
70
1
0
ENDTAB
0
TABLE
2
BLOCK_RECORD
5
1
100
AcDbSymbolTable
70
1
0
BLOCK_RECORD
5
1F
100
AcDbSymbolTableRecord
100
AcDbBlockTableRecord
2
*MODEL_SPACE
0
BLOCK_RECORD
5
1B
100
AcDbSymbolTableRecord
100
AcDbBlockTableRecord
2
*PAPER_SPACE
0
ENDTAB
0
ENDSEC
0
SECTION
2
BLOCKS
0
BLOCK
5
20
100
AcDbEntity
100
AcDbBlockBegin
2
*MODEL_SPACE
0
ENDBLK
5
21
100
AcDbEntity
100
AcDbBlockEnd
0
BLOCK
5
1C
100
AcDbEntity
100
AcDbBlockBegin
2
*PAPER_SPACE
0
ENDBLK
5
1D
100
AcDbEntity
100
AcDbBlockEnd
0
ENDSEC
0
SECTION
2
ENTITIES
0
LWPOLYLINE
5
100
100
AcDbEntity
8
0
100
AcDbPolyline
90
4
70
1
43
0.0
10
23.599999999999465
20
-36.200000000000031
10
20.79999999999945
20
-36.200000000000031
10
20.799999999999454
20
-28.200000000000031
10
23.599999999999454
20
-28.200000000000035
0
LWPOLYLINE
5
101
100
AcDbEntity
8
0
100
AcDbPolyline
90
4
70
1
43
0.0
10
-20.799999968433202
20
-28.200000656584617
10
-20.799999715900523
20
-36.200000656584614
10
-23.599999715900534
20
-36.200000744971021
10
-23.599999968433089
20
-28.200000744970993
0
CIRCLE
5
102
100
AcDbEntity
8
0
100
AcDbCircle
10
20.909999999999997
20
-5.7900000000000045
30
0
40
2.0999999999999996
210
0
220
-0
230
1
0
LWPOLYLINE
5
103
100
AcDbEntity
8
0
100
AcDbPolyline
90
14
70
1
43
0.0
10
28.199999999999719
20
-1.0000000000000058
42
0.41421388064707521
10
25.999999103509328
20
1.199999999999233
10
-25.999999999999996
20
1.2000000000000042
42
0.41421388064641046
10
-28.199999999994517
20
-1.0000008964906673
10
-28.20000000000001
20
-36.999999999999822
42
0.41421388064496883
10
-25.999999103515332
20
-39.199999999999513
10
-18.000000000000806
20
-39.200000000000003
42
0.41421388064638626
10
-15.799999999990488
20
-36.999999103515322
10
-15.799999999999912
20
-27.20000000000028
10
15.799999999999725
20
-27.200000000000006
10
15.799999999999999
20
-37.000000000000036
42
0.4142138806464058
10
18.000000896490665
20
-39.199999999994517
10
25.999999999999204
20
-39.20000000000001
42
0.41421388064571851
10
28.200000000004511
20
-36.999999103515329
0
CIRCLE
5
104
100
AcDbEntity
8
0
100
AcDbCircle
10
20.909999999999997
20
-5.7900000000000045
30
0
40
2.0999999999999996
210
0
220
-0
230
1
0
CIRCLE
5
105
100
AcDbEntity
8
0
100
AcDbCircle
10
20.910000000000004
20
-5.7900000000000045
30
0
40
10
210
0
220
0
230
1
0
LWPOLYLINE
5
106
100
AcDbEntity
8
0
100
AcDbPolyline
90
4
70
1
43
0.0
10
12.47083422238957
20
-15.791523932781899
10
16.840286170118929
20
-11.679603496235963
10
14.784325951845958
20
-9.4948775223712829
10
10.414874004116603
20
-13.60679795891722
0
LINE
5
107
100
AcDbEntity
8
0
100
AcDbLine
10
11.442854113253087
20
-14.69916094584956
30
0
11
15.81230606098244
21
-10.587240509303621
31
0
0
LWPOLYLINE
5
108
100
AcDbEntity
8
0
100
AcDbPolyline
90
4
70
1
43
0.0
10
8.6007060834501612
20
-10.231990913541953
10
14.44072268907215
20
-8.8556893310174498
10
13.752571897809894
20
-5.935681028206452
10
7.9125552921879061
20
-7.3119826107309596
0
LINE
5
109
100
AcDbEntity
8
0
100
AcDbLine
10
8.256630687819035
20
-8.7719867621364571
30
0
11
14.096647293441023
21
-7.3956851796119505
31
0
0
LWPOLYLINE
5
110
100
AcDbEntity
8
0
100
AcDbPolyline
90
4
70
1
43
0.0
10
8.0288433088476179
20
-3.4822300162320765
10
13.774596839101484
20
-5.2103261853081051
10
14.638644923639498
20
-2.3374494201811697
10
8.8928913933856322
20
-0.60935325110514293
0
LINE
5
111
100
AcDbEntity
8
0
100
AcDbLine
10
8.4608673511166241
20
-2.0457916336686095
30
0
11
14.206620881370489
21
-3.7738878027446372
31
0
0
LWPOLYLINE
5
112
100
AcDbEntity
8
0
100
AcDbPolyline
90
4
70
1
43
0.0
10
18.602230016232067
20
-18.67115669115238
10
20.330326185308088
20
-12.925403160898515
10
17.457449420181149
20
-12.061355076360506
10
15.729353251105135
20
-17.807108606614374
0
LINE
5
113
100
AcDbEntity
8
0
100
AcDbLine
10
17.165791633668597
20
-18.239132648883377
30
0
11
18.893887802744629
21
-12.493379118629512
31
0
0
LWPOLYLINE
5
114
100
AcDbEntity
8
0
100
AcDbPolyline
90
4
70
1
43
0.0
10
25.351990913541961
20
-18.099293916549822
10
23.975689331017421
20
-12.259277310927843
10
21.055681028206436
20
-12.947428102190115
10
22.431982610730973
20
-18.787444707812092
0
LINE
5
115
100
AcDbEntity
8
0
100
AcDbLine
10
23.891986762136469
20
-18.443369312180959
30
0
11
22.515685179611935
21
-12.603352706558981
31
0
0
LINE
5
116
100
AcDbEntity
8
0
100
AcDbLine
10
11.333744116243558
20
-2.9098397182066216
30
0
11
20.909999999999997
21
-5.7900000000000045
31
0
0
LINE
5
117
100
AcDbEntity
8
0
100
AcDbLine
10
11.17663899063003
20
-8.0838359708742065
30
0
11
20.909999999999997
21
-5.7900000000000045
31
0
0
LINE
5
118
100
AcDbEntity
8
0
100
AcDbLine
10
13.627580087117764
20
-12.643200727576591
30
0
11
20.909999999999997
21
-5.7900000000000018
31
0
0
LINE
5
119
100
AcDbEntity
8
0
100
AcDbLine
10
18.029839718206617
20
-15.366255883756448
30
0
11
20.909999999999997
21
-5.7900000000000063
31
0
0
LINE
5
120
100
AcDbEntity
8
0
100
AcDbLine
10
23.203835970874206
20
-15.523361009369971
30
0
11
20.910000000000004
21
-5.7900000000000063
31
0
0
LINE
5
121
100
AcDbEntity
8
0
100
AcDbLine
10
20.909999999999997
20
-5.7900000000000045
30
0
11
26.000000747074992
21
-0.99999925292500513
31
0
0
ARC
5
122
100
AcDbEntity
8
0
100
AcDbCircle
10
26.000000747074992
20
-0.99999925292500513
30
0
40
2.1999992529248518
210
-0
220
0
230
1
100
AcDbArc
50
-1.9431558064412557e-05
51
90.000042804276305
0
LINE
5
123
100
AcDbEntity
8
0
100
AcDbLine
10
11.68693545944004
20
-13.0494619242646
30
0
11
13.08094940794464
21
-14.530783622106567
31
0
0
LINE
5
124
100
AcDbEntity
8
0
100
AcDbLine
10
13.080949407944642
20
-14.530783622106567
30
0
11
12.671623710182111
21
-14.915984036704977
31
0
0
LINE
5
125
100
AcDbEntity
8
0
100
AcDbLine
10
12.671623710182111
20
-14.915984036704975
30
0
11
11.758175237735539
21
-13.945325856743986
31
0
0
SPLINE
5
126
100
AcDbEntity
8
0
100
AcDbSpline
70
0
71
2
72
6
73
3
74
0
42
0.000000001
43
0.0000000001
44
0.0000000001
40
0
40
0
40
0
40
1
40
1
40
1
10
11.758175237735539
20
-13.945325856743986
30
0
10
11.729880821446116
20
-14.114327855521465
30
0
10
11.68093047576172
20
-14.248440760674775
30
0
0
SPLINE
5
127
100
AcDbEntity
8
0
100
AcDbSpline
70
0
71
2
72
6
73
3
74
0
42
0.000000001
43
0.0000000001
44
0.0000000001
40
0
40
0
40
0
40
1
40
1
40
1
10
11.68093047576172
20
-14.248440760674775
30
0
10
11.631980130077322
20
-14.382553665828082
30
0
10
11.532098233691002
20
-14.557102732494407
30
0
0
LINE
5
128
100
AcDbEntity
8
0
100
AcDbLine
10
11.532098233691002
20
-14.557102732494407
30
0
11
11.219824318888174
21
-14.225270955514196
31
0
0
SPLINE
5
129
100
AcDbEntity
8
0
100
AcDbSpline
70
0
71
2
72
6
73
3
74
0
42
0.000000001
43
0.0000000001
44
0.0000000001
40
0
40
0
40
0
40
1
40
1
40
1
10
11.219824318888174
20
-14.225270955514196
30
0
10
11.363832359369122
20
-13.964235728304899
30
0
10
11.390200273960263
20
-13.763326413559721
30
0
0
SPLINE
5
130
100
AcDbEntity
8
0
100
AcDbSpline
70
0
71
2
72
6
73
3
74
0
42
0.000000001
43
0.0000000001
44
0.0000000001
40
0
40
0
40
0
40
1
40
1
40
1
10
11.390200273960263
20
-13.763326413559721
30
0
10
11.416568297067919
20
-13.562416996693894
30
0
10
11.352122950880659
20
-13.364540889046893
30
0
0
LINE
5
131
100
AcDbEntity
8
0
100
AcDbLine
10
11.352122950880659
20
-13.364540889046893
30
0
11
11.68693545944004
21
-13.0494619242646
31
0
0
LINE
5
132
100
AcDbEntity
8
0
100
AcDbLine
10
14.705336346584104
20
-13.002136567566716
30
0
11
13.491268574383717
21
-14.144648292968984
31
0
0
SPLINE
5
133
100
AcDbEntity
8
0
100
AcDbSpline
70
0
71
2
72
6
73
3
74
0
42
0.000000001
43
0.0000000001
44
0.0000000001
40
0
40
0
40
0
40
1
40
1
40
1
10
13.491268574383714
20
-14.144648292968984
30
0
10
13.342905911049513
20
-13.94518916962037
30
0
10
13.299589666327044
20
-13.687152026791596
30
0
0
SPLINE
5
134
100
AcDbEntity
8
0
100
AcDbSpline
70
0
71
2
72
6
73
3
74
0
42
0.000000001
43
0.0000000001
44
0.0000000001
40
0
40
0
40
0
40
1
40
1
40
1
10
13.299589666327044
20
-13.687152026791596
30
0
10
13.256273517329362
20
-13.429115203116496
30
0
10
13.344486941083584
20
-12.939582619340626
30
0
0
SPLINE
5
135
100
AcDbEntity
8
0
100
AcDbSpline
70
0
71
2
72
6
73
3
74
0
42
0.000000001
43
0.0000000001
44
0.0000000001
40
0
40
0
40
0
40
1
40
1
40
1
10
13.344486941083584
20
-12.939582619340626
30
0
10
13.397976467169537
20
-12.640089423455787
30
0
10
13.383140095954179
20
-12.524789698214615
30
0
0
SPLINE
5
136
100
AcDbEntity
8
0
100
AcDbSpline
70
0
71
2
72
6
73
3
74
0
42
0.000000001
43
0.0000000001
44
0.0000000001
40
0
40
0
40
0
40
1
40
1
40
1
10
13.383140095954179
20
-12.524789698214615
30
0
10
13.368303724738817
20
-12.409489972973445
30
0
10
13.310336674535188
20
-12.34789241914793
30
0
0
SPLINE
5
137
100
AcDbEntity
8
0
100
AcDbSpline
70
0
71
2
72
6
73
3
74
0
42
0.000000001
43
0.0000000001
44
0.0000000001
40
0
40
0
40
0
40
1
40
1
40
1
10
13.310336674535188
20
-12.34789241914793
30
0
10
13.247694949515051
20
-12.281327413423185
30
0
10
13.15410602114445
20
-12.280415700532266
30
0
0
SPLINE
5
138
100
AcDbEntity
8
0
100
AcDbSpline
70
0
71
2
72
6
73
3
74
0
42
0.000000001
43
0.0000000001
44
0.0000000001
40
0
40
0
40
0
40
1
40
1
40
1
10
13.15410602114445
20
-12.280415700532266
30
0
10
13.060516977861472
20
-12.279504300399156
30
0
10
12.986003897174836
20
-12.349625648094625
30
0
0
SPLINE
5
139
100
AcDbEntity
8
0
100
AcDbSpline
70
0
71
2
72
6
73
3
74
0
42
0.000000001
43
0.0000000001
44
0.0000000001
40
0
40
0
40
0
40
1
40
1
40
1
10
12.986003897174836
20
-12.349625648094625
30
0
10
12.908510084909031
20
-12.422552045769557
30
0
10
12.905144239092925
20
-12.517514129534351
30
0
0
SPLINE
5
140
100
AcDbEntity
8
0
100
AcDbSpline
70
0
71
2
72
6
73
3
74
0
42
0.000000001
43
0.0000000001
44
0.0000000001
40
0
40
0
40
0
40
1
40
1
40
1
10
12.905144239092925
20
-12.517514129534351
30
0
10
12.90177829115617
20
-12.612476104782633
30
0
10
13.00082266444659
20
-12.751565474444138
30
0
0
LINE
5
141
100
AcDbEntity
8
0
100
AcDbLine
10
13.00082266444659
20
-12.751565474444138
30
0
11
12.564617551062128
21
-13.100240149603943
31
0
0
SPLINE
5
142
100
AcDbEntity
8
0
100
AcDbSpline
70
0
71
2
72
6
73
3
74
0
42
0.000000001
43
0.0000000001
44
0.0000000001
40
0
40
0
40
0
40
1
40
1
40
1
10
12.564617551062128
20
-13.100240149603945
30
0
10
12.427650041609223
20
-12.906917832672111
30
0
10
12.401011660870491
20
-12.751207163130287
30
0
0
SPLINE
5
143
100
AcDbEntity
8
0
100
AcDbSpline
70
0
71
2
72
6
73
3
74
0
42
0.000000001
43
0.0000000001
44
0.0000000001
40
0
40
0
40
0
40
1
40
1
40
1
10
12.401011660870491
20
-12.751207163130287
30
0
10
12.374373273735896
20
-12.595496704225626
30
0
10
12.441967107022167
20
-12.435409073766293
30
0
0
SPLINE
5
144
100
AcDbEntity
8
0
100
AcDbSpline
70
0
71
2
72
6
73
3
74
0
42
0.000000001
43
0.0000000001
44
0.0000000001
40
0
40
0
40
0
40
1
40
1
40
1
10
12.441967107022167
20
-12.435409073766293
30
0
10
12.509560729671279
20
-12.275321436911092
30
0
10
12.714223741327313
20
-12.082721076430916
30
0
0
SPLINE
5
145
100
AcDbEntity
8
0
100
AcDbSpline
70
0
71
2
72
6
73
3
74
0
42
0.000000001
43
0.0000000001
44
0.0000000001
40
0
40
0
40
0
40
1
40
1
40
1
10
12.714223741327313
20
-12.082721076430916
30
0
10
12.927828079588753
20
-11.881706382977535
30
0
10
13.092364957495191
20
-11.818661571746055
30
0
0
SPLINE
5
146
100
AcDbEntity
8
0
100
AcDbSpline
70
0
71
2
72
6
73
3
74
0
42
0.000000001
43
0.0000000001
44
0.0000000001
40
0
40
0
40
0
40
1
40
1
40
1
10
13.092364957495191
20
-11.818661571746055
30
0
10
13.256901835401628
20
-11.755616760514577
30
0
10
13.419854970682831
20
-11.792413548422489
30
0
0
SPLINE
5
147
100
AcDbEntity
8
0
100
AcDbSpline
70
0
71
2
72
6
73
3
74
0
42
0.000000001
43
0.0000000001
44
0.0000000001
40
0
40
0
40
0
40
1
40
1
40
1
10
13.419854970682831
20
-11.792413548422489
30
0
10
13.58280820808468
20
-11.829210444846915
30
0
10
13.700612137570282
20
-11.954392489851029
30
0
0
SPLINE
5
148
100
AcDbEntity
8
0
100
AcDbSpline
70
0
71
2
72
6
73
3
74
0
42
0.000000001
43
0.0000000001
44
0.0000000001
40
0
40
0
40
0
40
1
40
1
40
1
10
13.700612137570282
20
-11.954392489851029
30
0
10
13.825895791851861
20
-12.087522718333545
30
0
10
13.86196936019779
20
-12.282124686119818
30
0
0
SPLINE
5
149
100
AcDbEntity
8
0
100
AcDbSpline
70
0
71
2
72
6
73
3
74
0
42
0.000000001
43
0.0000000001
44
0.0000000001
40
0
40
0
40
0
40
1
40
1
40
1
10
13.86196936019779
20
-12.282124686119818
30
0
10
13.898042928543719
20
-12.476726653906088
30
0
10
13.828889810994927
20
-12.815313909230586
30
0
0
SPLINE
5
150
100
AcDbEntity
8
0
100
AcDbSpline
70
0
71
2
72
6
73
3
74
0
42
0.000000001
43
0.0000000001
44
0.0000000001
40
0
40
0
40
0
40
1
40
1
40
1
10
13.828889810994927
20
-12.815313909230586
30
0
10
13.786159182106745
20
-13.014761194496147
30
0
10
13.77671707404518
20
-13.087341184975541
30
0
0
SPLINE
5
151
100
AcDbEntity
8
0
100
AcDbSpline
70
0
71
2
72
6
73
3
74
0
42
0.000000001
43
0.0000000001
44
0.0000000001
40
0
40
0
40
0
40
1
40
1
40
1
10
13.77671707404518
20
-13.087341184975541
30
0
10
13.767274761742318
20
-13.159920958421907
30
0
10
13.763060368439405
20
-13.266921258293504
30
0
0
LINE
5
152
100
AcDbEntity
8
0
100
AcDbLine
10
13.763060368439405
20
-13.266921258293504
30
0
11
14.394932056618321
21
-12.672291510906566
31
0
0
LINE
5
153
100
AcDbEntity
8
0
100
AcDbLine
10
14.394932056618321
20
-12.672291510906566
30
0
11
14.705336346584101
21
-13.002136567566716
31
0
0
LINE
5
154
100
AcDbEntity
8
0
100
AcDbLine
10
13.430073080187332
20
-11.455897091183029
30
0
11
13.900545988246414
21
-11.013153427073243
31
0
0
LINE
5
155
100
AcDbEntity
8
0
100
AcDbLine
10
13.90054598824641
20
-11.013153427073243
30
0
11
15.214732315574386
21
-11.752814870291559
31
0
0
LINE
5
156
100
AcDbEntity
8
0
100
AcDbLine
10
15.214732315574388
20
-11.752814870291559
30
0
11
14.551977777894148
21
-10.400116432751748
31
0
0
LINE
5
157
100
AcDbEntity
8
0
100
AcDbLine
10
14.551977777894148
20
-10.400116432751748
30
0
11
15.008758506408544
21
-9.9702579436168008
31
0
0
LINE
5
158
100
AcDbEntity
8
0
100
AcDbLine
10
15.008758506408544
20
-9.9702579436168008
30
0
11
15.838588833088686
21
-11.935676948655875
31
0
0
LINE
5
159
100
AcDbEntity
8
0
100
AcDbLine
10
15.838588833088686
20
-11.935676948655875
30
0
11
15.350775637350779
21
-12.394738879709688
31
0
0
LINE
5
160
100
AcDbEntity
8
0
100
AcDbLine
10
15.350775637350779
20
-12.394738879709685
30
0
11
13.430073080187332
21
-11.455897091183029
31
0
0
LINE
5
161
100
AcDbEntity
8
0
100
AcDbLine
10
9.2928608449993195
20
-7.4653461739390226
30
0
11
9.7594514887131734
21
-9.4452153696995609
31
0
0
LINE
5
162
100
AcDbEntity
8
0
100
AcDbLine
10
9.7594514887131751
20
-9.4452153696995609
30
0
11
9.212364828729827
21
-9.5741458654088145
31
0
0
LINE
5
163
100
AcDbEntity
8
0
100
AcDbLine
10
9.212364828729827
20
-9.5741458654088145
30
0
11
8.9066243365234996
21
-8.2768069869481469
31
0
0
SPLINE
5
164
100
AcDbEntity
8
0
100
AcDbSpline
70
0
71
2
72
6
73
3
74
0
42
0.000000001
43
0.0000000001
44
0.0000000001
40
0
40
0
40
0
40
1
40
1
40
1
10
8.9066243365234996
20
-8.2768069869481469
30
0
10
8.7976196538428688
20
-8.4090198030350791
30
0
10
8.6881709583794979
20
-8.5006898130309789
30
0
0
SPLINE
5
165
100
AcDbEntity
8
0
100
AcDbSpline
70
0
71
2
72
6
73
3
74
0
42
0.000000001
43
0.0000000001
44
0.0000000001
40
0
40
0
40
0
40
1
40
1
40
1
10
8.6881709583794979
20
-8.5006898130309789
30
0
10
8.5787222629161253
20
-8.592359823026877
30
0
10
8.4049474699342426
20
-8.6935828007736173
30
0
0
LINE
5
166
100
AcDbEntity
8
0
100
AcDbLine
10
8.4049474699342426
20
-8.6935828007736173
30
0
11
8.3004262152658832
21
-8.250071094724408
31
0
0
SPLINE
5
167
100
AcDbEntity
8
0
100
AcDbSpline
70
0
71
2
72
6
73
3
74
0
42
0.000000001
43
0.0000000001
44
0.0000000001
40
0
40
0
40
0
40
1
40
1
40
1
10
8.3004262152658832
20
-8.250071094724408
30
0
10
8.5556584502762494
20
-8.0960119769189891
30
0
10
8.6789483915295857
20
-7.9352033637883128
30
0
0
SPLINE
5
168
100
AcDbEntity
8
0
100
AcDbSpline
70
0
71
2
72
6
73
3
74
0
42
0.000000001
43
0.0000000001
44
0.0000000001
40
0
40
0
40
0
40
1
40
1
40
1
10
8.6789483915295857
20
-7.9352033637883128
30
0
10
8.8022384778213034
20
-7.7743947164768157
30
0
10
8.8453652246909549
20
-7.5708063073588994
30
0
0
LINE
5
169
100
AcDbEntity
8
0
100
AcDbLine
10
8.8453652246909549
20
-7.5708063073588994
30
0
11
9.2928608449993195
21
-7.4653461739390226
31
0
0
LINE
5
170
100
AcDbEntity
8
0
100
AcDbLine
10
10.108035361191106
20
-7.3082768030978853
30
0
11
11.392095395684876
21
-7.0056657016450288
31
0
0
LINE
5
171
100
AcDbEntity
8
0
100
AcDbLine
10
11.392095395684873
20
-7.0056657016450288
30
0
11
11.493800253364423
21
-7.4372266801854394
31
0
0
LINE
5
172
100
AcDbEntity
8
0
100
AcDbLine
10
11.493800253364423
20
-7.4372266801854376
30
0
11
10.624039019338534
21
-7.6422010567404524
31
0
0
LINE
5
173
100
AcDbEntity
8
0
100
AcDbLine
10
10.624039019338536
20
-7.6422010567404524
30
0
11
10.64640931190741
21
-7.9452876555999072
31
0
0
SPLINE
5
174
100
AcDbEntity
8
0
100
AcDbSpline
70
0
71
2
72
6
73
3
74
0
42
0.000000001
43
0.0000000001
44
0.0000000001
40
0
40
0
40
0
40
1
40
1
40
1
10
10.646409311907409
20
-7.945287655599909
30
0
10
10.72669125376982
20
-7.8815156548299292
30
0
10
10.809988250035879
20
-7.8394591857673941
30
0
0
SPLINE
5
175
100
AcDbEntity
8
0
100
AcDbSpline
70
0
71
2
72
6
73
3
74
0
42
0.000000001
43
0.0000000001
44
0.0000000001
40
0
40
0
40
0
40
1
40
1
40
1
10
10.809988250035879
20
-7.8394591857673941
30
0
10
10.893285246301934
20
-7.7974027167048598
30
0
10
10.979597587048398
20
-7.7770617109881313
30
0
0
SPLINE
5
176
100
AcDbEntity
8
0
100
AcDbSpline
70
0
71
2
72
6
73
3
74
0
42
0.000000001
43
0.0000000001
44
0.0000000001
40
0
40
0
40
0
40
1
40
1
40
1
10
10.979597587048398
20
-7.7770617109881313
30
0
10
11.27173128408989
20
-7.7082153194967287
30
0
10
11.495271392856313
20
-7.8419510250598945
30
0
0
SPLINE
5
177
100
AcDbEntity
8
0
100
AcDbSpline
70
0
71
2
72
6
73
3
74
0
42
0.000000001
43
0.0000000001
44
0.0000000001
40
0
40
0
40
0
40
1
40
1
40
1
10
11.495271392856313
20
-7.8419510250598945
30
0
10
11.718811723337861
20
-7.9756863721846578
30
0
10
11.782025252490003
20
-8.2439183241317906
30
0
0
SPLINE
5
178
100
AcDbEntity
8
0
100
AcDbSpline
70
0
71
2
72
6
73
3
74
0
42
0.000000001
43
0.0000000001
44
0.0000000001
40
0
40
0
40
0
40
1
40
1
40
1
10
11.782025252490003
20
-8.2439183241317906
30
0
10
11.82646243712133
20
-8.4324772122775293
30
0
10
11.773841736375598
20
-8.6284917218179764
30
0
0
SPLINE
5
179
100
AcDbEntity
8
0
100
AcDbSpline
70
0
71
2
72
6
73
3
74
0
42
0.000000001
43
0.0000000001
44
0.0000000001
40
0
40
0
40
0
40
1
40
1
40
1
10
11.773841736375598
20
-8.6284917218179764
30
0
10
11.721221325706628
20
-8.8245061629967836
30
0
10
11.570853627329129
20
-8.9566552725484971
30
0
0
SPLINE
5
180
100
AcDbEntity
8
0
100
AcDbSpline
70
0
71
2
72
6
73
3
74
0
42
0.000000001
43
0.0000000001
44
0.0000000001
40
0
40
0
40
0
40
1
40
1
40
1
10
11.570853627329129
20
-8.9566552725484971
30
0
10
11.420485638874869
20
-9.0888044504618488
30
0
10
11.152253977004495
20
-9.1520179112523525
30
0
0
SPLINE
5
181
100
AcDbEntity
8
0
100
AcDbSpline
70
0
71
2
72
6
73
3
74
0
42
0.000000001
43
0.0000000001
44
0.0000000001
40
0
40
0
40
0
40
1
40
1
40
1
10
11.152253977004495
20
-9.1520179112523525
30
0
10
10.959711174599603
20
-9.1973939746351956
30
0
10
10.813669931891072
20
-9.193266432277003
30
0
0
SPLINE
5
182
100
AcDbEntity
8
0
100
AcDbSpline
70
0
71
2
72
6
73
3
74
0
42
0.000000001
43
0.0000000001
44
0.0000000001
40
0
40
0
40
0
40
1
40
1
40
1
10
10.813669931891072
20
-9.193266432277003
30
0
10
10.667628475782521
20
-9.1891386340228678
30
0
10
10.554302152808754
20
-9.139457410540528
30
0
0
SPLINE
5
183
100
AcDbEntity
8
0
100
AcDbSpline
70
0
71
2
72
6
73
3
74
0
42
0.000000001
43
0.0000000001
44
0.0000000001
40
0
40
0
40
0
40
1
40
1
40
1
10
10.554302152808754
20
-9.139457410540528
30
0
10
10.440975616434965
20
-9.0897759311622455
30
0
10
10.359628401331875
20
-9.0122344749194028
30
0
0
SPLINE
5
184
100
AcDbEntity
8
0
100
AcDbSpline
70
0
71
2
72
6
73
3
74
0
42
0.000000001
43
0.0000000001
44
0.0000000001
40
0
40
0
40
0
40
1
40
1
40
1
10
10.359628401331875
20
-9.0122344749194028
30
0
10
10.278280972828766
20
-8.9346927627806192
30
0
10
10.20621200476516
20
-8.8073094171623474
30
0
0
LINE
5
185
100
AcDbEntity
8
0
100
AcDbLine
10
10.20621200476516
20
-8.8073094171623474
30
0
11
10.739216295500336
21
-8.6186243028212459
31
0
0
SPLINE
5
186
100
AcDbEntity
8
0
100
AcDbSpline
70
0
71
2
72
6
73
3
74
0
42
0.000000001
43
0.0000000001
44
0.0000000001
40
0
40
0
40
0
40
1
40
1
40
1
10
10.739216295500334
20
-8.6186243028212459
30
0
10
10.790115296001517
20
-8.7453904290443738
30
0
10
10.879265117562545
20
-8.7965647009684229
30
0
0
SPLINE
5
187
100
AcDbEntity
8
0
100
AcDbSpline
70
0
71
2
72
6
73
3
74
0
42
0.000000001
43
0.0000000001
44
0.0000000001
40
0
40
0
40
0
40
1
40
1
40
1
10
10.879265117562545
20
-8.7965647009684229
30
0
10
10.968414870761933
20
-8.8477386828157112
30
0
10
11.069333736818251
20
-8.8239553951233134
30
0
0
SPLINE
5
188
100
AcDbEntity
8
0
100
AcDbSpline
70
0
71
2
72
6
73
3
74
0
42
0.000000001
43
0.0000000001
44
0.0000000001
40
0
40
0
40
0
40
1
40
1
40
1
10
11.069333736818251
20
-8.8239553951233134
30
0
10
11.182203475421751
20
-8.7973556762612848
30
0
10
11.235716500348003
20
-8.6943395165462647
30
0
0
SPLINE
5
189
100
AcDbEntity
8
0
100
AcDbSpline
70
0
71
2
72
6
73
3
74
0
42
0.000000001
43
0.0000000001
44
0.0000000001
40
0
40
0
40
0
40
1
40
1
40
1
10
11.235716500348003
20
-8.6943395165462647
30
0
10
11.289229166835854
20
-8.5913231351161201
30
0
10
11.249173074570074
20
-8.4213543964626307
30
0
0
SPLINE
5
190
100
AcDbEntity
8
0
100
AcDbSpline
70
0
71
2
72
6
73
3
74
0
42
0.000000001
43
0.0000000001
44
0.0000000001
40
0
40
0
40
0
40
1
40
1
40
1
10
11.249173074570074
20
-8.4213543964626307
30
0
10
11.208178171914414
20
-8.2474020336267468
30
0
10
11.114727826410519
20
-8.1839260847446198
30
0
0
SPLINE
5
191
100
AcDbEntity
8
0
100
AcDbSpline
70
0
71
2
72
6
73
3
74
0
42
0.000000001
43
0.0000000001
44
0.0000000001
40
0
40
0
40
0
40
1
40
1
40
1
10
11.114727826410519
20
-8.1839260847446198
30
0
10
11.021277412544986
20
-8.1204498457857284
30
0
10
10.897784482737261
20
-8.1495531045951868
30
0
0
SPLINE
5
192
100
AcDbEntity
8
0
100
AcDbSpline
70
0
71
2
72
6
73
3
74
0
42
0.000000001
43
0.0000000001
44
0.0000000001
40
0
40
0
40
0
40
1
40
1
40
1
10
10.897784482737261
20
-8.1495531045951868
30
0
10
10.819439390355585
20
-8.1680164895321621
30
0
10
10.755481396329351
20
-8.2237365966147618
30
0
0
SPLINE
5
193
100
AcDbEntity
8
0
100
AcDbSpline
70
0
71
2
72
6
73
3
74
0
42
0.000000001
43
0.0000000001
44
0.0000000001
40
0
40
0
40
0
40
1
40
1
40
1
10
10.755481396329351
20
-8.2237365966147618
30
0
10
10.707610011847937
20
-8.2644524201275935
30
0
10
10.659755378396421
20
-8.3528199110906645
30
0
0
LINE
5
194
100
AcDbEntity
8
0
100
AcDbLine
10
10.659755378396421
20
-8.3528199110906645
30
0
11
10.183334173753831
21
-8.3950154713254559
31
0
0
LINE
5
195
100
AcDbEntity
8
0
100
AcDbLine
10
10.183334173753828
20
-8.3950154713254559
30
0
11
10.108035361191103
21
-7.3082768030978853
31
0
0
LINE
5
196
100
AcDbEntity
8
0
100
AcDbLine
10
11.599244723399625
20
-6.9568473562865165
30
0
11
12.228058045626023
21
-6.8086565498323779
31
0
0
LINE
5
197
100
AcDbEntity
8
0
100
AcDbLine
10
12.228058045626021
20
-6.8086565498323779
30
0
11
12.996346068789062
21
-8.1063153135232877
31
0
0
LINE
5
198
100
AcDbEntity
8
0
100
AcDbLine
10
12.996346068789064
20
-8.1063153135232877
30
0
11
13.098733021454471
21
-6.6034668341141733
31
0
0
LINE
5
199
100
AcDbEntity
8
0
100
AcDbLine
10
13.098733021454469
20
-6.6034668341141733
30
0
11
13.709245980874574
21
-6.4595888267481119
31
0
0
LINE
5
200
100
AcDbEntity
8
0
100
AcDbLine
10
13.709245980874574
20
-6.4595888267481101
30
0
11
13.445190622090779
21
-8.5766067775327528
31
0
0
LINE
5
201
100
AcDbEntity
8
0
100
AcDbLine
10
13.445190622090779
20
-8.5766067775327528
30
0
11
12.793201036753576
21
-8.7302594738667434
31
0
0
LINE
5
202
100
AcDbEntity
8
0
100
AcDbLine
10
12.793201036753574
20
-8.7302594738667434
30
0
11
11.599244723399625
21
-6.9568473562865174
31
0
0
LINE
5
203
100
AcDbEntity
8
0
100
AcDbLine
10
9.8509821851023673
20
-3.5081329904662342
30
0
11
8.2545041206822169
21
-3.0279753205258597
31
0
0
SPLINE
5
204
100
AcDbEntity
8
0
100
AcDbSpline
70
0
71
2
72
6
73
3
74
0
42
0.000000001
43
0.0000000001
44
0.0000000001
40
0
40
0
40
0
40
1
40
1
40
1
10
8.2545041206822169
20
-3.0279753205258602
30
0
10
8.3530594211772566
20
-2.7997599127015844
30
0
10
8.5548680196256939
20
-2.6332283729609944
30
0
0
SPLINE
5
205
100
AcDbEntity
8
0
100
AcDbSpline
70
0
71
2
72
6
73
3
74
0
42
0.000000001
43
0.0000000001
44
0.0000000001
40
0
40
0
40
0
40
1
40
1
40
1
10
8.5548680196256939
20
-2.6332283729609944
30
0
10
8.7566764965643333
20
-2.4666971078856363
30
0
10
9.2247307906229139
20
-2.2983258604647938
30
0
0
SPLINE
5
206
100
AcDbEntity
8
0
100
AcDbSpline
70
0
71
2
72
6
73
3
74
0
42
0.000000001
43
0.0000000001
44
0.0000000001
40
0
40
0
40
0
40
1
40
1
40
1
10
9.2247307906229139
20
-2.2983258604647938
30
0
10
9.5108441982140839
20
-2.1949025294903315
30
0
10
9.6032785750632907
20
-2.1244040139561338
30
0
0
SPLINE
5
207
100
AcDbEntity
8
0
100
AcDbSpline
70
0
71
2
72
6
73
3
74
0
42
0.000000001
43
0.0000000001
44
0.0000000001
40
0
40
0
40
0
40
1
40
1
40
1
10
9.6032785750632907
20
-2.1244040139561338
30
0
10
9.695712880563832
20
-2.0539054769630694
30
0
10
9.7200744018858902
20
-1.9729057619915225
30
0
0
SPLINE
5
208
100
AcDbEntity
8
0
100
AcDbSpline
70
0
71
2
72
6
73
3
74
0
42
0.000000001
43
0.0000000001
44
0.0000000001
40
0
40
0
40
0
40
1
40
1
40
1
10
9.7200744018858902
20
-1.9729057619915225
30
0
10
9.746400525336508
20
-1.8853739339248281
30
0
10
9.7003955563270345
20
-1.8038676665386009
30
0
0
SPLINE
5
209
100
AcDbEntity
8
0
100
AcDbSpline
70
0
71
2
72
6
73
3
74
0
42
0.000000001
43
0.0000000001
44
0.0000000001
40
0
40
0
40
0
40
1
40
1
40
1
10
9.7003955563270345
20
-1.8038676665386009
30
0
10
9.654390473051162
20
-1.7223615203908396
30
0
10
9.5564069929073021
20
-1.6928919519908423
30
0
0
SPLINE
5
210
100
AcDbEntity
8
0
100
AcDbSpline
70
0
71
2
72
6
73
3
74
0
42
0.000000001
43
0.0000000001
44
0.0000000001
40
0
40
0
40
0
40
1
40
1
40
1
10
9.5564069929073021
20
-1.6928919519908423
30
0
10
9.454504116478752
20
-1.662243583687752
30
0
10
9.370581473936749
20
-1.7068096746704466
30
0
0
SPLINE
5
211
100
AcDbEntity
8
0
100
AcDbSpline
70
0
71
2
72
6
73
3
74
0
42
0.000000001
43
0.0000000001
44
0.0000000001
40
0
40
0
40
0
40
1
40
1
40
1
10
9.370581473936749
20
-1.7068096746704466
30
0
10
9.286658945661145
20
-1.7513756444146749
30
0
10
9.2157262761317948
20
-1.9066952940757078
30
0
0
LINE
5
212
100
AcDbEntity
8
0
100
AcDbLine
10
9.2157262761317948
20
-1.9066952940757078
30
0
11
8.6956626109320503
21
-1.7032679275687144
31
0
0
SPLINE
5
213
100
AcDbEntity
8
0
100
AcDbSpline
70
0
71
2
72
6
73
3
74
0
42
0.000000001
43
0.0000000001
44
0.0000000001
40
0
40
0
40
0
40
1
40
1
40
1
10
8.6956626109320503
20
-1.7032679275687144
30
0
10
8.7946008759498646
20
-1.4879894210587776
30
0
10
8.9161310096953343
20
-1.3870645503935775
30
0
0
SPLINE
5
214
100
AcDbEntity
8
0
100
AcDbSpline
70
0
71
2
72
6
73
3
74
0
42
0.000000001
43
0.0000000001
44
0.0000000001
40
0
40
0
40
0
40
1
40
1
40
1
10
8.9161310096953343
20
-1.3870645503935775
30
0
10
9.0376611718717399
20
-1.2861398438845759
30
0
10
9.2100979719756477
20
-1.2646339839611227
30
0
0
SPLINE
5
215
100
AcDbEntity
8
0
100
AcDbSpline
70
0
71
2
72
6
73
3
74
0
42
0.000000001
43
0.0000000001
44
0.0000000001
40
0
40
0
40
0
40
1
40
1
40
1
10
9.2100979719756477
20
-1.2646339839611227
30
0
10
9.3825348149972889
20
-1.2431279813403369
30
0
10
9.6516629117331831
20
-1.3240711040328046
30
0
0
SPLINE
5
216
100
AcDbEntity
8
0
100
AcDbSpline
70
0
71
2
72
6
73
3
74
0
42
0.000000001
43
0.0000000001
44
0.0000000001
40
0
40
0
40
0
40
1
40
1
40
1
10
9.6516629117331831
20
-1.3240711040328046
30
0
10
9.932549054625806
20
-1.4085505835168188
30
0
10
10.06941590168228
20
-1.5195212940274327
30
0
0
SPLINE
5
217
100
AcDbEntity
8
0
100
AcDbSpline
70
0
71
2
72
6
73
3
74
0
42
0.000000001
43
0.0000000001
44
0.0000000001
40
0
40
0
40
0
40
1
40
1
40
1
10
10.06941590168228
20
-1.5195212940274327
30
0
10
10.206282891436086
20
-1.63049204745578
30
0
10
10.255892363273436
20
-1.7900119532718444
30
0
0
SPLINE
5
218
100
AcDbEntity
8
0
100
AcDbSpline
70
0
71
2
72
6
73
3
74
0
42
0.000000001
43
0.0000000001
44
0.0000000001
40
0
40
0
40
0
40
1
40
1
40
1
10
10.255892363273436
20
-1.7900119532718444
30
0
10
10.305501792193052
20
-1.9495320017852418
30
0
10
10.255992925864604
20
-2.114144219887462
30
0
0
SPLINE
5
219
100
AcDbEntity
8
0
100
AcDbSpline
70
0
71
2
72
6
73
3
74
0
42
0.000000001
43
0.0000000001
44
0.0000000001
40
0
40
0
40
0
40
1
40
1
40
1
10
10.255992925864604
20
-2.114144219887462
30
0
10
10.203340593127908
20
-2.2892081614155151
30
0
10
10.052847272268853
20
-2.4177498148191123
30
0
0
SPLINE
5
220
100
AcDbEntity
8
0
100
AcDbSpline
70
0
71
2
72
6
73
3
74
0
42
0.000000001
43
0.0000000001
44
0.0000000001
40
0
40
0
40
0
40
1
40
1
40
1
10
10.052847272268853
20
-2.4177498148191123
30
0
10
9.9023539514097987
20
-2.5462914682227087
30
0
10
9.5745520854294046
20
-2.6556966964190805
30
0
0
SPLINE
5
221
100
AcDbEntity
8
0
100
AcDbSpline
70
0
71
2
72
6
73
3
74
0
42
0.000000001
43
0.0000000001
44
0.0000000001
40
0
40
0
40
0
40
1
40
1
40
1
10
9.5745520854294046
20
-2.6556966964190805
30
0
10
9.3804602838808311
20
-2.7184145074561457
30
0
10
9.3128831142884607
20
-2.7465273972492499
30
0
0
SPLINE
5
222
100
AcDbEntity
8
0
100
AcDbSpline
70
0
71
2
72
6
73
3
74
0
42
0.000000001
43
0.0000000001
44
0.0000000001
40
0
40
0
40
0
40
1
40
1
40
1
10
9.3128831142884607
20
-2.7465273972492499
30
0
10
9.2453060305315589
20
-2.7746400016476884
30
0
10
9.1505340700247437
20
-2.8244904442982248
30
0
0
LINE
5
223
100
AcDbEntity
8
0
100
AcDbLine
10
9.1505340700247437
20
-2.8244904442982248
30
0
11
9.9814342384998831
21
-3.0743924615821223
31
0
0
LINE
5
224
100
AcDbEntity
8
0
100
AcDbLine
10
9.9814342384998831
20
-3.0743924615821223
30
0
11
9.8509821851023656
21
-3.5081329904662342
31
0
0
SPLINE
5
225
100
AcDbEntity
8
0
100
AcDbSpline
70
0
71
2
72
6
73
3
74
0
42
0.000000001
43
0.0000000001
44
0.0000000001
40
0
40
0
40
0
40
1
40
1
40
1
10
10.368677684009086
20
-2.6110379740920884
30
0
10
10.532921400447011
20
-2.0649434161429254
30
0
10
10.795160567664102
20
-1.9059023718012502
30
0
0
SPLINE
5
226
100
AcDbEntity
8
0
100
AcDbSpline
70
0
71
2
72
6
73
3
74
0
42
0.000000001
43
0.0000000001
44
0.0000000001
40
0
40
0
40
0
40
1
40
1
40
1
10
10.795160567664102
20
-1.9059023718012502
30
0
10
11.057399877578529
20
-1.7468613703773075
30
0
10
11.459785521579807
20
-1.8678831103855453
30
0
0
SPLINE
5
227
100
AcDbEntity
8
0
100
AcDbSpline
70
0
71
2
72
6
73
3
74
0
42
0.000000001
43
0.0000000001
44
0.0000000001
40
0
40
0
40
0
40
1
40
1
40
1
10
11.459785521579807
20
-1.8678831103855453
30
0
10
11.653139551011069
20
-1.9260363805834784
30
0
10
11.76291012134778
20
-2.0110498180277983
30
0
0
SPLINE
5
228
100
AcDbEntity
8
0
100
AcDbSpline
70
0
71
2
72
6
73
3
74
0
42
0.000000001
43
0.0000000001
44
0.0000000001
40
0
40
0
40
0
40
1
40
1
40
1
10
11.76291012134778
20
-2.0110498180277983
30
0
10
11.872680977079158
20
-2.0960633413075835
30
0
10
11.928081210301698
20
-2.1960660318391945
30
0
0
SPLINE
5
229
100
AcDbEntity
8
0
100
AcDbSpline
70
0
71
2
72
6
73
3
74
0
42
0.000000001
43
0.0000000001
44
0.0000000001
40
0
40
0
40
0
40
1
40
1
40
1
10
11.928081210301698
20
-2.1960660318391945
30
0
10
11.983482014313566
20
-2.2960688940417362
30
0
10
12.003210528471071
20
-2.3938908032845281
30
0
0
SPLINE
5
230
100
AcDbEntity
8
0
100
AcDbSpline
70
0
71
2
72
6
73
3
74
0
42
0.000000001
43
0.0000000001
44
0.0000000001
40
0
40
0
40
0
40
1
40
1
40
1
10
12.003210528471071
20
-2.3938908032845281
30
0
10
12.022939085546309
20
-2.4917125698299882
30
0
10
12.016582568304852
20
-2.6123184760966236
30
0
0
SPLINE
5
231
100
AcDbEntity
8
0
100
AcDbSpline
70
0
71
2
72
6
73
3
74
0
42
0.000000001
43
0.0000000001
44
0.0000000001
40
0
40
0
40
0
40
1
40
1
40
1
10
12.016582568304852
20
-2.6123184760966236
30
0
10
12.005706748847956
20
-2.8426856962796294
30
0
10
11.935765608372291
20
-3.0752332604657702
30
0
0
SPLINE
5
232
100
AcDbEntity
8
0
100
AcDbSpline
70
0
71
2
72
6
73
3
74
0
42
0.000000001
43
0.0000000001
44
0.0000000001
40
0
40
0
40
0
40
1
40
1
40
1
10
11.935765608372291
20
-3.0752332604657702
30
0
10
11.778987388606426
20
-3.5965057601139088
30
0
10
11.529925344012927
20
-3.785152938057728
30
0
0
SPLINE
5
233
100
AcDbEntity
8
0
100
AcDbSpline
70
0
71
2
72
6
73
3
74
0
42
0.000000001
43
0.0000000001
44
0.0000000001
40
0
40
0
40
0
40
1
40
1
40
1
10
11.529925344012927
20
-3.785152938057728
30
0
10
11.280863498978629
20
-3.9738004872316774
30
0
10
10.849736043648308
20
-3.8441343433539559
30
0
0
SPLINE
5
234
100
AcDbEntity
8
0
100
AcDbSpline
70
0
71
2
72
6
73
3
74
0
42
0.000000001
43
0.0000000001
44
0.0000000001
40
0
40
0
40
0
40
1
40
1
40
1
10
10.849736043648308
20
-3.8441343433539559
30
0
10
10.60804329281323
20
-3.7714426912299404
30
0
10
10.482291217112527
20
-3.649568734257937
30
0
0
SPLINE
5
235
100
AcDbEntity
8
0
100
AcDbSpline
70
0
71
2
72
6
73
3
74
0
42
0.000000001
43
0.0000000001
44
0.0000000001
40
0
40
0
40
0
40
1
40
1
40
1
10
10.482291217112527
20
-3.649568734257937
30
0
10
10.356538941852627
20
-3.5276944060558035
30
0
10
10.3059620737681
20
-3.3500757644408665
30
0
0
SPLINE
5
236
100
AcDbEntity
8
0
100
AcDbSpline
70
0
71
2
72
6
73
3
74
0
42
0.000000001
43
0.0000000001
44
0.0000000001
40
0
40
0
40
0
40
1
40
1
40
1
10
10.3059620737681
20
-3.3500757644408665
30
0
10
10.268547580131532
20
-3.2234285627019812
30
0
10
10.285213680770202
20
-3.0282813100156547
30
0
0
SPLINE
5
237
100
AcDbEntity
8
0
100
AcDbSpline
70
0
71
2
72
6
73
3
74
0
42
0.000000001
43
0.0000000001
44
0.0000000001
40
0
40
0
40
0
40
1
40
1
40
1
10
10.285213680770202
20
-3.0282813100156547
30
0
10
10.301879924106206
20
-2.8331341002470611
30
0
10
10.368677684009086
20
-2.6110379740920884
30
0
0
SPLINE
5
238
100
AcDbEntity
8
0
100
AcDbSpline
70
0
71
2
72
6
73
3
74
0
42
0.000000001
43
0.0000000001
44
0.0000000001
40
0
40
0
40
0
40
1
40
1
40
1
10
10.896089199295142
20
-2.7710872898456724
30
0
10
10.786069420044841
20
-3.1368924726458634
30
0
10
10.810463593426604
20
-3.2902533327312993
30
0
0
SPLINE
5
239
100
AcDbEntity
8
0
100
AcDbSpline
70
0
71
2
72
6
73
3
74
0
42
0.000000001
43
0.0000000001
44
0.0000000001
40
0
40
0
40
0
40
1
40
1
40
1
10
10.810463593426604
20
-3.2902533327312993
30
0
10
10.834857481413703
20
-3.4436141069812698
30
0
10
10.957663661996584
20
-3.4805493651831232
30
0
0
SPLINE
5
240
100
AcDbEntity
8
0
100
AcDbSpline
70
0
71
2
72
6
73
3
74
0
42
0.000000001
43
0.0000000001
44
0.0000000001
40
0
40
0
40
0
40
1
40
1
40
1
10
10.957663661996584
20
-3.4805493651831232
30
0
10
11.038663234270798
20
-3.5049108435874503
30
0
10
11.115198792894049
20
-3.4659583579664939
30
0
0
SPLINE
5
241
100
AcDbEntity
8
0
100
AcDbSpline
70
0
71
2
72
6
73
3
74
0
42
0.000000001
43
0.0000000001
44
0.0000000001
40
0
40
0
40
0
40
1
40
1
40
1
10
11.115198792894049
20
-3.4659583579664939
30
0
10
11.191734551076497
20
-3.4270062435756676
30
0
10
11.256758551778145
20
-3.3126483607124508
30
0
0
SPLINE
5
242
100
AcDbEntity
8
0
100
AcDbSpline
70
0
71
2
72
6
73
3
74
0
42
0.000000001
43
0.0000000001
44
0.0000000001
40
0
40
0
40
0
40
1
40
1
40
1
10
11.256758551778145
20
-3.3126483607124508
30
0
10
11.321782352920597
20
-3.198290106619103
30
0
10
11.399974942505848
20
-2.9383072678808144
30
0
0
SPLINE
5
243
100
AcDbEntity
8
0
100
AcDbSpline
70
0
71
2
72
6
73
3
74
0
42
0.000000001
43
0.0000000001
44
0.0000000001
40
0
40
0
40
0
40
1
40
1
40
1
10
11.399974942505848
20
-2.9383072678808144
30
0
10
11.514709835533054
20
-2.5568247853365382
30
0
10
11.489529795549229
20
-2.4060768561075605
30
0
0
SPLINE
5
244
100
AcDbEntity
8
0
100
AcDbSpline
70
0
71
2
72
6
73
3
74
0
42
0.000000001
43
0.0000000001
44
0.0000000001
40
0
40
0
40
0
40
1
40
1
40
1
10
11.489529795549229
20
-2.4060768561075605
30
0
10
11.46435004096007
20
-2.2553290127140486
30
0
10
11.335011747282042
20
-2.2164291523836392
30
0
0
SPLINE
5
245
100
AcDbEntity
8
0
100
AcDbSpline
70
0
71
2
72
6
73
3
74
0
42
0.000000001
43
0.0000000001
44
0.0000000001
40
0
40
0
40
0
40
1
40
1
40
1
10
11.335011747282042
20
-2.2164291523836392
30
0
10
11.203060665444886
20
-2.1767434683689002
30
0
10
11.103995389855319
20
-2.2929725928725335
30
0
0
SPLINE
5
246
100
AcDbEntity
8
0
100
AcDbSpline
70
0
71
2
72
6
73
3
74
0
42
0.000000001
43
0.0000000001
44
0.0000000001
40
0
40
0
40
0
40
1
40
1
40
1
10
11.103995389855319
20
-2.2929725928725335
30
0
10
11.004930157183484
20
-2.4092015746788347
30
0
10
10.896089199295142
20
-2.7710872898456724
30
0
0
LINE
5
247
100
AcDbEntity
8
0
100
AcDbLine
10
12.33703973631976
20
-2.1673421598313105
30
0
11
12.955703450832981
21
-2.3534118179479204
31
0
0
LINE
5
248
100
AcDbEntity
8
0
100
AcDbLine
10
12.955703450832981
20
-2.3534118179479204
30
0
11
12.972231014470051
21
-3.8613612843292753
31
0
0
LINE
5
249
100
AcDbEntity
8
0
100
AcDbLine
10
12.972231014470051
20
-3.8613612843292753
30
0
11
13.812324956198921
21
-2.6110497994548676
31
0
0
LINE
5
250
100
AcDbEntity
8
0
100
AcDbLine
10
13.812324956198921
20
-2.6110497994548676
30
0
11
14.412983692079379
21
-2.7917042697400225
31
0
0
LINE
5
251
100
AcDbEntity
8
0
100
AcDbLine
10
14.412983692079383
20
-2.7917042697400229
30
0
11
13.125796067974884
21
-4.4930679159953053
31
0
0
LINE
5
252
100
AcDbEntity
8
0
100
AcDbLine
10
13.125796067974882
20
-4.4930679159953044
30
0
11
12.484330175902986
21
-4.3001402617119151
31
0
0
LINE
5
253
100
AcDbEntity
8
0
100
AcDbLine
10
12.484330175902986
20
-4.3001402617119151
30
0
11
12.33703973631976
21
-2.1673421598313096
31
0
0
LINE
5
254
100
AcDbEntity
8
0
100
AcDbLine
10
18.002044763535906
20
-17.372314546458988
30
0
11
18.094551645047734
21
-16.823164362946155
31
0
0
SPLINE
5
255
100
AcDbEntity
8
0
100
AcDbSpline
70
0
71
2
72
6
73
3
74
0
42
0.000000001
43
0.0000000001
44
0.0000000001
40
0
40
0
40
0
40
1
40
1
40
1
10
18.094551645047734
20
-16.823164362946155
30
0
10
18.211886412408916
20
-16.83566003852286
30
0
10
18.272543354027189
20
-16.799767395445773
30
0
0
SPLINE
5
256
100
AcDbEntity
8
0
100
AcDbSpline
70
0
71
2
72
6
73
3
74
0
42
0.000000001
43
0.0000000001
44
0.0000000001
40
0
40
0
40
0
40
1
40
1
40
1
10
18.272543354027189
20
-16.799767395445773
30
0
10
18.333200252727728
20
-16.763874895066017
30
0
10
18.354811262401437
20
-16.692020366743407
30
0
0
SPLINE
5
257
100
AcDbEntity
8
0
100
AcDbSpline
70
0
71
2
72
6
73
3
74
0
42
0.000000001
43
0.0000000001
44
0.0000000001
40
0
40
0
40
0
40
1
40
1
40
1
10
18.354811262401437
20
-16.692020366743407
30
0
10
18.393318167971948
20
-16.563988609842269
30
0
10
18.285590926885362
20
-16.453234078491921
30
0
0
SPLINE
5
258
100
AcDbEntity
8
0
100
AcDbSpline
70
0
71
2
72
6
73
3
74
0
42
0.000000001
43
0.0000000001
44
0.0000000001
40
0
40
0
40
0
40
1
40
1
40
1
10
18.285590926885362
20
-16.453234078491921
30
0
10
18.205937380784135
20
-16.372292594289949
30
0
10
17.905474686221851
20
-16.253432685444164
30
0
0
SPLINE
5
259
100
AcDbEntity
8
0
100
AcDbSpline
70
0
71
2
72
6
73
3
74
0
42
0.000000001
43
0.0000000001
44
0.0000000001
40
0
40
0
40
0
40
1
40
1
40
1
10
17.905474686221851
20
-16.253432685444164
30
0
10
17.974774371760244
20
-16.378272853021365
30
0
10
17.990244277754677
20
-16.49262172194117
30
0
0
SPLINE
5
260
100
AcDbEntity
8
0
100
AcDbSpline
70
0
71
2
72
6
73
3
74
0
42
0.000000001
43
0.0000000001
44
0.0000000001
40
0
40
0
40
0
40
1
40
1
40
1
10
17.990244277754677
20
-16.49262172194117
30
0
10
18.005714797456175
20
-16.606970619834577
30
0
10
17.966029070523703
20
-16.738921844369063
30
0
0
SPLINE
5
261
100
AcDbEntity
8
0
100
AcDbSpline
70
0
71
2
72
6
73
3
74
0
42
0.000000001
43
0.0000000001
44
0.0000000001
40
0
40
0
40
0
40
1
40
1
40
1
10
17.966029070523703
20
-16.738921844369063
30
0
10
17.888622304622782
20
-16.996291894948229
30
0
10
17.652478034181605
20
-17.118305466621809
30
0
0
SPLINE
5
262
100
AcDbEntity
8
0
100
AcDbSpline
70
0
71
2
72
6
73
3
74
0
42
0.000000001
43
0.0000000001
44
0.0000000001
40
0
40
0
40
0
40
1
40
1
40
1
10
17.652478034181605
20
-17.118305466621809
30
0
10
17.416333720822699
20
-17.240319180992721
30
0
10
17.136753972009643
20
-17.156232613350873
30
0
0
SPLINE
5
263
100
AcDbEntity
8
0
100
AcDbSpline
70
0
71
2
72
6
73
3
74
0
42
0.000000001
43
0.0000000001
44
0.0000000001
40
0
40
0
40
0
40
1
40
1
40
1
10
17.136753972009643
20
-17.156232613350873
30
0
10
16.946012730737504
20
-17.098865166837271
30
0
10
16.816351195477736
20
-16.961568955776791
30
0
0
SPLINE
5
264
100
AcDbEntity
8
0
100
AcDbSpline
70
0
71
2
72
6
73
3
74
0
42
0.000000001
43
0.0000000001
44
0.0000000001
40
0
40
0
40
0
40
1
40
1
40
1
10
16.816351195477736
20
-16.961568955776791
30
0
10
16.686689474602904
20
-16.824272844495908
30
0
10
16.653887292219697
20
-16.642027695546727
30
0
0
SPLINE
5
265
100
AcDbEntity
8
0
100
AcDbSpline
70
0
71
2
72
6
73
3
74
0
42
0.000000001
43
0.0000000001
44
0.0000000001
40
0
40
0
40
0
40
1
40
1
40
1
10
16.653887292219697
20
-16.642027695546727
30
0
10
16.621085109836493
20
-16.459782546597541
30
0
10
16.692990895358445
20
-16.220702726618921
30
0
0
SPLINE
5
266
100
AcDbEntity
8
0
100
AcDbSpline
70
0
71
2
72
6
73
3
74
0
42
0.000000001
43
0.0000000001
44
0.0000000001
40
0
40
0
40
0
40
1
40
1
40
1
10
16.692990895358445
20
-16.220702726618921
30
0
10
16.779434976971011
20
-15.93328447063115
30
0
10
16.930331032131456
20
-15.789193090201072
30
0
0
SPLINE
5
267
100
AcDbEntity
8
0
100
AcDbSpline
70
0
71
2
72
6
73
3
74
0
42
0.000000001
43
0.0000000001
44
0.0000000001
40
0
40
0
40
0
40
1
40
1
40
1
10
16.930331032131456
20
-15.789193090201072
30
0
10
17.081227229989231
20
-15.645101752688726
30
0
10
17.327375446791148
20
-15.60587580835108
30
0
0
SPLINE
5
268
100
AcDbEntity
8
0
100
AcDbSpline
70
0
71
2
72
6
73
3
74
0
42
0.000000001
43
0.0000000001
44
0.0000000001
40
0
40
0
40
0
40
1
40
1
40
1
10
17.327375446791148
20
-15.60587580835108
30
0
10
17.573523806290396
20
-15.566649906931165
30
0
10
17.926264620202961
20
-15.672740439006621
30
0
0
SPLINE
5
269
100
AcDbEntity
8
0
100
AcDbSpline
70
0
71
2
72
6
73
3
74
0
42
0.000000001
43
0.0000000001
44
0.0000000001
40
0
40
0
40
0
40
1
40
1
40
1
10
17.926264620202961
20
-15.672740439006621
30
0
10
18.444923760902647
20
-15.828732663417222
30
0
10
18.620344261890619
20
-16.119404639380242
30
0
0
SPLINE
5
270
100
AcDbEntity
8
0
100
AcDbSpline
70
0
71
2
72
6
73
3
74
0
42
0.000000001
43
0.0000000001
44
0.0000000001
40
0
40
0
40
0
40
1
40
1
40
1
10
18.620344261890619
20
-16.119404639380242
30
0
10
18.795764891631794
20
-16.41007618725126
30
0
10
18.679458265400463
20
-16.796784531508454
30
0
0
SPLINE
5
271
100
AcDbEntity
8
0
100
AcDbSpline
70
0
71
2
72
6
73
3
74
0
42
0.000000001
43
0.0000000001
44
0.0000000001
40
0
40
0
40
0
40
1
40
1
40
1
10
18.679458265400463
20
-16.796784531508454
30
0
10
18.610695946286757
20
-17.02541262806124
30
0
10
18.518099190020667
20
-17.141450300680937
30
0
0
SPLINE
5
272
100
AcDbEntity
8
0
100
AcDbSpline
70
0
71
2
72
6
73
3
74
0
42
0.000000001
43
0.0000000001
44
0.0000000001
40
0
40
0
40
0
40
1
40
1
40
1
10
18.518099190020667
20
-17.141450300680937
30
0
10
18.425502433754577
20
-17.257487973300631
30
0
10
18.297273291178083
20
-17.314371390146505
30
0
0
SPLINE
5
273
100
AcDbEntity
8
0
100
AcDbSpline
70
0
71
2
72
6
73
3
74
0
42
0.000000001
43
0.0000000001
44
0.0000000001
40
0
40
0
40
0
40
1
40
1
40
1
10
18.297273291178083
20
-17.314371390146505
30
0
10
18.169044391078518
20
-17.371255035525174
30
0
10
18.002044763535906
20
-17.372314546458988
30
0
0
SPLINE
5
274
100
AcDbEntity
8
0
100
AcDbSpline
70
0
71
2
72
6
73
3
74
0
42
0.000000001
43
0.0000000001
44
0.0000000001
40
0
40
0
40
0
40
1
40
1
40
1
10
17.442324129885414
20
-16.135504685840992
30
0
10
17.286856955734798
20
-16.088746288243165
30
0
10
17.175096061862327
20
-16.140610428609953
30
0
0
SPLINE
5
275
100
AcDbEntity
8
0
100
AcDbSpline
70
0
71
2
72
6
73
3
74
0
42
0.000000001
43
0.0000000001
44
0.0000000001
40
0
40
0
40
0
40
1
40
1
40
1
10
17.175096061862327
20
-16.140610428609953
30
0
10
17.063335310687187
20
-16.192474611894479
30
0
10
17.029543518893583
20
-16.304829069051529
30
0
0
SPLINE
5
276
100
AcDbEntity
8
0
100
AcDbSpline
70
0
71
2
72
6
73
3
74
0
42
0.000000001
43
0.0000000001
44
0.0000000001
40
0
40
0
40
0
40
1
40
1
40
1
10
17.029543518893583
20
-16.304829069051529
30
0
10
16.997716372146265
20
-16.4106512704161
30
0
10
17.056387929889322
20
-16.504514702832861
30
0
0
SPLINE
5
277
100
AcDbEntity
8
0
100
AcDbSpline
70
0
71
2
72
6
73
3
74
0
42
0.000000001
43
0.0000000001
44
0.0000000001
40
0
40
0
40
0
40
1
40
1
40
1
10
17.056387929889322
20
-16.504514702832861
30
0
10
17.115059630329711
20
-16.598378178167351
30
0
10
17.274446129416347
20
-16.64631535420941
30
0
0
SPLINE
5
278
100
AcDbEntity
8
0
100
AcDbSpline
70
0
71
2
72
6
73
3
74
0
42
0.000000001
43
0.0000000001
44
0.0000000001
40
0
40
0
40
0
40
1
40
1
40
1
10
17.274446129416347
20
-16.64631535420941
30
0
10
17.435139165279875
20
-16.694645485011364
30
0
10
17.54186564932337
20
-16.647678130763929
30
0
0
SPLINE
5
279
100
AcDbEntity
8
0
100
AcDbSpline
70
0
71
2
72
6
73
3
74
0
42
0.000000001
43
0.0000000001
44
0.0000000001
40
0
40
0
40
0
40
1
40
1
40
1
10
17.54186564932337
20
-16.647678130763929
30
0
10
17.648592219202328
20
-16.600710491121824
30
0
10
17.681205189633975
20
-16.492275501598129
30
0
0
SPLINE
5
280
100
AcDbEntity
8
0
100
AcDbSpline
70
0
71
2
72
6
73
3
74
0
42
0.000000001
43
0.0000000001
44
0.0000000001
40
0
40
0
40
0
40
1
40
1
40
1
10
17.681205189633975
20
-16.492275501598129
30
0
10
17.714996981427579
20
-16.37992104444108
30
0
10
17.655087748652242
20
-16.280699152097785
30
0
0
SPLINE
5
281
100
AcDbEntity
8
0
100
AcDbSpline
70
0
71
2
72
6
73
3
74
0
42
0.000000001
43
0.0000000001
44
0.0000000001
40
0
40
0
40
0
40
1
40
1
40
1
10
17.655087748652242
20
-16.280699152097785
30
0
10
17.595178373179571
20
-16.181477216836761
30
0
10
17.442324129885414
20
-16.135504685840992
30
0
0
LINE
5
282
100
AcDbEntity
8
0
100
AcDbLine
10
17.015632687682039
20
-15.266368121843442
30
0
11
17.201702345798651
21
-14.64770440733022
31
0
0
LINE
5
283
100
AcDbEntity
8
0
100
AcDbLine
10
17.201702345798651
20
-14.64770440733022
30
0
11
18.709651812180006
21
-14.631176843693146
31
0
0
LINE
5
284
100
AcDbEntity
8
0
100
AcDbLine
10
18.709651812180006
20
-14.631176843693146
30
0
11
17.45934024147013
21
-13.791083187358941
31
0
0
LINE
5
285
100
AcDbEntity
8
0
100
AcDbLine
10
17.45934024147013
20
-13.791083187358943
30
0
11
17.639994797590752
21
-13.190424166083819
31
0
0
LINE
5
286
100
AcDbEntity
8
0
100
AcDbLine
10
17.639994797590752
20
-13.190424166083819
30
0
11
19.341358358010574
21
-14.477612075582977
31
0
0
LINE
5
287
100
AcDbEntity
8
0
100
AcDbLine
10
19.341358358010574
20
-14.477612075582977
30
0
11
19.148430789562649
21
-15.119077682260206
31
0
0
LINE
5
288
100
AcDbEntity
8
0
100
AcDbLine
10
19.148430789562646
20
-15.119077682260206
30
0
11
17.015632687682039
21
-15.266368121843438
31
0
0
LINE
5
289
100
AcDbEntity
8
0
100
AcDbLine
10
22.626366652018692
20
-17.432512976318357
30
0
11
22.323755550565828
21
-16.148452941824587
31
0
0
LINE
5
290
100
AcDbEntity
8
0
100
AcDbLine
10
22.323755550565831
20
-16.148452941824587
30
0
11
22.755316529106242
21
-16.046748084145037
31
0
0
LINE
5
291
100
AcDbEntity
8
0
100
AcDbLine
10
22.755316529106238
20
-16.046748084145037
30
0
11
22.960290939842078
21
-16.916509463209305
31
0
0
LINE
5
292
100
AcDbEntity
8
0
100
AcDbLine
10
22.960290939842078
20
-16.916509463209305
30
0
11
23.263377470339893
21
-16.894138880563666
31
0
0
SPLINE
5
293
100
AcDbEntity
8
0
100
AcDbSpline
70
0
71
2
72
6
73
3
74
0
42
0.000000001
43
0.0000000001
44
0.0000000001
40
0
40
0
40
0
40
1
40
1
40
1
10
23.263377470339893
20
-16.894138880563666
30
0
10
23.199605503750735
20
-16.813857083739634
30
0
10
23.157549034688198
20
-16.730560087473581
30
0
0
SPLINE
5
294
100
AcDbEntity
8
0
100
AcDbSpline
70
0
71
2
72
6
73
3
74
0
42
0.000000001
43
0.0000000001
44
0.0000000001
40
0
40
0
40
0
40
1
40
1
40
1
10
23.157549034688198
20
-16.730560087473581
30
0
10
23.115492565625665
20
-16.647263091207524
30
0
10
23.095151559908935
20
-16.56095075046106
30
0
0
SPLINE
5
295
100
AcDbEntity
8
0
100
AcDbSpline
70
0
71
2
72
6
73
3
74
0
42
0.000000001
43
0.0000000001
44
0.0000000001
40
0
40
0
40
0
40
1
40
1
40
1
10
23.095151559908935
20
-16.56095075046106
30
0
10
23.026305202598351
20
-16.268817198457949
30
0
10
23.160040873980698
20
-16.045276944653143
30
0
0
SPLINE
5
296
100
AcDbEntity
8
0
100
AcDbSpline
70
0
71
2
72
6
73
3
74
0
42
0.000000001
43
0.0000000001
44
0.0000000001
40
0
40
0
40
0
40
1
40
1
40
1
10
23.160040873980698
20
-16.045276944653143
30
0
10
23.293776221105457
20
-15.821736614171595
30
0
10
23.56200817305259
20
-15.758523085019451
30
0
0
SPLINE
5
297
100
AcDbEntity
8
0
100
AcDbSpline
70
0
71
2
72
6
73
3
74
0
42
0.000000001
43
0.0000000001
44
0.0000000001
40
0
40
0
40
0
40
1
40
1
40
1
10
23.56200817305259
20
-15.758523085019451
30
0
10
23.750567061198325
20
-15.714085900388124
30
0
10
23.946581502377136
20
-15.766706311057092
30
0
0
SPLINE
5
298
100
AcDbEntity
8
0
100
AcDbSpline
70
0
71
2
72
6
73
3
74
0
42
0.000000001
43
0.0000000001
44
0.0000000001
40
0
40
0
40
0
40
1
40
1
40
1
10
23.946581502377136
20
-15.766706311057092
30
0
10
24.142596080279223
20
-15.819327301879586
30
0
10
24.274745155650116
20
-15.969694855218703
30
0
0
SPLINE
5
299
100
AcDbEntity
8
0
100
AcDbSpline
70
0
71
2
72
6
73
3
74
0
42
0.000000001
43
0.0000000001
44
0.0000000001
40
0
40
0
40
0
40
1
40
1
40
1
10
24.274745155650116
20
-15.969694855218703
30
0
10
24.40689429938265
20
-16.120062698634584
30
0
10
24.470107760173153
20
-16.38829436050495
30
0
0
SPLINE
5
300
100
AcDbEntity
8
0
100
AcDbSpline
70
0
71
2
72
6
73
3
74
0
42
0.000000001
43
0.0000000001
44
0.0000000001
40
0
40
0
40
0
40
1
40
1
40
1
10
24.470107760173153
20
-16.38829436050495
30
0
10
24.515483823556
20
-16.580837162909848
30
0
10
24.511356281197809
20
-16.726878405618379
30
0
0
SPLINE
5
301
100
AcDbEntity
8
0
100
AcDbSpline
70
0
71
2
72
6
73
3
74
0
42
0.000000001
43
0.0000000001
44
0.0000000001
40
0
40
0
40
0
40
1
40
1
40
1
10
24.511356281197809
20
-16.726878405618379
30
0
10
24.507228482943674
20
-16.872919861726928
30
0
10
24.457547293642151
20
-16.986246329739075
30
0
0
SPLINE
5
302
100
AcDbEntity
8
0
100
AcDbSpline
70
0
71
2
72
6
73
3
74
0
42
0.000000001
43
0.0000000001
44
0.0000000001
40
0
40
0
40
0
40
1
40
1
40
1
10
24.457547293642151
20
-16.986246329739075
30
0
10
24.407865780083053
20
-17.099572721074484
30
0
10
24.330324340930616
20
-17.180920008696766
30
0
0
SPLINE
5
303
100
AcDbEntity
8
0
100
AcDbSpline
70
0
71
2
72
6
73
3
74
0
42
0.000000001
43
0.0000000001
44
0.0000000001
40
0
40
0
40
0
40
1
40
1
40
1
10
24.330324340930616
20
-17.180920008696766
30
0
10
24.252782611701427
20
-17.262267364680682
30
0
10
24.125399266083157
20
-17.334336332744293
30
0
0
LINE
5
304
100
AcDbEntity
8
0
100
AcDbLine
10
24.125399266083157
20
-17.334336332744293
30
0
11
23.936714151742052
21
-16.801332042009118
31
0
0
SPLINE
5
305
100
AcDbEntity
8
0
100
AcDbSpline
70
0
71
2
72
6
73
3
74
0
42
0.000000001
43
0.0000000001
44
0.0000000001
40
0
40
0
40
0
40
1
40
1
40
1
10
23.936714151742052
20
-16.801332042009118
30
0
10
24.063480243784355
20
-16.750432896469555
30
0
10
24.114654549889227
20
-16.661283219946906
30
0
0
SPLINE
5
306
100
AcDbEntity
8
0
100
AcDbSpline
70
0
71
2
72
6
73
3
74
0
42
0.000000001
43
0.0000000001
44
0.0000000001
40
0
40
0
40
0
40
1
40
1
40
1
10
24.114654549889227
20
-16.661283219946906
30
0
10
24.165828531736516
20
-16.572133466747516
30
0
10
24.142045244044116
20
-16.471214600691198
30
0
0
SPLINE
5
307
100
AcDbEntity
8
0
100
AcDbSpline
70
0
71
2
72
6
73
3
74
0
42
0.000000001
43
0.0000000001
44
0.0000000001
40
0
40
0
40
0
40
1
40
1
40
1
10
24.142045244044116
20
-16.471214600691198
30
0
10
24.115445525182086
20
-16.358344862087701
30
0
10
24.012429365467067
20
-16.304831837161448
30
0
0
SPLINE
5
308
100
AcDbEntity
8
0
100
AcDbSpline
70
0
71
2
72
6
73
3
74
0
42
0.000000001
43
0.0000000001
44
0.0000000001
40
0
40
0
40
0
40
1
40
1
40
1
10
24.012429365467067
20
-16.304831837161448
30
0
10
23.909412984036923
20
-16.2513191706736
30
0
10
23.739444245383432
20
-16.291375262939379
30
0
0
SPLINE
5
309
100
AcDbEntity
8
0
100
AcDbSpline
70
0
71
2
72
6
73
3
74
0
42
0.000000001
43
0.0000000001
44
0.0000000001
40
0
40
0
40
0
40
1
40
1
40
1
10
23.739444245383432
20
-16.291375262939379
30
0
10
23.565491882547551
20
-16.332370165595041
30
0
10
23.502015933665422
20
-16.425820511098937
30
0
0
SPLINE
5
310
100
AcDbEntity
8
0
100
AcDbSpline
70
0
71
2
72
6
73
3
74
0
42
0.000000001
43
0.0000000001
44
0.0000000001
40
0
40
0
40
0
40
1
40
1
40
1
10
23.502015933665422
20
-16.425820511098937
30
0
10
23.438539728887349
20
-16.519271070002851
30
0
10
23.467642953515991
20
-16.642763854772195
30
0
0
SPLINE
5
311
100
AcDbEntity
8
0
100
AcDbSpline
70
0
71
2
72
6
73
3
74
0
42
0.000000001
43
0.0000000001
44
0.0000000001
40
0
40
0
40
0
40
1
40
1
40
1
10
23.467642953515991
20
-16.642763854772195
30
0
10
23.486106338452966
20
-16.721108947153873
30
0
10
23.54182644553557
20
-16.785066941180101
30
0
0
SPLINE
5
312
100
AcDbEntity
8
0
100
AcDbSpline
70
0
71
2
72
6
73
3
74
0
42
0.000000001
43
0.0000000001
44
0.0000000001
40
0
40
0
40
0
40
1
40
1
40
1
10
23.54182644553557
20
-16.785066941180101
30
0
10
23.582542303229218
20
-16.832938470699901
30
0
10
23.670909760011469
20
-16.880792959113037
30
0
0
LINE
5
313
100
AcDbEntity
8
0
100
AcDbLine
10
23.670909760011469
20
-16.880792959113037
30
0
11
23.713105337336671
21
-17.357214236274817
31
0
0
LINE
5
314
100
AcDbEntity
8
0
100
AcDbLine
10
23.713105337336671
20
-17.357214236274814
30
0
11
22.626366652018692
21
-17.432512976318357
31
0
0
LINE
5
315
100
AcDbEntity
8
0
100
AcDbLine
10
22.274937205207316
20
-15.941303614109838
30
0
11
22.126746398753173
21
-15.312490291883442
31
0
0
LINE
5
316
100
AcDbEntity
8
0
100
AcDbLine
10
22.126746398753173
20
-15.312490291883442
30
0
11
23.424405162444081
21
-14.544202268720394
31
0
0
LINE
5
317
100
AcDbEntity
8
0
100
AcDbLine
10
23.424405162444081
20
-14.544202268720392
30
0
11
21.921556751396601
21
-14.441815606131758
31
0
0
LINE
5
318
100
AcDbEntity
8
0
100
AcDbLine
10
21.921556751396601
20
-14.441815606131758
30
0
11
21.777678675668895
21
-13.831302356634893
31
0
0
LINE
5
319
100
AcDbEntity
8
0
100
AcDbLine
10
21.777678675668895
20
-13.831302356634891
30
0
11
23.894696694815181
21
-14.095358005495438
31
0
0
LINE
5
320
100
AcDbEntity
8
0
100
AcDbLine
10
23.894696694815181
20
-14.09535800549544
30
0
11
24.048349322787534
21
-14.74734730075588
31
0
0
LINE
5
321
100
AcDbEntity
8
0
100
AcDbLine
10
24.048349322787534
20
-14.747347300755877
30
0
11
22.274937205207316
21
-15.941303614109838
31
0
0
ENDSEC
0
SECTION
2
OBJECTS
0
DICTIONARY
5
C
100
AcDbDictionary
3
ACAD_GROUP
350
D
3
ACAD_MLINESTYLE
350
17
0
DICTIONARY
5
D
100
AcDbDictionary
0
DICTIONARY
5
1A
330
C
100
AcDbDictionary
0
DICTIONARY
5
17
100
AcDbDictionary
0
ENDSEC
0
EOF
