%TF.GenerationSoftware,KiCad,Pcbnew,8.0.0*%
%TF.CreationDate,2024-03-04T20:39:57-05:00*%
%TF.ProjectId,USB C breadboard power supply,55534220-4320-4627-9265-6164626f6172,0.1*%
%TF.SameCoordinates,Original*%
%TF.FileFunction,AssemblyDrawing,Bot*%
%FSLAX46Y46*%
G04 Gerber Fmt 4.6, Leading zero omitted, Abs format (unit mm)*
G04 Created by KiCad (PCBNEW 8.0.0) date 2024-03-04 20:39:57*
%MOMM*%
%LPD*%
G01*
G04 APERTURE LIST*
%ADD10C,0.150000*%
%ADD11C,0.100000*%
G04 APERTURE END LIST*
D10*
X115723811Y-137429580D02*
X115771430Y-137477200D01*
X115771430Y-137477200D02*
X115914287Y-137524819D01*
X115914287Y-137524819D02*
X116009525Y-137524819D01*
X116009525Y-137524819D02*
X116152382Y-137477200D01*
X116152382Y-137477200D02*
X116247620Y-137381961D01*
X116247620Y-137381961D02*
X116295239Y-137286723D01*
X116295239Y-137286723D02*
X116342858Y-137096247D01*
X116342858Y-137096247D02*
X116342858Y-136953390D01*
X116342858Y-136953390D02*
X116295239Y-136762914D01*
X116295239Y-136762914D02*
X116247620Y-136667676D01*
X116247620Y-136667676D02*
X116152382Y-136572438D01*
X116152382Y-136572438D02*
X116009525Y-136524819D01*
X116009525Y-136524819D02*
X115914287Y-136524819D01*
X115914287Y-136524819D02*
X115771430Y-136572438D01*
X115771430Y-136572438D02*
X115723811Y-136620057D01*
X115152382Y-137524819D02*
X115247620Y-137477200D01*
X115247620Y-137477200D02*
X115295239Y-137429580D01*
X115295239Y-137429580D02*
X115342858Y-137334342D01*
X115342858Y-137334342D02*
X115342858Y-137048628D01*
X115342858Y-137048628D02*
X115295239Y-136953390D01*
X115295239Y-136953390D02*
X115247620Y-136905771D01*
X115247620Y-136905771D02*
X115152382Y-136858152D01*
X115152382Y-136858152D02*
X115009525Y-136858152D01*
X115009525Y-136858152D02*
X114914287Y-136905771D01*
X114914287Y-136905771D02*
X114866668Y-136953390D01*
X114866668Y-136953390D02*
X114819049Y-137048628D01*
X114819049Y-137048628D02*
X114819049Y-137334342D01*
X114819049Y-137334342D02*
X114866668Y-137429580D01*
X114866668Y-137429580D02*
X114914287Y-137477200D01*
X114914287Y-137477200D02*
X115009525Y-137524819D01*
X115009525Y-137524819D02*
X115152382Y-137524819D01*
X114390477Y-136858152D02*
X114390477Y-137524819D01*
X114390477Y-136953390D02*
X114342858Y-136905771D01*
X114342858Y-136905771D02*
X114247620Y-136858152D01*
X114247620Y-136858152D02*
X114104763Y-136858152D01*
X114104763Y-136858152D02*
X114009525Y-136905771D01*
X114009525Y-136905771D02*
X113961906Y-137001009D01*
X113961906Y-137001009D02*
X113961906Y-137524819D01*
X113485715Y-136858152D02*
X113485715Y-137524819D01*
X113485715Y-136953390D02*
X113438096Y-136905771D01*
X113438096Y-136905771D02*
X113342858Y-136858152D01*
X113342858Y-136858152D02*
X113200001Y-136858152D01*
X113200001Y-136858152D02*
X113104763Y-136905771D01*
X113104763Y-136905771D02*
X113057144Y-137001009D01*
X113057144Y-137001009D02*
X113057144Y-137524819D01*
X112819049Y-137620057D02*
X112057144Y-137620057D01*
X111628572Y-136524819D02*
X111533334Y-136524819D01*
X111533334Y-136524819D02*
X111438096Y-136572438D01*
X111438096Y-136572438D02*
X111390477Y-136620057D01*
X111390477Y-136620057D02*
X111342858Y-136715295D01*
X111342858Y-136715295D02*
X111295239Y-136905771D01*
X111295239Y-136905771D02*
X111295239Y-137143866D01*
X111295239Y-137143866D02*
X111342858Y-137334342D01*
X111342858Y-137334342D02*
X111390477Y-137429580D01*
X111390477Y-137429580D02*
X111438096Y-137477200D01*
X111438096Y-137477200D02*
X111533334Y-137524819D01*
X111533334Y-137524819D02*
X111628572Y-137524819D01*
X111628572Y-137524819D02*
X111723810Y-137477200D01*
X111723810Y-137477200D02*
X111771429Y-137429580D01*
X111771429Y-137429580D02*
X111819048Y-137334342D01*
X111819048Y-137334342D02*
X111866667Y-137143866D01*
X111866667Y-137143866D02*
X111866667Y-136905771D01*
X111866667Y-136905771D02*
X111819048Y-136715295D01*
X111819048Y-136715295D02*
X111771429Y-136620057D01*
X111771429Y-136620057D02*
X111723810Y-136572438D01*
X111723810Y-136572438D02*
X111628572Y-136524819D01*
X110914286Y-136620057D02*
X110866667Y-136572438D01*
X110866667Y-136572438D02*
X110771429Y-136524819D01*
X110771429Y-136524819D02*
X110533334Y-136524819D01*
X110533334Y-136524819D02*
X110438096Y-136572438D01*
X110438096Y-136572438D02*
X110390477Y-136620057D01*
X110390477Y-136620057D02*
X110342858Y-136715295D01*
X110342858Y-136715295D02*
X110342858Y-136810533D01*
X110342858Y-136810533D02*
X110390477Y-136953390D01*
X110390477Y-136953390D02*
X110961905Y-137524819D01*
X110961905Y-137524819D02*
X110342858Y-137524819D01*
X110009524Y-137524819D02*
X109485715Y-136858152D01*
X110009524Y-136858152D02*
X109485715Y-137524819D01*
X108914286Y-136524819D02*
X108819048Y-136524819D01*
X108819048Y-136524819D02*
X108723810Y-136572438D01*
X108723810Y-136572438D02*
X108676191Y-136620057D01*
X108676191Y-136620057D02*
X108628572Y-136715295D01*
X108628572Y-136715295D02*
X108580953Y-136905771D01*
X108580953Y-136905771D02*
X108580953Y-137143866D01*
X108580953Y-137143866D02*
X108628572Y-137334342D01*
X108628572Y-137334342D02*
X108676191Y-137429580D01*
X108676191Y-137429580D02*
X108723810Y-137477200D01*
X108723810Y-137477200D02*
X108819048Y-137524819D01*
X108819048Y-137524819D02*
X108914286Y-137524819D01*
X108914286Y-137524819D02*
X109009524Y-137477200D01*
X109009524Y-137477200D02*
X109057143Y-137429580D01*
X109057143Y-137429580D02*
X109104762Y-137334342D01*
X109104762Y-137334342D02*
X109152381Y-137143866D01*
X109152381Y-137143866D02*
X109152381Y-136905771D01*
X109152381Y-136905771D02*
X109104762Y-136715295D01*
X109104762Y-136715295D02*
X109057143Y-136620057D01*
X109057143Y-136620057D02*
X109009524Y-136572438D01*
X109009524Y-136572438D02*
X108914286Y-136524819D01*
X108200000Y-136620057D02*
X108152381Y-136572438D01*
X108152381Y-136572438D02*
X108057143Y-136524819D01*
X108057143Y-136524819D02*
X107819048Y-136524819D01*
X107819048Y-136524819D02*
X107723810Y-136572438D01*
X107723810Y-136572438D02*
X107676191Y-136620057D01*
X107676191Y-136620057D02*
X107628572Y-136715295D01*
X107628572Y-136715295D02*
X107628572Y-136810533D01*
X107628572Y-136810533D02*
X107676191Y-136953390D01*
X107676191Y-136953390D02*
X108247619Y-137524819D01*
X108247619Y-137524819D02*
X107628572Y-137524819D01*
X107438096Y-137620057D02*
X106676191Y-137620057D01*
X105866667Y-137429580D02*
X105914286Y-137477200D01*
X105914286Y-137477200D02*
X106057143Y-137524819D01*
X106057143Y-137524819D02*
X106152381Y-137524819D01*
X106152381Y-137524819D02*
X106295238Y-137477200D01*
X106295238Y-137477200D02*
X106390476Y-137381961D01*
X106390476Y-137381961D02*
X106438095Y-137286723D01*
X106438095Y-137286723D02*
X106485714Y-137096247D01*
X106485714Y-137096247D02*
X106485714Y-136953390D01*
X106485714Y-136953390D02*
X106438095Y-136762914D01*
X106438095Y-136762914D02*
X106390476Y-136667676D01*
X106390476Y-136667676D02*
X106295238Y-136572438D01*
X106295238Y-136572438D02*
X106152381Y-136524819D01*
X106152381Y-136524819D02*
X106057143Y-136524819D01*
X106057143Y-136524819D02*
X105914286Y-136572438D01*
X105914286Y-136572438D02*
X105866667Y-136620057D01*
X105295238Y-137524819D02*
X105390476Y-137477200D01*
X105390476Y-137477200D02*
X105438095Y-137429580D01*
X105438095Y-137429580D02*
X105485714Y-137334342D01*
X105485714Y-137334342D02*
X105485714Y-137048628D01*
X105485714Y-137048628D02*
X105438095Y-136953390D01*
X105438095Y-136953390D02*
X105390476Y-136905771D01*
X105390476Y-136905771D02*
X105295238Y-136858152D01*
X105295238Y-136858152D02*
X105152381Y-136858152D01*
X105152381Y-136858152D02*
X105057143Y-136905771D01*
X105057143Y-136905771D02*
X105009524Y-136953390D01*
X105009524Y-136953390D02*
X104961905Y-137048628D01*
X104961905Y-137048628D02*
X104961905Y-137334342D01*
X104961905Y-137334342D02*
X105009524Y-137429580D01*
X105009524Y-137429580D02*
X105057143Y-137477200D01*
X105057143Y-137477200D02*
X105152381Y-137524819D01*
X105152381Y-137524819D02*
X105295238Y-137524819D01*
X104104762Y-136858152D02*
X104104762Y-137524819D01*
X104533333Y-136858152D02*
X104533333Y-137381961D01*
X104533333Y-137381961D02*
X104485714Y-137477200D01*
X104485714Y-137477200D02*
X104390476Y-137524819D01*
X104390476Y-137524819D02*
X104247619Y-137524819D01*
X104247619Y-137524819D02*
X104152381Y-137477200D01*
X104152381Y-137477200D02*
X104104762Y-137429580D01*
X103628571Y-136858152D02*
X103628571Y-137524819D01*
X103628571Y-136953390D02*
X103580952Y-136905771D01*
X103580952Y-136905771D02*
X103485714Y-136858152D01*
X103485714Y-136858152D02*
X103342857Y-136858152D01*
X103342857Y-136858152D02*
X103247619Y-136905771D01*
X103247619Y-136905771D02*
X103200000Y-137001009D01*
X103200000Y-137001009D02*
X103200000Y-137524819D01*
X102866666Y-136858152D02*
X102485714Y-136858152D01*
X102723809Y-136524819D02*
X102723809Y-137381961D01*
X102723809Y-137381961D02*
X102676190Y-137477200D01*
X102676190Y-137477200D02*
X102580952Y-137524819D01*
X102580952Y-137524819D02*
X102485714Y-137524819D01*
X101771428Y-137477200D02*
X101866666Y-137524819D01*
X101866666Y-137524819D02*
X102057142Y-137524819D01*
X102057142Y-137524819D02*
X102152380Y-137477200D01*
X102152380Y-137477200D02*
X102199999Y-137381961D01*
X102199999Y-137381961D02*
X102199999Y-137001009D01*
X102199999Y-137001009D02*
X102152380Y-136905771D01*
X102152380Y-136905771D02*
X102057142Y-136858152D01*
X102057142Y-136858152D02*
X101866666Y-136858152D01*
X101866666Y-136858152D02*
X101771428Y-136905771D01*
X101771428Y-136905771D02*
X101723809Y-137001009D01*
X101723809Y-137001009D02*
X101723809Y-137096247D01*
X101723809Y-137096247D02*
X102199999Y-137191485D01*
X101295237Y-137524819D02*
X101295237Y-136858152D01*
X101295237Y-137048628D02*
X101247618Y-136953390D01*
X101247618Y-136953390D02*
X101199999Y-136905771D01*
X101199999Y-136905771D02*
X101104761Y-136858152D01*
X101104761Y-136858152D02*
X101009523Y-136858152D01*
X100914285Y-137620057D02*
X100152380Y-137620057D01*
X99342856Y-137429580D02*
X99390475Y-137477200D01*
X99390475Y-137477200D02*
X99533332Y-137524819D01*
X99533332Y-137524819D02*
X99628570Y-137524819D01*
X99628570Y-137524819D02*
X99771427Y-137477200D01*
X99771427Y-137477200D02*
X99866665Y-137381961D01*
X99866665Y-137381961D02*
X99914284Y-137286723D01*
X99914284Y-137286723D02*
X99961903Y-137096247D01*
X99961903Y-137096247D02*
X99961903Y-136953390D01*
X99961903Y-136953390D02*
X99914284Y-136762914D01*
X99914284Y-136762914D02*
X99866665Y-136667676D01*
X99866665Y-136667676D02*
X99771427Y-136572438D01*
X99771427Y-136572438D02*
X99628570Y-136524819D01*
X99628570Y-136524819D02*
X99533332Y-136524819D01*
X99533332Y-136524819D02*
X99390475Y-136572438D01*
X99390475Y-136572438D02*
X99342856Y-136620057D01*
X98771427Y-137524819D02*
X98866665Y-137477200D01*
X98866665Y-137477200D02*
X98914284Y-137381961D01*
X98914284Y-137381961D02*
X98914284Y-136524819D01*
X98247617Y-137524819D02*
X98342855Y-137477200D01*
X98342855Y-137477200D02*
X98390474Y-137429580D01*
X98390474Y-137429580D02*
X98438093Y-137334342D01*
X98438093Y-137334342D02*
X98438093Y-137048628D01*
X98438093Y-137048628D02*
X98390474Y-136953390D01*
X98390474Y-136953390D02*
X98342855Y-136905771D01*
X98342855Y-136905771D02*
X98247617Y-136858152D01*
X98247617Y-136858152D02*
X98104760Y-136858152D01*
X98104760Y-136858152D02*
X98009522Y-136905771D01*
X98009522Y-136905771D02*
X97961903Y-136953390D01*
X97961903Y-136953390D02*
X97914284Y-137048628D01*
X97914284Y-137048628D02*
X97914284Y-137334342D01*
X97914284Y-137334342D02*
X97961903Y-137429580D01*
X97961903Y-137429580D02*
X98009522Y-137477200D01*
X98009522Y-137477200D02*
X98104760Y-137524819D01*
X98104760Y-137524819D02*
X98247617Y-137524819D01*
X97057141Y-137477200D02*
X97152379Y-137524819D01*
X97152379Y-137524819D02*
X97342855Y-137524819D01*
X97342855Y-137524819D02*
X97438093Y-137477200D01*
X97438093Y-137477200D02*
X97485712Y-137429580D01*
X97485712Y-137429580D02*
X97533331Y-137334342D01*
X97533331Y-137334342D02*
X97533331Y-137048628D01*
X97533331Y-137048628D02*
X97485712Y-136953390D01*
X97485712Y-136953390D02*
X97438093Y-136905771D01*
X97438093Y-136905771D02*
X97342855Y-136858152D01*
X97342855Y-136858152D02*
X97152379Y-136858152D01*
X97152379Y-136858152D02*
X97057141Y-136905771D01*
X96628569Y-137524819D02*
X96628569Y-136524819D01*
X96533331Y-137143866D02*
X96247617Y-137524819D01*
X96247617Y-136858152D02*
X96628569Y-137239104D01*
X95914283Y-136858152D02*
X95723807Y-137524819D01*
X95723807Y-137524819D02*
X95533331Y-137048628D01*
X95533331Y-137048628D02*
X95342855Y-137524819D01*
X95342855Y-137524819D02*
X95152379Y-136858152D01*
X94771426Y-137524819D02*
X94771426Y-136858152D01*
X94771426Y-136524819D02*
X94819045Y-136572438D01*
X94819045Y-136572438D02*
X94771426Y-136620057D01*
X94771426Y-136620057D02*
X94723807Y-136572438D01*
X94723807Y-136572438D02*
X94771426Y-136524819D01*
X94771426Y-136524819D02*
X94771426Y-136620057D01*
X94342855Y-137477200D02*
X94247617Y-137524819D01*
X94247617Y-137524819D02*
X94057141Y-137524819D01*
X94057141Y-137524819D02*
X93961903Y-137477200D01*
X93961903Y-137477200D02*
X93914284Y-137381961D01*
X93914284Y-137381961D02*
X93914284Y-137334342D01*
X93914284Y-137334342D02*
X93961903Y-137239104D01*
X93961903Y-137239104D02*
X94057141Y-137191485D01*
X94057141Y-137191485D02*
X94199998Y-137191485D01*
X94199998Y-137191485D02*
X94295236Y-137143866D01*
X94295236Y-137143866D02*
X94342855Y-137048628D01*
X94342855Y-137048628D02*
X94342855Y-137001009D01*
X94342855Y-137001009D02*
X94295236Y-136905771D01*
X94295236Y-136905771D02*
X94199998Y-136858152D01*
X94199998Y-136858152D02*
X94057141Y-136858152D01*
X94057141Y-136858152D02*
X93961903Y-136905771D01*
X93104760Y-137477200D02*
X93199998Y-137524819D01*
X93199998Y-137524819D02*
X93390474Y-137524819D01*
X93390474Y-137524819D02*
X93485712Y-137477200D01*
X93485712Y-137477200D02*
X93533331Y-137381961D01*
X93533331Y-137381961D02*
X93533331Y-137001009D01*
X93533331Y-137001009D02*
X93485712Y-136905771D01*
X93485712Y-136905771D02*
X93390474Y-136858152D01*
X93390474Y-136858152D02*
X93199998Y-136858152D01*
X93199998Y-136858152D02*
X93104760Y-136905771D01*
X93104760Y-136905771D02*
X93057141Y-137001009D01*
X93057141Y-137001009D02*
X93057141Y-137096247D01*
X93057141Y-137096247D02*
X93533331Y-137191485D01*
X104154819Y-131866666D02*
X104869104Y-131866666D01*
X104869104Y-131866666D02*
X105011961Y-131819047D01*
X105011961Y-131819047D02*
X105107200Y-131723809D01*
X105107200Y-131723809D02*
X105154819Y-131580952D01*
X105154819Y-131580952D02*
X105154819Y-131485714D01*
X104250057Y-132295238D02*
X104202438Y-132342857D01*
X104202438Y-132342857D02*
X104154819Y-132438095D01*
X104154819Y-132438095D02*
X104154819Y-132676190D01*
X104154819Y-132676190D02*
X104202438Y-132771428D01*
X104202438Y-132771428D02*
X104250057Y-132819047D01*
X104250057Y-132819047D02*
X104345295Y-132866666D01*
X104345295Y-132866666D02*
X104440533Y-132866666D01*
X104440533Y-132866666D02*
X104583390Y-132819047D01*
X104583390Y-132819047D02*
X105154819Y-132247619D01*
X105154819Y-132247619D02*
X105154819Y-132866666D01*
X160223811Y-137429580D02*
X160271430Y-137477200D01*
X160271430Y-137477200D02*
X160414287Y-137524819D01*
X160414287Y-137524819D02*
X160509525Y-137524819D01*
X160509525Y-137524819D02*
X160652382Y-137477200D01*
X160652382Y-137477200D02*
X160747620Y-137381961D01*
X160747620Y-137381961D02*
X160795239Y-137286723D01*
X160795239Y-137286723D02*
X160842858Y-137096247D01*
X160842858Y-137096247D02*
X160842858Y-136953390D01*
X160842858Y-136953390D02*
X160795239Y-136762914D01*
X160795239Y-136762914D02*
X160747620Y-136667676D01*
X160747620Y-136667676D02*
X160652382Y-136572438D01*
X160652382Y-136572438D02*
X160509525Y-136524819D01*
X160509525Y-136524819D02*
X160414287Y-136524819D01*
X160414287Y-136524819D02*
X160271430Y-136572438D01*
X160271430Y-136572438D02*
X160223811Y-136620057D01*
X159652382Y-137524819D02*
X159747620Y-137477200D01*
X159747620Y-137477200D02*
X159795239Y-137429580D01*
X159795239Y-137429580D02*
X159842858Y-137334342D01*
X159842858Y-137334342D02*
X159842858Y-137048628D01*
X159842858Y-137048628D02*
X159795239Y-136953390D01*
X159795239Y-136953390D02*
X159747620Y-136905771D01*
X159747620Y-136905771D02*
X159652382Y-136858152D01*
X159652382Y-136858152D02*
X159509525Y-136858152D01*
X159509525Y-136858152D02*
X159414287Y-136905771D01*
X159414287Y-136905771D02*
X159366668Y-136953390D01*
X159366668Y-136953390D02*
X159319049Y-137048628D01*
X159319049Y-137048628D02*
X159319049Y-137334342D01*
X159319049Y-137334342D02*
X159366668Y-137429580D01*
X159366668Y-137429580D02*
X159414287Y-137477200D01*
X159414287Y-137477200D02*
X159509525Y-137524819D01*
X159509525Y-137524819D02*
X159652382Y-137524819D01*
X158890477Y-136858152D02*
X158890477Y-137524819D01*
X158890477Y-136953390D02*
X158842858Y-136905771D01*
X158842858Y-136905771D02*
X158747620Y-136858152D01*
X158747620Y-136858152D02*
X158604763Y-136858152D01*
X158604763Y-136858152D02*
X158509525Y-136905771D01*
X158509525Y-136905771D02*
X158461906Y-137001009D01*
X158461906Y-137001009D02*
X158461906Y-137524819D01*
X157985715Y-136858152D02*
X157985715Y-137524819D01*
X157985715Y-136953390D02*
X157938096Y-136905771D01*
X157938096Y-136905771D02*
X157842858Y-136858152D01*
X157842858Y-136858152D02*
X157700001Y-136858152D01*
X157700001Y-136858152D02*
X157604763Y-136905771D01*
X157604763Y-136905771D02*
X157557144Y-137001009D01*
X157557144Y-137001009D02*
X157557144Y-137524819D01*
X157319049Y-137620057D02*
X156557144Y-137620057D01*
X156128572Y-136524819D02*
X156033334Y-136524819D01*
X156033334Y-136524819D02*
X155938096Y-136572438D01*
X155938096Y-136572438D02*
X155890477Y-136620057D01*
X155890477Y-136620057D02*
X155842858Y-136715295D01*
X155842858Y-136715295D02*
X155795239Y-136905771D01*
X155795239Y-136905771D02*
X155795239Y-137143866D01*
X155795239Y-137143866D02*
X155842858Y-137334342D01*
X155842858Y-137334342D02*
X155890477Y-137429580D01*
X155890477Y-137429580D02*
X155938096Y-137477200D01*
X155938096Y-137477200D02*
X156033334Y-137524819D01*
X156033334Y-137524819D02*
X156128572Y-137524819D01*
X156128572Y-137524819D02*
X156223810Y-137477200D01*
X156223810Y-137477200D02*
X156271429Y-137429580D01*
X156271429Y-137429580D02*
X156319048Y-137334342D01*
X156319048Y-137334342D02*
X156366667Y-137143866D01*
X156366667Y-137143866D02*
X156366667Y-136905771D01*
X156366667Y-136905771D02*
X156319048Y-136715295D01*
X156319048Y-136715295D02*
X156271429Y-136620057D01*
X156271429Y-136620057D02*
X156223810Y-136572438D01*
X156223810Y-136572438D02*
X156128572Y-136524819D01*
X155414286Y-136620057D02*
X155366667Y-136572438D01*
X155366667Y-136572438D02*
X155271429Y-136524819D01*
X155271429Y-136524819D02*
X155033334Y-136524819D01*
X155033334Y-136524819D02*
X154938096Y-136572438D01*
X154938096Y-136572438D02*
X154890477Y-136620057D01*
X154890477Y-136620057D02*
X154842858Y-136715295D01*
X154842858Y-136715295D02*
X154842858Y-136810533D01*
X154842858Y-136810533D02*
X154890477Y-136953390D01*
X154890477Y-136953390D02*
X155461905Y-137524819D01*
X155461905Y-137524819D02*
X154842858Y-137524819D01*
X154509524Y-137524819D02*
X153985715Y-136858152D01*
X154509524Y-136858152D02*
X153985715Y-137524819D01*
X153414286Y-136524819D02*
X153319048Y-136524819D01*
X153319048Y-136524819D02*
X153223810Y-136572438D01*
X153223810Y-136572438D02*
X153176191Y-136620057D01*
X153176191Y-136620057D02*
X153128572Y-136715295D01*
X153128572Y-136715295D02*
X153080953Y-136905771D01*
X153080953Y-136905771D02*
X153080953Y-137143866D01*
X153080953Y-137143866D02*
X153128572Y-137334342D01*
X153128572Y-137334342D02*
X153176191Y-137429580D01*
X153176191Y-137429580D02*
X153223810Y-137477200D01*
X153223810Y-137477200D02*
X153319048Y-137524819D01*
X153319048Y-137524819D02*
X153414286Y-137524819D01*
X153414286Y-137524819D02*
X153509524Y-137477200D01*
X153509524Y-137477200D02*
X153557143Y-137429580D01*
X153557143Y-137429580D02*
X153604762Y-137334342D01*
X153604762Y-137334342D02*
X153652381Y-137143866D01*
X153652381Y-137143866D02*
X153652381Y-136905771D01*
X153652381Y-136905771D02*
X153604762Y-136715295D01*
X153604762Y-136715295D02*
X153557143Y-136620057D01*
X153557143Y-136620057D02*
X153509524Y-136572438D01*
X153509524Y-136572438D02*
X153414286Y-136524819D01*
X152700000Y-136620057D02*
X152652381Y-136572438D01*
X152652381Y-136572438D02*
X152557143Y-136524819D01*
X152557143Y-136524819D02*
X152319048Y-136524819D01*
X152319048Y-136524819D02*
X152223810Y-136572438D01*
X152223810Y-136572438D02*
X152176191Y-136620057D01*
X152176191Y-136620057D02*
X152128572Y-136715295D01*
X152128572Y-136715295D02*
X152128572Y-136810533D01*
X152128572Y-136810533D02*
X152176191Y-136953390D01*
X152176191Y-136953390D02*
X152747619Y-137524819D01*
X152747619Y-137524819D02*
X152128572Y-137524819D01*
X151938096Y-137620057D02*
X151176191Y-137620057D01*
X150366667Y-137429580D02*
X150414286Y-137477200D01*
X150414286Y-137477200D02*
X150557143Y-137524819D01*
X150557143Y-137524819D02*
X150652381Y-137524819D01*
X150652381Y-137524819D02*
X150795238Y-137477200D01*
X150795238Y-137477200D02*
X150890476Y-137381961D01*
X150890476Y-137381961D02*
X150938095Y-137286723D01*
X150938095Y-137286723D02*
X150985714Y-137096247D01*
X150985714Y-137096247D02*
X150985714Y-136953390D01*
X150985714Y-136953390D02*
X150938095Y-136762914D01*
X150938095Y-136762914D02*
X150890476Y-136667676D01*
X150890476Y-136667676D02*
X150795238Y-136572438D01*
X150795238Y-136572438D02*
X150652381Y-136524819D01*
X150652381Y-136524819D02*
X150557143Y-136524819D01*
X150557143Y-136524819D02*
X150414286Y-136572438D01*
X150414286Y-136572438D02*
X150366667Y-136620057D01*
X149795238Y-137524819D02*
X149890476Y-137477200D01*
X149890476Y-137477200D02*
X149938095Y-137429580D01*
X149938095Y-137429580D02*
X149985714Y-137334342D01*
X149985714Y-137334342D02*
X149985714Y-137048628D01*
X149985714Y-137048628D02*
X149938095Y-136953390D01*
X149938095Y-136953390D02*
X149890476Y-136905771D01*
X149890476Y-136905771D02*
X149795238Y-136858152D01*
X149795238Y-136858152D02*
X149652381Y-136858152D01*
X149652381Y-136858152D02*
X149557143Y-136905771D01*
X149557143Y-136905771D02*
X149509524Y-136953390D01*
X149509524Y-136953390D02*
X149461905Y-137048628D01*
X149461905Y-137048628D02*
X149461905Y-137334342D01*
X149461905Y-137334342D02*
X149509524Y-137429580D01*
X149509524Y-137429580D02*
X149557143Y-137477200D01*
X149557143Y-137477200D02*
X149652381Y-137524819D01*
X149652381Y-137524819D02*
X149795238Y-137524819D01*
X148604762Y-136858152D02*
X148604762Y-137524819D01*
X149033333Y-136858152D02*
X149033333Y-137381961D01*
X149033333Y-137381961D02*
X148985714Y-137477200D01*
X148985714Y-137477200D02*
X148890476Y-137524819D01*
X148890476Y-137524819D02*
X148747619Y-137524819D01*
X148747619Y-137524819D02*
X148652381Y-137477200D01*
X148652381Y-137477200D02*
X148604762Y-137429580D01*
X148128571Y-136858152D02*
X148128571Y-137524819D01*
X148128571Y-136953390D02*
X148080952Y-136905771D01*
X148080952Y-136905771D02*
X147985714Y-136858152D01*
X147985714Y-136858152D02*
X147842857Y-136858152D01*
X147842857Y-136858152D02*
X147747619Y-136905771D01*
X147747619Y-136905771D02*
X147700000Y-137001009D01*
X147700000Y-137001009D02*
X147700000Y-137524819D01*
X147366666Y-136858152D02*
X146985714Y-136858152D01*
X147223809Y-136524819D02*
X147223809Y-137381961D01*
X147223809Y-137381961D02*
X147176190Y-137477200D01*
X147176190Y-137477200D02*
X147080952Y-137524819D01*
X147080952Y-137524819D02*
X146985714Y-137524819D01*
X146271428Y-137477200D02*
X146366666Y-137524819D01*
X146366666Y-137524819D02*
X146557142Y-137524819D01*
X146557142Y-137524819D02*
X146652380Y-137477200D01*
X146652380Y-137477200D02*
X146699999Y-137381961D01*
X146699999Y-137381961D02*
X146699999Y-137001009D01*
X146699999Y-137001009D02*
X146652380Y-136905771D01*
X146652380Y-136905771D02*
X146557142Y-136858152D01*
X146557142Y-136858152D02*
X146366666Y-136858152D01*
X146366666Y-136858152D02*
X146271428Y-136905771D01*
X146271428Y-136905771D02*
X146223809Y-137001009D01*
X146223809Y-137001009D02*
X146223809Y-137096247D01*
X146223809Y-137096247D02*
X146699999Y-137191485D01*
X145795237Y-137524819D02*
X145795237Y-136858152D01*
X145795237Y-137048628D02*
X145747618Y-136953390D01*
X145747618Y-136953390D02*
X145699999Y-136905771D01*
X145699999Y-136905771D02*
X145604761Y-136858152D01*
X145604761Y-136858152D02*
X145509523Y-136858152D01*
X145414285Y-137620057D02*
X144652380Y-137620057D01*
X143842856Y-137429580D02*
X143890475Y-137477200D01*
X143890475Y-137477200D02*
X144033332Y-137524819D01*
X144033332Y-137524819D02*
X144128570Y-137524819D01*
X144128570Y-137524819D02*
X144271427Y-137477200D01*
X144271427Y-137477200D02*
X144366665Y-137381961D01*
X144366665Y-137381961D02*
X144414284Y-137286723D01*
X144414284Y-137286723D02*
X144461903Y-137096247D01*
X144461903Y-137096247D02*
X144461903Y-136953390D01*
X144461903Y-136953390D02*
X144414284Y-136762914D01*
X144414284Y-136762914D02*
X144366665Y-136667676D01*
X144366665Y-136667676D02*
X144271427Y-136572438D01*
X144271427Y-136572438D02*
X144128570Y-136524819D01*
X144128570Y-136524819D02*
X144033332Y-136524819D01*
X144033332Y-136524819D02*
X143890475Y-136572438D01*
X143890475Y-136572438D02*
X143842856Y-136620057D01*
X143271427Y-137524819D02*
X143366665Y-137477200D01*
X143366665Y-137477200D02*
X143414284Y-137381961D01*
X143414284Y-137381961D02*
X143414284Y-136524819D01*
X142747617Y-137524819D02*
X142842855Y-137477200D01*
X142842855Y-137477200D02*
X142890474Y-137429580D01*
X142890474Y-137429580D02*
X142938093Y-137334342D01*
X142938093Y-137334342D02*
X142938093Y-137048628D01*
X142938093Y-137048628D02*
X142890474Y-136953390D01*
X142890474Y-136953390D02*
X142842855Y-136905771D01*
X142842855Y-136905771D02*
X142747617Y-136858152D01*
X142747617Y-136858152D02*
X142604760Y-136858152D01*
X142604760Y-136858152D02*
X142509522Y-136905771D01*
X142509522Y-136905771D02*
X142461903Y-136953390D01*
X142461903Y-136953390D02*
X142414284Y-137048628D01*
X142414284Y-137048628D02*
X142414284Y-137334342D01*
X142414284Y-137334342D02*
X142461903Y-137429580D01*
X142461903Y-137429580D02*
X142509522Y-137477200D01*
X142509522Y-137477200D02*
X142604760Y-137524819D01*
X142604760Y-137524819D02*
X142747617Y-137524819D01*
X141557141Y-137477200D02*
X141652379Y-137524819D01*
X141652379Y-137524819D02*
X141842855Y-137524819D01*
X141842855Y-137524819D02*
X141938093Y-137477200D01*
X141938093Y-137477200D02*
X141985712Y-137429580D01*
X141985712Y-137429580D02*
X142033331Y-137334342D01*
X142033331Y-137334342D02*
X142033331Y-137048628D01*
X142033331Y-137048628D02*
X141985712Y-136953390D01*
X141985712Y-136953390D02*
X141938093Y-136905771D01*
X141938093Y-136905771D02*
X141842855Y-136858152D01*
X141842855Y-136858152D02*
X141652379Y-136858152D01*
X141652379Y-136858152D02*
X141557141Y-136905771D01*
X141128569Y-137524819D02*
X141128569Y-136524819D01*
X141033331Y-137143866D02*
X140747617Y-137524819D01*
X140747617Y-136858152D02*
X141128569Y-137239104D01*
X140414283Y-136858152D02*
X140223807Y-137524819D01*
X140223807Y-137524819D02*
X140033331Y-137048628D01*
X140033331Y-137048628D02*
X139842855Y-137524819D01*
X139842855Y-137524819D02*
X139652379Y-136858152D01*
X139271426Y-137524819D02*
X139271426Y-136858152D01*
X139271426Y-136524819D02*
X139319045Y-136572438D01*
X139319045Y-136572438D02*
X139271426Y-136620057D01*
X139271426Y-136620057D02*
X139223807Y-136572438D01*
X139223807Y-136572438D02*
X139271426Y-136524819D01*
X139271426Y-136524819D02*
X139271426Y-136620057D01*
X138842855Y-137477200D02*
X138747617Y-137524819D01*
X138747617Y-137524819D02*
X138557141Y-137524819D01*
X138557141Y-137524819D02*
X138461903Y-137477200D01*
X138461903Y-137477200D02*
X138414284Y-137381961D01*
X138414284Y-137381961D02*
X138414284Y-137334342D01*
X138414284Y-137334342D02*
X138461903Y-137239104D01*
X138461903Y-137239104D02*
X138557141Y-137191485D01*
X138557141Y-137191485D02*
X138699998Y-137191485D01*
X138699998Y-137191485D02*
X138795236Y-137143866D01*
X138795236Y-137143866D02*
X138842855Y-137048628D01*
X138842855Y-137048628D02*
X138842855Y-137001009D01*
X138842855Y-137001009D02*
X138795236Y-136905771D01*
X138795236Y-136905771D02*
X138699998Y-136858152D01*
X138699998Y-136858152D02*
X138557141Y-136858152D01*
X138557141Y-136858152D02*
X138461903Y-136905771D01*
X137604760Y-137477200D02*
X137699998Y-137524819D01*
X137699998Y-137524819D02*
X137890474Y-137524819D01*
X137890474Y-137524819D02*
X137985712Y-137477200D01*
X137985712Y-137477200D02*
X138033331Y-137381961D01*
X138033331Y-137381961D02*
X138033331Y-137001009D01*
X138033331Y-137001009D02*
X137985712Y-136905771D01*
X137985712Y-136905771D02*
X137890474Y-136858152D01*
X137890474Y-136858152D02*
X137699998Y-136858152D01*
X137699998Y-136858152D02*
X137604760Y-136905771D01*
X137604760Y-136905771D02*
X137557141Y-137001009D01*
X137557141Y-137001009D02*
X137557141Y-137096247D01*
X137557141Y-137096247D02*
X138033331Y-137191485D01*
X148654819Y-131866666D02*
X149369104Y-131866666D01*
X149369104Y-131866666D02*
X149511961Y-131819047D01*
X149511961Y-131819047D02*
X149607200Y-131723809D01*
X149607200Y-131723809D02*
X149654819Y-131580952D01*
X149654819Y-131580952D02*
X149654819Y-131485714D01*
X149654819Y-132866666D02*
X149654819Y-132295238D01*
X149654819Y-132580952D02*
X148654819Y-132580952D01*
X148654819Y-132580952D02*
X148797676Y-132485714D01*
X148797676Y-132485714D02*
X148892914Y-132390476D01*
X148892914Y-132390476D02*
X148940533Y-132295238D01*
D11*
%TO.C,J2*%
X101100000Y-129340000D02*
X101100000Y-129980000D01*
X101100000Y-129980000D02*
X102160000Y-129980000D01*
X101100000Y-131880000D02*
X101100000Y-132520000D01*
X101100000Y-132520000D02*
X102160000Y-132520000D01*
X101100000Y-134420000D02*
X101100000Y-135060000D01*
X101100000Y-135060000D02*
X102160000Y-135060000D01*
X102160000Y-128390000D02*
X102160000Y-136010000D01*
X102160000Y-129340000D02*
X101100000Y-129340000D01*
X102160000Y-131880000D02*
X101100000Y-131880000D01*
X102160000Y-134420000D02*
X101100000Y-134420000D01*
X102160000Y-136010000D02*
X107240000Y-136010000D01*
X106290000Y-128390000D02*
X102160000Y-128390000D01*
X107240000Y-129340000D02*
X106290000Y-128390000D01*
X107240000Y-129340000D02*
X108300000Y-129340000D01*
X107240000Y-131880000D02*
X108300000Y-131880000D01*
X107240000Y-134420000D02*
X108300000Y-134420000D01*
X107240000Y-136010000D02*
X107240000Y-129340000D01*
X108300000Y-129340000D02*
X108300000Y-129980000D01*
X108300000Y-129980000D02*
X107240000Y-129980000D01*
X108300000Y-131880000D02*
X108300000Y-132520000D01*
X108300000Y-132520000D02*
X107240000Y-132520000D01*
X108300000Y-134420000D02*
X108300000Y-135060000D01*
X108300000Y-135060000D02*
X107240000Y-135060000D01*
%TO.C,J1*%
X145600000Y-129340000D02*
X145600000Y-129980000D01*
X145600000Y-129980000D02*
X146660000Y-129980000D01*
X145600000Y-131880000D02*
X145600000Y-132520000D01*
X145600000Y-132520000D02*
X146660000Y-132520000D01*
X145600000Y-134420000D02*
X145600000Y-135060000D01*
X145600000Y-135060000D02*
X146660000Y-135060000D01*
X146660000Y-128390000D02*
X146660000Y-136010000D01*
X146660000Y-129340000D02*
X145600000Y-129340000D01*
X146660000Y-131880000D02*
X145600000Y-131880000D01*
X146660000Y-134420000D02*
X145600000Y-134420000D01*
X146660000Y-136010000D02*
X151740000Y-136010000D01*
X150790000Y-128390000D02*
X146660000Y-128390000D01*
X151740000Y-129340000D02*
X150790000Y-128390000D01*
X151740000Y-129340000D02*
X152800000Y-129340000D01*
X151740000Y-131880000D02*
X152800000Y-131880000D01*
X151740000Y-134420000D02*
X152800000Y-134420000D01*
X151740000Y-136010000D02*
X151740000Y-129340000D01*
X152800000Y-129340000D02*
X152800000Y-129980000D01*
X152800000Y-129980000D02*
X151740000Y-129980000D01*
X152800000Y-131880000D02*
X152800000Y-132520000D01*
X152800000Y-132520000D02*
X151740000Y-132520000D01*
X152800000Y-134420000D02*
X152800000Y-135060000D01*
X152800000Y-135060000D02*
X151740000Y-135060000D01*
%TD*%
M02*
