M48
; DRILL file {KiCad 8.0.0} date 2024-03-04T20:43:29-0500
; FORMAT={-:-/ absolute / inch / decimal}
; #@! TF.CreationDate,2024-03-04T20:43:29-05:00
; #@! TF.GenerationSoftware,Kicad,Pcbnew,8.0.0
; #@! TF.FileFunction,Plated,1,4,PTH
FMAT,2
INCH
; #@! TA.AperFunction,Plated,PTH,ViaDrill
T1C0.0118
; #@! TA.AperFunction,Plated,PTH,ViaDrill
T2C0.0157
; #@! TA.AperFunction,Plated,PTH,ComponentDrill
T3C0.0197
; #@! TA.AperFunction,Plated,PTH,ViaDrill
T4C0.0236
; #@! TA.AperFunction,Plated,PTH,ComponentDrill
T5C0.0320
%
G90
G05
T1
X4.3622Y-4.5276
X4.5276Y-4.3642
X4.6654Y-4.4291
X4.7441Y-4.4606
X4.7657Y-4.2835
X4.811Y-4.4606
X4.878Y-4.3858
X4.9843Y-4.2362
X5.0236Y-4.2402
X5.0295Y-4.3917
X5.0896Y-4.2264
X5.1088Y-4.7207
X5.1102Y-4.3831
X5.1137Y-4.8772
X5.1196Y-4.5317
X5.1924Y-4.4845
X5.3066Y-4.6233
X5.315Y-4.4882
X5.3696Y-4.4491
X5.3976Y-4.0079
X5.4016Y-4.0709
X5.4016Y-4.1339
X5.4055Y-4.2323
X5.468Y-4.4136
X5.531Y-4.4136
X5.533Y-4.6046
X5.594Y-4.4136
X5.6609Y-4.6695
X5.6649Y-4.7876
X5.783Y-4.6538
T2
X4.0157Y-4.2087
X4.0315Y-3.9843
X4.0945Y-5.1575
X4.1732Y-4.2717
X4.1732Y-4.3346
X4.2126Y-5.0394
X4.2126Y-5.374
X4.2283Y-3.9843
X4.2283Y-4.2087
X4.3701Y-4.2431
X4.4882Y-4.0551
X4.5472Y-4.1929
X4.5472Y-4.5079
X4.5669Y-4.6063
X4.6063Y-4.1142
X4.685Y-4.7638
X4.8622Y-4.5866
X4.9606Y-4.2126
X5.0591Y-4.2126
X5.1147Y-4.7611
X5.466Y-4.705
X5.466Y-4.7581
X5.5212Y-4.705
X5.5212Y-4.7581
X5.842Y-4.8625
X5.8661Y-5.1575
X5.9646Y-5.0394
X5.9646Y-5.374
T4
X5.5906Y-4.626
T5
X5.6732Y-4.015
X5.6732Y-4.115
X5.6732Y-4.215
X5.6732Y-4.315
X5.9732Y-4.015
X5.9732Y-4.115
X5.9732Y-4.215
X5.9732Y-4.315
T3
G00X4.8232Y-4.0425
M15
G01X4.8232Y-4.0189
M16
G05
G00X4.8374Y-4.2768
M15
G01X4.8374Y-4.2531
M16
G05
G00X5.1626Y-4.2768
M15
G01X5.1626Y-4.2531
M16
G05
G00X5.1768Y-4.0425
M15
G01X5.1768Y-4.0189
M16
G05
M30
