%TF.GenerationSoftware,KiCad,Pcbnew,8.0.0*%
%TF.CreationDate,2024-03-04T20:39:57-05:00*%
%TF.ProjectId,USB C breadboard power supply,55534220-4320-4627-9265-6164626f6172,0.1*%
%TF.SameCoordinates,Original*%
%TF.FileFunction,Copper,L2,Inr*%
%TF.FilePolarity,Positive*%
%FSLAX46Y46*%
G04 Gerber Fmt 4.6, Leading zero omitted, Abs format (unit mm)*
G04 Created by KiCad (PCBNEW 8.0.0) date 2024-03-04 20:39:57*
%MOMM*%
%LPD*%
G01*
G04 APERTURE LIST*
%TA.AperFunction,ComponentPad*%
%ADD10R,1.320800X1.320800*%
%TD*%
%TA.AperFunction,ComponentPad*%
%ADD11C,1.320800*%
%TD*%
%TA.AperFunction,ComponentPad*%
%ADD12O,0.800000X1.400000*%
%TD*%
%TA.AperFunction,ViaPad*%
%ADD13C,0.800000*%
%TD*%
%TA.AperFunction,ViaPad*%
%ADD14C,1.000000*%
%TD*%
%TA.AperFunction,ViaPad*%
%ADD15C,0.500000*%
%TD*%
G04 APERTURE END LIST*
D10*
%TO.N,unconnected-(SW1-Pad1)*%
%TO.C,SW1*%
X144100000Y-109600000D03*
D11*
%TO.N,/VBUS_MAX*%
X144100000Y-107060000D03*
%TO.N,Net-(SW1-2)*%
X144100000Y-104520000D03*
%TO.N,Net-(SW1-3)*%
X144100000Y-101980000D03*
%TO.N,unconnected-(SW1-NC-Pad5)*%
X151720000Y-101980000D03*
%TO.N,/VBUS_MAX*%
X151720000Y-104520000D03*
%TO.N,unconnected-(SW1-5-Pad7)*%
X151720000Y-107060000D03*
%TO.N,Net-(SW1-4)*%
X151720000Y-109600000D03*
%TD*%
D12*
%TO.N,GND*%
%TO.C,USB1*%
X131490000Y-102380000D03*
X131130000Y-108330000D03*
X122870000Y-108330000D03*
X122510000Y-102380000D03*
%TD*%
D13*
%TO.N,Net-(C12-Pad1)*%
X106000000Y-110100000D03*
%TO.N,/VBUS_FET_EN*%
X106000000Y-108500000D03*
%TO.N,/RAIL_1*%
X149000000Y-131000000D03*
%TO.N,/RAIL_2*%
X104000000Y-131000000D03*
%TO.N,/3V3_OUT*%
X107000000Y-136500000D03*
%TO.N,/DC_OUTPUT*%
X107000000Y-128000000D03*
%TO.N,/3V3_OUT*%
X151500000Y-136500000D03*
%TO.N,/DC_OUTPUT*%
X151500000Y-128000000D03*
X111000000Y-107775000D03*
%TO.N,/3V3_OUT*%
X123500000Y-116500000D03*
X116000000Y-117000000D03*
%TO.N,VBUS*%
X115500000Y-114500000D03*
X117000000Y-104500000D03*
X115500000Y-106500000D03*
X114000000Y-103000000D03*
X128500000Y-107000000D03*
X125998958Y-106998958D03*
D14*
X142000000Y-117500000D03*
D13*
%TO.N,Net-(D1-K)*%
X102000000Y-106900000D03*
X107400000Y-106900000D03*
%TO.N,Net-(D1-A)*%
X107400000Y-101200000D03*
X102400000Y-101200000D03*
%TO.N,/3V3_OUT*%
X119000000Y-121000000D03*
%TO.N,/3V3*%
X148387500Y-123506250D03*
X129912500Y-120931250D03*
%TO.N,GND*%
X138837500Y-119506250D03*
D15*
X129762500Y-119906250D03*
X137200000Y-103400000D03*
X140537500Y-116956250D03*
X121050000Y-108800000D03*
X118500000Y-112500000D03*
X137100000Y-101800000D03*
X142087500Y-112106250D03*
X140487500Y-112106250D03*
D13*
X140237500Y-119506250D03*
D15*
X137300000Y-107500000D03*
X120500000Y-113300000D03*
D13*
X140237500Y-120856250D03*
D15*
X110800000Y-115000000D03*
X122200000Y-113300000D03*
D13*
X138837500Y-120856250D03*
D15*
X129800000Y-111331750D03*
X146887500Y-118206250D03*
X123900000Y-111400000D03*
X129887500Y-123881250D03*
X138887500Y-112106250D03*
X130037500Y-115106250D03*
X137200000Y-105000000D03*
X136387500Y-113006250D03*
%TO.N,/CC1*%
X143787500Y-118606250D03*
X127750000Y-111550000D03*
%TO.N,/CC2*%
X143887500Y-121606250D03*
X126600000Y-107600000D03*
%TO.N,Net-(C12-Pad1)*%
X115000000Y-110850000D03*
%TO.N,/VBUS_FET_EN*%
X131887500Y-113906250D03*
%TO.N,/VBUS_MAX*%
X135000000Y-114000000D03*
X134787714Y-117432137D03*
%TO.N,/D+*%
X127600000Y-107700000D03*
X129275000Y-107350000D03*
%TD*%
%TA.AperFunction,Conductor*%
%TO.N,/DC_OUTPUT*%
G36*
X153001224Y-100000030D02*
G01*
X153027839Y-100000682D01*
X153089724Y-100002198D01*
X153106613Y-100004070D01*
X153163581Y-100015401D01*
X153281428Y-100038842D01*
X153299989Y-100044473D01*
X153463530Y-100112214D01*
X153480643Y-100121361D01*
X153627818Y-100219700D01*
X153642821Y-100232012D01*
X153767987Y-100357178D01*
X153780299Y-100372181D01*
X153878638Y-100519356D01*
X153887786Y-100536471D01*
X153955524Y-100700003D01*
X153961158Y-100718576D01*
X153995929Y-100893386D01*
X153997801Y-100910273D01*
X153999970Y-100998774D01*
X154000000Y-101001200D01*
X154000000Y-136998799D01*
X153999970Y-137001225D01*
X153997801Y-137089726D01*
X153995929Y-137106613D01*
X153961158Y-137281423D01*
X153955524Y-137299996D01*
X153887786Y-137463528D01*
X153878638Y-137480643D01*
X153780299Y-137627818D01*
X153767987Y-137642821D01*
X153642821Y-137767987D01*
X153627818Y-137780299D01*
X153480643Y-137878638D01*
X153463528Y-137887786D01*
X153299996Y-137955524D01*
X153281423Y-137961158D01*
X153106613Y-137995929D01*
X153089726Y-137997801D01*
X153004410Y-137999891D01*
X153001223Y-137999970D01*
X152998800Y-138000000D01*
X145001200Y-138000000D01*
X144998776Y-137999970D01*
X144995505Y-137999889D01*
X144910273Y-137997801D01*
X144893386Y-137995929D01*
X144718576Y-137961158D01*
X144700003Y-137955524D01*
X144536471Y-137887786D01*
X144519356Y-137878638D01*
X144372181Y-137780299D01*
X144357178Y-137767987D01*
X144232012Y-137642821D01*
X144219700Y-137627818D01*
X144121361Y-137480643D01*
X144112213Y-137463528D01*
X144044473Y-137299989D01*
X144038842Y-137281428D01*
X144004070Y-137106613D01*
X144002198Y-137089724D01*
X144000030Y-137001223D01*
X144000000Y-136998799D01*
X144000000Y-136500000D01*
X150894318Y-136500000D01*
X150914955Y-136656758D01*
X150914957Y-136656766D01*
X150975462Y-136802838D01*
X150975462Y-136802839D01*
X150975464Y-136802841D01*
X151071718Y-136928282D01*
X151197159Y-137024536D01*
X151343238Y-137085044D01*
X151460809Y-137100522D01*
X151499999Y-137105682D01*
X151500000Y-137105682D01*
X151500001Y-137105682D01*
X151531352Y-137101554D01*
X151656762Y-137085044D01*
X151802841Y-137024536D01*
X151928282Y-136928282D01*
X152024536Y-136802841D01*
X152085044Y-136656762D01*
X152105682Y-136500000D01*
X152085044Y-136343238D01*
X152024537Y-136197161D01*
X152024537Y-136197160D01*
X151928286Y-136071723D01*
X151928285Y-136071722D01*
X151928282Y-136071718D01*
X151928277Y-136071714D01*
X151928276Y-136071713D01*
X151802838Y-135975462D01*
X151656766Y-135914957D01*
X151656758Y-135914955D01*
X151500001Y-135894318D01*
X151499999Y-135894318D01*
X151343241Y-135914955D01*
X151343233Y-135914957D01*
X151197161Y-135975462D01*
X151197160Y-135975462D01*
X151071723Y-136071713D01*
X151071713Y-136071723D01*
X150975462Y-136197160D01*
X150975462Y-136197161D01*
X150914957Y-136343233D01*
X150914955Y-136343241D01*
X150894318Y-136499999D01*
X150894318Y-136500000D01*
X144000000Y-136500000D01*
X144000000Y-131000000D01*
X148394318Y-131000000D01*
X148414955Y-131156758D01*
X148414957Y-131156766D01*
X148475462Y-131302838D01*
X148475462Y-131302839D01*
X148475464Y-131302841D01*
X148571718Y-131428282D01*
X148697159Y-131524536D01*
X148843238Y-131585044D01*
X148960809Y-131600522D01*
X148999999Y-131605682D01*
X149000000Y-131605682D01*
X149000001Y-131605682D01*
X149031352Y-131601554D01*
X149156762Y-131585044D01*
X149302841Y-131524536D01*
X149428282Y-131428282D01*
X149524536Y-131302841D01*
X149585044Y-131156762D01*
X149605682Y-131000000D01*
X149585044Y-130843238D01*
X149524537Y-130697161D01*
X149524537Y-130697160D01*
X149428286Y-130571723D01*
X149428285Y-130571722D01*
X149428282Y-130571718D01*
X149428277Y-130571714D01*
X149428276Y-130571713D01*
X149302838Y-130475462D01*
X149156766Y-130414957D01*
X149156758Y-130414955D01*
X149000001Y-130394318D01*
X148999999Y-130394318D01*
X148843241Y-130414955D01*
X148843233Y-130414957D01*
X148697161Y-130475462D01*
X148697160Y-130475462D01*
X148571723Y-130571713D01*
X148571713Y-130571723D01*
X148475462Y-130697160D01*
X148475462Y-130697161D01*
X148414957Y-130843233D01*
X148414955Y-130843241D01*
X148394318Y-130999999D01*
X148394318Y-131000000D01*
X144000000Y-131000000D01*
X144000000Y-126999988D01*
X143997593Y-126901748D01*
X143959256Y-126709014D01*
X143884055Y-126527464D01*
X143884048Y-126527450D01*
X143774886Y-126364078D01*
X143774883Y-126364075D01*
X143774881Y-126364072D01*
X143635928Y-126225119D01*
X143635924Y-126225116D01*
X143635921Y-126225113D01*
X143472549Y-126115951D01*
X143472535Y-126115944D01*
X143290985Y-126040743D01*
X143098249Y-126002406D01*
X143098253Y-126002406D01*
X143000012Y-126000000D01*
X143000000Y-126000000D01*
X111000000Y-126000000D01*
X110999988Y-126000000D01*
X110901748Y-126002406D01*
X110709014Y-126040743D01*
X110527464Y-126115944D01*
X110527450Y-126115951D01*
X110364078Y-126225113D01*
X110225113Y-126364078D01*
X110115951Y-126527450D01*
X110115944Y-126527464D01*
X110040743Y-126709014D01*
X110002406Y-126901748D01*
X110000000Y-126999988D01*
X110000000Y-136998799D01*
X109999970Y-137001225D01*
X109997801Y-137089726D01*
X109995929Y-137106613D01*
X109961158Y-137281423D01*
X109955524Y-137299996D01*
X109887786Y-137463528D01*
X109878638Y-137480643D01*
X109780299Y-137627818D01*
X109767987Y-137642821D01*
X109642821Y-137767987D01*
X109627818Y-137780299D01*
X109480643Y-137878638D01*
X109463528Y-137887786D01*
X109299996Y-137955524D01*
X109281423Y-137961158D01*
X109106613Y-137995929D01*
X109089726Y-137997801D01*
X109004410Y-137999891D01*
X109001223Y-137999970D01*
X108998800Y-138000000D01*
X101001200Y-138000000D01*
X100998776Y-137999970D01*
X100995505Y-137999889D01*
X100910273Y-137997801D01*
X100893386Y-137995929D01*
X100718576Y-137961158D01*
X100700003Y-137955524D01*
X100536471Y-137887786D01*
X100519356Y-137878638D01*
X100372181Y-137780299D01*
X100357178Y-137767987D01*
X100232012Y-137642821D01*
X100219700Y-137627818D01*
X100121361Y-137480643D01*
X100112213Y-137463528D01*
X100044473Y-137299989D01*
X100038842Y-137281428D01*
X100004070Y-137106613D01*
X100002198Y-137089724D01*
X100000030Y-137001223D01*
X100000000Y-136998799D01*
X100000000Y-136500000D01*
X106394318Y-136500000D01*
X106414955Y-136656758D01*
X106414957Y-136656766D01*
X106475462Y-136802838D01*
X106475462Y-136802839D01*
X106475464Y-136802841D01*
X106571718Y-136928282D01*
X106697159Y-137024536D01*
X106843238Y-137085044D01*
X106960809Y-137100522D01*
X106999999Y-137105682D01*
X107000000Y-137105682D01*
X107000001Y-137105682D01*
X107031352Y-137101554D01*
X107156762Y-137085044D01*
X107302841Y-137024536D01*
X107428282Y-136928282D01*
X107524536Y-136802841D01*
X107585044Y-136656762D01*
X107605682Y-136500000D01*
X107585044Y-136343238D01*
X107524537Y-136197161D01*
X107524537Y-136197160D01*
X107428286Y-136071723D01*
X107428285Y-136071722D01*
X107428282Y-136071718D01*
X107428277Y-136071714D01*
X107428276Y-136071713D01*
X107302838Y-135975462D01*
X107156766Y-135914957D01*
X107156758Y-135914955D01*
X107000001Y-135894318D01*
X106999999Y-135894318D01*
X106843241Y-135914955D01*
X106843233Y-135914957D01*
X106697161Y-135975462D01*
X106697160Y-135975462D01*
X106571723Y-136071713D01*
X106571713Y-136071723D01*
X106475462Y-136197160D01*
X106475462Y-136197161D01*
X106414957Y-136343233D01*
X106414955Y-136343241D01*
X106394318Y-136499999D01*
X106394318Y-136500000D01*
X100000000Y-136500000D01*
X100000000Y-131000000D01*
X103394318Y-131000000D01*
X103414955Y-131156758D01*
X103414957Y-131156766D01*
X103475462Y-131302838D01*
X103475462Y-131302839D01*
X103475464Y-131302841D01*
X103571718Y-131428282D01*
X103697159Y-131524536D01*
X103843238Y-131585044D01*
X103960809Y-131600522D01*
X103999999Y-131605682D01*
X104000000Y-131605682D01*
X104000001Y-131605682D01*
X104031352Y-131601554D01*
X104156762Y-131585044D01*
X104302841Y-131524536D01*
X104428282Y-131428282D01*
X104524536Y-131302841D01*
X104585044Y-131156762D01*
X104605682Y-131000000D01*
X104585044Y-130843238D01*
X104524537Y-130697161D01*
X104524537Y-130697160D01*
X104428286Y-130571723D01*
X104428285Y-130571722D01*
X104428282Y-130571718D01*
X104428277Y-130571714D01*
X104428276Y-130571713D01*
X104302838Y-130475462D01*
X104156766Y-130414957D01*
X104156758Y-130414955D01*
X104000001Y-130394318D01*
X103999999Y-130394318D01*
X103843241Y-130414955D01*
X103843233Y-130414957D01*
X103697161Y-130475462D01*
X103697160Y-130475462D01*
X103571723Y-130571713D01*
X103571713Y-130571723D01*
X103475462Y-130697160D01*
X103475462Y-130697161D01*
X103414957Y-130843233D01*
X103414955Y-130843241D01*
X103394318Y-130999999D01*
X103394318Y-131000000D01*
X100000000Y-131000000D01*
X100000000Y-123881252D01*
X129432367Y-123881252D01*
X129450802Y-124009475D01*
X129488168Y-124091294D01*
X129504618Y-124127313D01*
X129589451Y-124225217D01*
X129589452Y-124225218D01*
X129698426Y-124295251D01*
X129698431Y-124295254D01*
X129822728Y-124331750D01*
X129822730Y-124331750D01*
X129952270Y-124331750D01*
X129952272Y-124331750D01*
X130076569Y-124295254D01*
X130185549Y-124225217D01*
X130270382Y-124127313D01*
X130324197Y-124009476D01*
X130342633Y-123881250D01*
X130324197Y-123753024D01*
X130270382Y-123635187D01*
X130185549Y-123537283D01*
X130185548Y-123537282D01*
X130185547Y-123537281D01*
X130137262Y-123506250D01*
X147781818Y-123506250D01*
X147802455Y-123663008D01*
X147802457Y-123663016D01*
X147862962Y-123809088D01*
X147862962Y-123809089D01*
X147862964Y-123809091D01*
X147959218Y-123934532D01*
X148084659Y-124030786D01*
X148230738Y-124091294D01*
X148348309Y-124106772D01*
X148387499Y-124111932D01*
X148387500Y-124111932D01*
X148387501Y-124111932D01*
X148418852Y-124107804D01*
X148544262Y-124091294D01*
X148690341Y-124030786D01*
X148815782Y-123934532D01*
X148912036Y-123809091D01*
X148972544Y-123663012D01*
X148993182Y-123506250D01*
X148972544Y-123349488D01*
X148912037Y-123203411D01*
X148912037Y-123203410D01*
X148815786Y-123077973D01*
X148815785Y-123077972D01*
X148815782Y-123077968D01*
X148815777Y-123077964D01*
X148815776Y-123077963D01*
X148690338Y-122981712D01*
X148544266Y-122921207D01*
X148544258Y-122921205D01*
X148387501Y-122900568D01*
X148387499Y-122900568D01*
X148230741Y-122921205D01*
X148230733Y-122921207D01*
X148084661Y-122981712D01*
X148084660Y-122981712D01*
X147959223Y-123077963D01*
X147959213Y-123077973D01*
X147862962Y-123203410D01*
X147862962Y-123203411D01*
X147802457Y-123349483D01*
X147802455Y-123349491D01*
X147781818Y-123506249D01*
X147781818Y-123506250D01*
X130137262Y-123506250D01*
X130076573Y-123467248D01*
X130076570Y-123467246D01*
X130076569Y-123467246D01*
X130076566Y-123467245D01*
X129952274Y-123430750D01*
X129952272Y-123430750D01*
X129822728Y-123430750D01*
X129822725Y-123430750D01*
X129698433Y-123467245D01*
X129698426Y-123467248D01*
X129589452Y-123537281D01*
X129504617Y-123635188D01*
X129450802Y-123753024D01*
X129432367Y-123881247D01*
X129432367Y-123881252D01*
X100000000Y-123881252D01*
X100000000Y-121606252D01*
X143432367Y-121606252D01*
X143450802Y-121734475D01*
X143504617Y-121852311D01*
X143504618Y-121852313D01*
X143589451Y-121950217D01*
X143589452Y-121950218D01*
X143698426Y-122020251D01*
X143698431Y-122020254D01*
X143822728Y-122056750D01*
X143822730Y-122056750D01*
X143952270Y-122056750D01*
X143952272Y-122056750D01*
X144076569Y-122020254D01*
X144185549Y-121950217D01*
X144270382Y-121852313D01*
X144324197Y-121734476D01*
X144342633Y-121606250D01*
X144342551Y-121605682D01*
X144324197Y-121478024D01*
X144316848Y-121461932D01*
X144270382Y-121360187D01*
X144185549Y-121262283D01*
X144185548Y-121262282D01*
X144185547Y-121262281D01*
X144076573Y-121192248D01*
X144076570Y-121192246D01*
X144076569Y-121192246D01*
X144076566Y-121192245D01*
X143952274Y-121155750D01*
X143952272Y-121155750D01*
X143822728Y-121155750D01*
X143822725Y-121155750D01*
X143698433Y-121192245D01*
X143698426Y-121192248D01*
X143589452Y-121262281D01*
X143504617Y-121360188D01*
X143450802Y-121478024D01*
X143432367Y-121606247D01*
X143432367Y-121606252D01*
X100000000Y-121606252D01*
X100000000Y-121000000D01*
X118394318Y-121000000D01*
X118414955Y-121156758D01*
X118414957Y-121156766D01*
X118475462Y-121302838D01*
X118475462Y-121302839D01*
X118571713Y-121428276D01*
X118571718Y-121428282D01*
X118697159Y-121524536D01*
X118697160Y-121524536D01*
X118697161Y-121524537D01*
X118843233Y-121585042D01*
X118843238Y-121585044D01*
X118960809Y-121600522D01*
X118999999Y-121605682D01*
X119000000Y-121605682D01*
X119000001Y-121605682D01*
X119031352Y-121601554D01*
X119156762Y-121585044D01*
X119302841Y-121524536D01*
X119428282Y-121428282D01*
X119524536Y-121302841D01*
X119585044Y-121156762D01*
X119605682Y-121000000D01*
X119585044Y-120843238D01*
X119524537Y-120697161D01*
X119524537Y-120697160D01*
X119428286Y-120571723D01*
X119428285Y-120571722D01*
X119428282Y-120571718D01*
X119428277Y-120571714D01*
X119428276Y-120571713D01*
X119357104Y-120517101D01*
X119302841Y-120475464D01*
X119302840Y-120475463D01*
X119302838Y-120475462D01*
X119156766Y-120414957D01*
X119156758Y-120414955D01*
X119063311Y-120402653D01*
X119008086Y-120376312D01*
X118999484Y-120360469D01*
X118981958Y-120384593D01*
X118936689Y-120402653D01*
X118843241Y-120414955D01*
X118843233Y-120414957D01*
X118697161Y-120475462D01*
X118697160Y-120475462D01*
X118571723Y-120571713D01*
X118571713Y-120571723D01*
X118475462Y-120697160D01*
X118475462Y-120697161D01*
X118414957Y-120843233D01*
X118414955Y-120843241D01*
X118394318Y-120999999D01*
X118394318Y-121000000D01*
X100000000Y-121000000D01*
X100000000Y-115121289D01*
X105149500Y-115121289D01*
X105181161Y-115361781D01*
X105181161Y-115361786D01*
X105243944Y-115596092D01*
X105243948Y-115596105D01*
X105336772Y-115820204D01*
X105336774Y-115820208D01*
X105336776Y-115820212D01*
X105458064Y-116030289D01*
X105458066Y-116030292D01*
X105605729Y-116222731D01*
X105605731Y-116222733D01*
X105605735Y-116222738D01*
X105777262Y-116394265D01*
X105777266Y-116394268D01*
X105777268Y-116394270D01*
X105915056Y-116499998D01*
X105969711Y-116541936D01*
X106179788Y-116663224D01*
X106403900Y-116756054D01*
X106638211Y-116818838D01*
X106878712Y-116850500D01*
X106878713Y-116850500D01*
X107121287Y-116850500D01*
X107121288Y-116850500D01*
X107361789Y-116818838D01*
X107596100Y-116756054D01*
X107820212Y-116663224D01*
X108030289Y-116541936D01*
X108222738Y-116394265D01*
X108394265Y-116222738D01*
X108541936Y-116030289D01*
X108663224Y-115820212D01*
X108756054Y-115596100D01*
X108818838Y-115361789D01*
X108850500Y-115121288D01*
X108850500Y-115000002D01*
X110344867Y-115000002D01*
X110363302Y-115128225D01*
X110417117Y-115246061D01*
X110417118Y-115246063D01*
X110501951Y-115343967D01*
X110501952Y-115343968D01*
X110610926Y-115414001D01*
X110610931Y-115414004D01*
X110735228Y-115450500D01*
X110735230Y-115450500D01*
X110864770Y-115450500D01*
X110864772Y-115450500D01*
X110989069Y-115414004D01*
X111098049Y-115343967D01*
X111182882Y-115246063D01*
X111236697Y-115128226D01*
X111255133Y-115000000D01*
X111236697Y-114871774D01*
X111182882Y-114753937D01*
X111098049Y-114656033D01*
X111098048Y-114656032D01*
X111098047Y-114656031D01*
X110989073Y-114585998D01*
X110989070Y-114585996D01*
X110989069Y-114585996D01*
X110989066Y-114585995D01*
X110864774Y-114549500D01*
X110864772Y-114549500D01*
X110735228Y-114549500D01*
X110735225Y-114549500D01*
X110610933Y-114585995D01*
X110610926Y-114585998D01*
X110501952Y-114656031D01*
X110417117Y-114753938D01*
X110363302Y-114871774D01*
X110344867Y-114999997D01*
X110344867Y-115000002D01*
X108850500Y-115000002D01*
X108850500Y-114878712D01*
X108818838Y-114638211D01*
X108756054Y-114403900D01*
X108663224Y-114179788D01*
X108541936Y-113969711D01*
X108394265Y-113777262D01*
X108222738Y-113605735D01*
X108222733Y-113605731D01*
X108222731Y-113605729D01*
X108030292Y-113458066D01*
X108030289Y-113458064D01*
X107820212Y-113336776D01*
X107820208Y-113336774D01*
X107820204Y-113336772D01*
X107596105Y-113243948D01*
X107596104Y-113243947D01*
X107596100Y-113243946D01*
X107361789Y-113181162D01*
X107361786Y-113181161D01*
X107361784Y-113181161D01*
X107121289Y-113149500D01*
X107121288Y-113149500D01*
X106878712Y-113149500D01*
X106878710Y-113149500D01*
X106638218Y-113181161D01*
X106638213Y-113181161D01*
X106403907Y-113243944D01*
X106403894Y-113243948D01*
X106179795Y-113336772D01*
X105969707Y-113458066D01*
X105777268Y-113605729D01*
X105605729Y-113777268D01*
X105458066Y-113969707D01*
X105336772Y-114179795D01*
X105243948Y-114403894D01*
X105243944Y-114403907D01*
X105181161Y-114638213D01*
X105181161Y-114638218D01*
X105149500Y-114878710D01*
X105149500Y-115121289D01*
X100000000Y-115121289D01*
X100000000Y-110100000D01*
X105394318Y-110100000D01*
X105414955Y-110256758D01*
X105414957Y-110256766D01*
X105475462Y-110402838D01*
X105475462Y-110402839D01*
X105520014Y-110460900D01*
X105571718Y-110528282D01*
X105697159Y-110624536D01*
X105843238Y-110685044D01*
X105960809Y-110700522D01*
X105999999Y-110705682D01*
X106000000Y-110705682D01*
X106000001Y-110705682D01*
X106031352Y-110701554D01*
X106156762Y-110685044D01*
X106302841Y-110624536D01*
X106428282Y-110528282D01*
X106524536Y-110402841D01*
X106585044Y-110256762D01*
X106605682Y-110100000D01*
X106585044Y-109943238D01*
X106524537Y-109797161D01*
X106524537Y-109797160D01*
X106428286Y-109671723D01*
X106428285Y-109671722D01*
X106428282Y-109671718D01*
X106428277Y-109671714D01*
X106428276Y-109671713D01*
X106302838Y-109575462D01*
X106156766Y-109514957D01*
X106156758Y-109514955D01*
X106000001Y-109494318D01*
X105999999Y-109494318D01*
X105843241Y-109514955D01*
X105843233Y-109514957D01*
X105697161Y-109575462D01*
X105697160Y-109575462D01*
X105571723Y-109671713D01*
X105571713Y-109671723D01*
X105475462Y-109797160D01*
X105475462Y-109797161D01*
X105414957Y-109943233D01*
X105414955Y-109943241D01*
X105394318Y-110099999D01*
X105394318Y-110100000D01*
X100000000Y-110100000D01*
X100000000Y-108500000D01*
X105394318Y-108500000D01*
X105414955Y-108656758D01*
X105414957Y-108656766D01*
X105475462Y-108802838D01*
X105475462Y-108802839D01*
X105520374Y-108861369D01*
X105571718Y-108928282D01*
X105697159Y-109024536D01*
X105843238Y-109085044D01*
X105960809Y-109100522D01*
X105999999Y-109105682D01*
X106000000Y-109105682D01*
X106000001Y-109105682D01*
X106031352Y-109101554D01*
X106156762Y-109085044D01*
X106302841Y-109024536D01*
X106428282Y-108928282D01*
X106524536Y-108802841D01*
X106585044Y-108656762D01*
X106605682Y-108500000D01*
X106585044Y-108343238D01*
X106524537Y-108197161D01*
X106524537Y-108197160D01*
X106428286Y-108071723D01*
X106428285Y-108071722D01*
X106428282Y-108071718D01*
X106428277Y-108071714D01*
X106428276Y-108071713D01*
X106302838Y-107975462D01*
X106156766Y-107914957D01*
X106156758Y-107914955D01*
X106000001Y-107894318D01*
X105999999Y-107894318D01*
X105843241Y-107914955D01*
X105843233Y-107914957D01*
X105697161Y-107975462D01*
X105697160Y-107975462D01*
X105571723Y-108071713D01*
X105571713Y-108071723D01*
X105475462Y-108197160D01*
X105475462Y-108197161D01*
X105414957Y-108343233D01*
X105414955Y-108343241D01*
X105394318Y-108499999D01*
X105394318Y-108500000D01*
X100000000Y-108500000D01*
X100000000Y-106900000D01*
X101394318Y-106900000D01*
X101414955Y-107056758D01*
X101414957Y-107056766D01*
X101475462Y-107202838D01*
X101475462Y-107202839D01*
X101475464Y-107202841D01*
X101571718Y-107328282D01*
X101697159Y-107424536D01*
X101843238Y-107485044D01*
X101960809Y-107500522D01*
X101999999Y-107505682D01*
X102000000Y-107505682D01*
X102000001Y-107505682D01*
X102031352Y-107501554D01*
X102156762Y-107485044D01*
X102302841Y-107424536D01*
X102428282Y-107328282D01*
X102524536Y-107202841D01*
X102585044Y-107056762D01*
X102605682Y-106900000D01*
X106794318Y-106900000D01*
X106814955Y-107056758D01*
X106814957Y-107056766D01*
X106875462Y-107202838D01*
X106875462Y-107202839D01*
X106875464Y-107202841D01*
X106971718Y-107328282D01*
X107097159Y-107424536D01*
X107243238Y-107485044D01*
X107360809Y-107500522D01*
X107399999Y-107505682D01*
X107400000Y-107505682D01*
X107400001Y-107505682D01*
X107431352Y-107501554D01*
X107556762Y-107485044D01*
X107702841Y-107424536D01*
X107828282Y-107328282D01*
X107924536Y-107202841D01*
X107985044Y-107056762D01*
X108005682Y-106900000D01*
X107985044Y-106743238D01*
X107970413Y-106707916D01*
X107924537Y-106597161D01*
X107924537Y-106597160D01*
X107828286Y-106471723D01*
X107828285Y-106471722D01*
X107828282Y-106471718D01*
X107828277Y-106471714D01*
X107828276Y-106471713D01*
X107702838Y-106375462D01*
X107556766Y-106314957D01*
X107556758Y-106314955D01*
X107400001Y-106294318D01*
X107399999Y-106294318D01*
X107243241Y-106314955D01*
X107243233Y-106314957D01*
X107097161Y-106375462D01*
X107097160Y-106375462D01*
X106971723Y-106471713D01*
X106971713Y-106471723D01*
X106875462Y-106597160D01*
X106875462Y-106597161D01*
X106814957Y-106743233D01*
X106814955Y-106743241D01*
X106794318Y-106899999D01*
X106794318Y-106900000D01*
X102605682Y-106900000D01*
X102585044Y-106743238D01*
X102570413Y-106707916D01*
X102524537Y-106597161D01*
X102524537Y-106597160D01*
X102428286Y-106471723D01*
X102428285Y-106471722D01*
X102428282Y-106471718D01*
X102428277Y-106471714D01*
X102428276Y-106471713D01*
X102302838Y-106375462D01*
X102156766Y-106314957D01*
X102156758Y-106314955D01*
X102000001Y-106294318D01*
X101999999Y-106294318D01*
X101843241Y-106314955D01*
X101843233Y-106314957D01*
X101697161Y-106375462D01*
X101697160Y-106375462D01*
X101571723Y-106471713D01*
X101571713Y-106471723D01*
X101475462Y-106597160D01*
X101475462Y-106597161D01*
X101414957Y-106743233D01*
X101414955Y-106743241D01*
X101394318Y-106899999D01*
X101394318Y-106900000D01*
X100000000Y-106900000D01*
X100000000Y-103901000D01*
X110794500Y-103901000D01*
X110797030Y-103933143D01*
X110801883Y-103963793D01*
X110802646Y-103968281D01*
X110802647Y-103968286D01*
X110838591Y-104052382D01*
X110838592Y-104052383D01*
X110874556Y-104101883D01*
X110898797Y-104129628D01*
X110977307Y-104176536D01*
X111035498Y-104195443D01*
X111048198Y-104197454D01*
X111098996Y-104205500D01*
X111099000Y-104205500D01*
X113195499Y-104205500D01*
X113253690Y-104224407D01*
X113289654Y-104273907D01*
X113294499Y-104304500D01*
X113294500Y-105000002D01*
X113294500Y-107350002D01*
X113294500Y-107600002D01*
X113294500Y-108800002D01*
X113294500Y-110850002D01*
X113294500Y-111400002D01*
X113294500Y-112106252D01*
X113294500Y-112500002D01*
X113294500Y-113006252D01*
X113294500Y-113300002D01*
X113294500Y-113906252D01*
X113294500Y-115106252D01*
X113294500Y-116499998D01*
X113294500Y-116999998D01*
X113294500Y-117432139D01*
X113294500Y-119901000D01*
X113297030Y-119933143D01*
X113301883Y-119963793D01*
X113302646Y-119968281D01*
X113302647Y-119968286D01*
X113338591Y-120052382D01*
X113345684Y-120062144D01*
X113374556Y-120101883D01*
X113398797Y-120129628D01*
X113477307Y-120176536D01*
X113535498Y-120195443D01*
X113544351Y-120196845D01*
X113598996Y-120205500D01*
X118923767Y-120205500D01*
X118981958Y-120224407D01*
X118999510Y-120248565D01*
X119028994Y-120217497D01*
X119076233Y-120205500D01*
X129208360Y-120205500D01*
X129208367Y-120205500D01*
X129240511Y-120202970D01*
X129271104Y-120198125D01*
X129271115Y-120198123D01*
X129271160Y-120198116D01*
X129275648Y-120197353D01*
X129275647Y-120197353D01*
X129275654Y-120197352D01*
X129313575Y-120181144D01*
X129374514Y-120175659D01*
X129427038Y-120207041D01*
X129427247Y-120207281D01*
X129442087Y-120224407D01*
X129464452Y-120250218D01*
X129536024Y-120296214D01*
X129574755Y-120343580D01*
X129578249Y-120404665D01*
X129545170Y-120456138D01*
X129542769Y-120458040D01*
X129484220Y-120502966D01*
X129484213Y-120502973D01*
X129387962Y-120628410D01*
X129387962Y-120628411D01*
X129327457Y-120774483D01*
X129327455Y-120774491D01*
X129306818Y-120931249D01*
X129306818Y-120931250D01*
X129327455Y-121088008D01*
X129327457Y-121088016D01*
X129387962Y-121234088D01*
X129387962Y-121234089D01*
X129484213Y-121359526D01*
X129484218Y-121359532D01*
X129484222Y-121359535D01*
X129484223Y-121359536D01*
X129485073Y-121360188D01*
X129609659Y-121455786D01*
X129609660Y-121455786D01*
X129609661Y-121455787D01*
X129663346Y-121478024D01*
X129755738Y-121516294D01*
X129873309Y-121531772D01*
X129912499Y-121536932D01*
X129912500Y-121536932D01*
X129912501Y-121536932D01*
X129943852Y-121532804D01*
X130069262Y-121516294D01*
X130215341Y-121455786D01*
X130340782Y-121359532D01*
X130437036Y-121234091D01*
X130497544Y-121088012D01*
X130518182Y-120931250D01*
X130497544Y-120774488D01*
X130437037Y-120628411D01*
X130437037Y-120628410D01*
X130340786Y-120502973D01*
X130340785Y-120502972D01*
X130340782Y-120502968D01*
X130340777Y-120502964D01*
X130340776Y-120502963D01*
X130287397Y-120462004D01*
X130215341Y-120406714D01*
X130215339Y-120406713D01*
X130128482Y-120370735D01*
X130081956Y-120330998D01*
X130067673Y-120271503D01*
X130091088Y-120214975D01*
X130091394Y-120214618D01*
X130096910Y-120208253D01*
X130149306Y-120176660D01*
X130202317Y-120178932D01*
X130253131Y-120195443D01*
X130253132Y-120195443D01*
X130253135Y-120195444D01*
X130316629Y-120205500D01*
X130316633Y-120205500D01*
X138258696Y-120205500D01*
X138258702Y-120205500D01*
X138293506Y-120202531D01*
X138326553Y-120196852D01*
X138333721Y-120195489D01*
X138416848Y-120157356D01*
X138465390Y-120120109D01*
X138492493Y-120095149D01*
X138492496Y-120095141D01*
X138494841Y-120092180D01*
X138498000Y-120090077D01*
X138498224Y-120089871D01*
X138498256Y-120089906D01*
X138545775Y-120058277D01*
X138606909Y-120060788D01*
X138610359Y-120062142D01*
X138677096Y-120089785D01*
X138723622Y-120129521D01*
X138737906Y-120189016D01*
X138714491Y-120245544D01*
X138677097Y-120272713D01*
X138534660Y-120331713D01*
X138409223Y-120427963D01*
X138409213Y-120427973D01*
X138312962Y-120553410D01*
X138312962Y-120553411D01*
X138252457Y-120699483D01*
X138252455Y-120699491D01*
X138231818Y-120856249D01*
X138231818Y-120856250D01*
X138252455Y-121013008D01*
X138252457Y-121013016D01*
X138312962Y-121159088D01*
X138312962Y-121159089D01*
X138409213Y-121284526D01*
X138409218Y-121284532D01*
X138534659Y-121380786D01*
X138680738Y-121441294D01*
X138790816Y-121455786D01*
X138837499Y-121461932D01*
X138837500Y-121461932D01*
X138837501Y-121461932D01*
X138884176Y-121455787D01*
X138994262Y-121441294D01*
X139140341Y-121380786D01*
X139265782Y-121284532D01*
X139362036Y-121159091D01*
X139422544Y-121013012D01*
X139439347Y-120885380D01*
X139450683Y-120861612D01*
X139450497Y-120861436D01*
X139439347Y-120827119D01*
X139422544Y-120699491D01*
X139422544Y-120699488D01*
X139393103Y-120628411D01*
X139362037Y-120553411D01*
X139362037Y-120553410D01*
X139265786Y-120427973D01*
X139265785Y-120427972D01*
X139265782Y-120427968D01*
X139265777Y-120427964D01*
X139265776Y-120427963D01*
X139177815Y-120360469D01*
X139140341Y-120331714D01*
X139140339Y-120331713D01*
X138997902Y-120272713D01*
X138951376Y-120232976D01*
X138937093Y-120173481D01*
X138960508Y-120116953D01*
X138997900Y-120089786D01*
X139068129Y-120060696D01*
X139129124Y-120055896D01*
X139181293Y-120087866D01*
X139186107Y-120093973D01*
X139191848Y-120101876D01*
X139191853Y-120101882D01*
X139191854Y-120101883D01*
X139216095Y-120129628D01*
X139294605Y-120176536D01*
X139352796Y-120195443D01*
X139361649Y-120196845D01*
X139416294Y-120205500D01*
X139416298Y-120205500D01*
X139658696Y-120205500D01*
X139658702Y-120205500D01*
X139693506Y-120202531D01*
X139726553Y-120196852D01*
X139733721Y-120195489D01*
X139816848Y-120157356D01*
X139865390Y-120120109D01*
X139892493Y-120095149D01*
X139892496Y-120095141D01*
X139894841Y-120092180D01*
X139898000Y-120090077D01*
X139898224Y-120089871D01*
X139898256Y-120089906D01*
X139945775Y-120058277D01*
X140006909Y-120060788D01*
X140010359Y-120062142D01*
X140077096Y-120089785D01*
X140123622Y-120129521D01*
X140137906Y-120189016D01*
X140114491Y-120245544D01*
X140077097Y-120272713D01*
X139934660Y-120331713D01*
X139809223Y-120427963D01*
X139809213Y-120427973D01*
X139712962Y-120553410D01*
X139712962Y-120553411D01*
X139652457Y-120699483D01*
X139652455Y-120699491D01*
X139635653Y-120827119D01*
X139624316Y-120850886D01*
X139624503Y-120851063D01*
X139635653Y-120885380D01*
X139652455Y-121013008D01*
X139652457Y-121013016D01*
X139712962Y-121159088D01*
X139712962Y-121159089D01*
X139809213Y-121284526D01*
X139809218Y-121284532D01*
X139934659Y-121380786D01*
X140080738Y-121441294D01*
X140190816Y-121455786D01*
X140237499Y-121461932D01*
X140237500Y-121461932D01*
X140237501Y-121461932D01*
X140284176Y-121455787D01*
X140394262Y-121441294D01*
X140540341Y-121380786D01*
X140665782Y-121284532D01*
X140762036Y-121159091D01*
X140822544Y-121013012D01*
X140843182Y-120856250D01*
X140822544Y-120699488D01*
X140793103Y-120628411D01*
X140762037Y-120553411D01*
X140762037Y-120553410D01*
X140665786Y-120427973D01*
X140665785Y-120427972D01*
X140665782Y-120427968D01*
X140665777Y-120427964D01*
X140665776Y-120427963D01*
X140577815Y-120360469D01*
X140540341Y-120331714D01*
X140540339Y-120331713D01*
X140397902Y-120272713D01*
X140351376Y-120232976D01*
X140337093Y-120173481D01*
X140360508Y-120116953D01*
X140397900Y-120089786D01*
X140468129Y-120060696D01*
X140529124Y-120055896D01*
X140581293Y-120087866D01*
X140586107Y-120093973D01*
X140591848Y-120101876D01*
X140591853Y-120101882D01*
X140591854Y-120101883D01*
X140616095Y-120129628D01*
X140694605Y-120176536D01*
X140752796Y-120195443D01*
X140761649Y-120196845D01*
X140816294Y-120205500D01*
X140816298Y-120205500D01*
X142900993Y-120205500D01*
X142901000Y-120205500D01*
X142933144Y-120202970D01*
X142963737Y-120198125D01*
X142963748Y-120198123D01*
X142963793Y-120198116D01*
X142968281Y-120197353D01*
X142968280Y-120197353D01*
X142968287Y-120197352D01*
X143052383Y-120161408D01*
X143101883Y-120125444D01*
X143129628Y-120101203D01*
X143176536Y-120022693D01*
X143195443Y-119964502D01*
X143205500Y-119901000D01*
X143205500Y-118871401D01*
X143224407Y-118813210D01*
X143273907Y-118777246D01*
X143335093Y-118777246D01*
X143384593Y-118813210D01*
X143394553Y-118830275D01*
X143404616Y-118852310D01*
X143404617Y-118852311D01*
X143404618Y-118852313D01*
X143421158Y-118871401D01*
X143489452Y-118950218D01*
X143598426Y-119020251D01*
X143598431Y-119020254D01*
X143722728Y-119056750D01*
X143722730Y-119056750D01*
X143852270Y-119056750D01*
X143852272Y-119056750D01*
X143976569Y-119020254D01*
X144085549Y-118950217D01*
X144170382Y-118852313D01*
X144224197Y-118734476D01*
X144235372Y-118656750D01*
X144242633Y-118606252D01*
X144242633Y-118606247D01*
X144224197Y-118478024D01*
X144194973Y-118414034D01*
X144170382Y-118360187D01*
X144085549Y-118262283D01*
X144085548Y-118262282D01*
X144085547Y-118262281D01*
X143998364Y-118206252D01*
X146432367Y-118206252D01*
X146450802Y-118334475D01*
X146453827Y-118341098D01*
X146504618Y-118452313D01*
X146589451Y-118550217D01*
X146589452Y-118550218D01*
X146676640Y-118606250D01*
X146698431Y-118620254D01*
X146822728Y-118656750D01*
X146822730Y-118656750D01*
X146952270Y-118656750D01*
X146952272Y-118656750D01*
X147076569Y-118620254D01*
X147185549Y-118550217D01*
X147270382Y-118452313D01*
X147324197Y-118334476D01*
X147342633Y-118206250D01*
X147340619Y-118192245D01*
X147324197Y-118078024D01*
X147270382Y-117960188D01*
X147270382Y-117960187D01*
X147185549Y-117862283D01*
X147185548Y-117862282D01*
X147185547Y-117862281D01*
X147076573Y-117792248D01*
X147076570Y-117792246D01*
X147076569Y-117792246D01*
X147076566Y-117792245D01*
X146952274Y-117755750D01*
X146952272Y-117755750D01*
X146822728Y-117755750D01*
X146822725Y-117755750D01*
X146698433Y-117792245D01*
X146698426Y-117792248D01*
X146589452Y-117862281D01*
X146504617Y-117960188D01*
X146450802Y-118078024D01*
X146432367Y-118206247D01*
X146432367Y-118206252D01*
X143998364Y-118206252D01*
X143976573Y-118192248D01*
X143976570Y-118192246D01*
X143976569Y-118192246D01*
X143976566Y-118192245D01*
X143852274Y-118155750D01*
X143852272Y-118155750D01*
X143722728Y-118155750D01*
X143722725Y-118155750D01*
X143598433Y-118192245D01*
X143598426Y-118192248D01*
X143489452Y-118262281D01*
X143404616Y-118360188D01*
X143394553Y-118382225D01*
X143353180Y-118427303D01*
X143293213Y-118439453D01*
X143237558Y-118414034D01*
X143207472Y-118360757D01*
X143205500Y-118341098D01*
X143205500Y-115121289D01*
X145149500Y-115121289D01*
X145181161Y-115361781D01*
X145181161Y-115361786D01*
X145243944Y-115596092D01*
X145243948Y-115596105D01*
X145336772Y-115820204D01*
X145336774Y-115820208D01*
X145336776Y-115820212D01*
X145458064Y-116030289D01*
X145458066Y-116030292D01*
X145605729Y-116222731D01*
X145605731Y-116222733D01*
X145605735Y-116222738D01*
X145777262Y-116394265D01*
X145777266Y-116394268D01*
X145777268Y-116394270D01*
X145915056Y-116499998D01*
X145969711Y-116541936D01*
X146179788Y-116663224D01*
X146403900Y-116756054D01*
X146638211Y-116818838D01*
X146878712Y-116850500D01*
X146878713Y-116850500D01*
X147121287Y-116850500D01*
X147121288Y-116850500D01*
X147361789Y-116818838D01*
X147596100Y-116756054D01*
X147820212Y-116663224D01*
X148030289Y-116541936D01*
X148222738Y-116394265D01*
X148394265Y-116222738D01*
X148541936Y-116030289D01*
X148663224Y-115820212D01*
X148756054Y-115596100D01*
X148818838Y-115361789D01*
X148850500Y-115121288D01*
X148850500Y-114878712D01*
X148818838Y-114638211D01*
X148756054Y-114403900D01*
X148663224Y-114179788D01*
X148541936Y-113969711D01*
X148394265Y-113777262D01*
X148222738Y-113605735D01*
X148222733Y-113605731D01*
X148222731Y-113605729D01*
X148030292Y-113458066D01*
X148030289Y-113458064D01*
X147820212Y-113336776D01*
X147820208Y-113336774D01*
X147820204Y-113336772D01*
X147596105Y-113243948D01*
X147596104Y-113243947D01*
X147596100Y-113243946D01*
X147361789Y-113181162D01*
X147361786Y-113181161D01*
X147361784Y-113181161D01*
X147121289Y-113149500D01*
X147121288Y-113149500D01*
X146878712Y-113149500D01*
X146878710Y-113149500D01*
X146638218Y-113181161D01*
X146638213Y-113181161D01*
X146403907Y-113243944D01*
X146403894Y-113243948D01*
X146179795Y-113336772D01*
X145969707Y-113458066D01*
X145777268Y-113605729D01*
X145605729Y-113777268D01*
X145458066Y-113969707D01*
X145336772Y-114179795D01*
X145243948Y-114403894D01*
X145243944Y-114403907D01*
X145181161Y-114638213D01*
X145181161Y-114638218D01*
X145149500Y-114878710D01*
X145149500Y-115121289D01*
X143205500Y-115121289D01*
X143205500Y-110530334D01*
X143224407Y-110472143D01*
X143273907Y-110436179D01*
X143335093Y-110436179D01*
X143359502Y-110448019D01*
X143361369Y-110449267D01*
X143405831Y-110458111D01*
X143419841Y-110460898D01*
X143419846Y-110460898D01*
X143419852Y-110460900D01*
X143419853Y-110460900D01*
X144780147Y-110460900D01*
X144780148Y-110460900D01*
X144838631Y-110449267D01*
X144904952Y-110404952D01*
X144949267Y-110338631D01*
X144960900Y-110280148D01*
X144960900Y-109600000D01*
X150854358Y-109600000D01*
X150873275Y-109779982D01*
X150929195Y-109952083D01*
X150929201Y-109952097D01*
X151001085Y-110076603D01*
X151019681Y-110108812D01*
X151140772Y-110243297D01*
X151287179Y-110349668D01*
X151287184Y-110349670D01*
X151287189Y-110349673D01*
X151411354Y-110404954D01*
X151452502Y-110423274D01*
X151629516Y-110460900D01*
X151629519Y-110460900D01*
X151810481Y-110460900D01*
X151810484Y-110460900D01*
X151987498Y-110423274D01*
X152152821Y-110349668D01*
X152299228Y-110243297D01*
X152420319Y-110108812D01*
X152510803Y-109952088D01*
X152566726Y-109779977D01*
X152585642Y-109600000D01*
X152566726Y-109420023D01*
X152510803Y-109247912D01*
X152510800Y-109247907D01*
X152510798Y-109247902D01*
X152464314Y-109167390D01*
X152420319Y-109091188D01*
X152299228Y-108956703D01*
X152152821Y-108850332D01*
X152152817Y-108850330D01*
X152152810Y-108850326D01*
X151987504Y-108776728D01*
X151987499Y-108776726D01*
X151987498Y-108776726D01*
X151987495Y-108776725D01*
X151987494Y-108776725D01*
X151949217Y-108768589D01*
X151810484Y-108739100D01*
X151629516Y-108739100D01*
X151516641Y-108763092D01*
X151452505Y-108776725D01*
X151452495Y-108776728D01*
X151287189Y-108850326D01*
X151287182Y-108850330D01*
X151140770Y-108956704D01*
X151079695Y-109024536D01*
X151019681Y-109091188D01*
X151019679Y-109091190D01*
X151019679Y-109091191D01*
X150929201Y-109247902D01*
X150929195Y-109247916D01*
X150873275Y-109420017D01*
X150873274Y-109420021D01*
X150873274Y-109420023D01*
X150863296Y-109514956D01*
X150854358Y-109600000D01*
X144960900Y-109600000D01*
X144960900Y-108919852D01*
X144949267Y-108861369D01*
X144904952Y-108795048D01*
X144877532Y-108776726D01*
X144838633Y-108750734D01*
X144838631Y-108750733D01*
X144838628Y-108750732D01*
X144838627Y-108750732D01*
X144780158Y-108739101D01*
X144780148Y-108739100D01*
X143419852Y-108739100D01*
X143419851Y-108739100D01*
X143419841Y-108739101D01*
X143361372Y-108750732D01*
X143361364Y-108750735D01*
X143359499Y-108751982D01*
X143355914Y-108752992D01*
X143352358Y-108754466D01*
X143352183Y-108754044D01*
X143300610Y-108768589D01*
X143243207Y-108747410D01*
X143209216Y-108696535D01*
X143205500Y-108669665D01*
X143205500Y-107601952D01*
X143224407Y-107543761D01*
X143273907Y-107507797D01*
X143335093Y-107507797D01*
X143384593Y-107543761D01*
X143390229Y-107552441D01*
X143399681Y-107568812D01*
X143520772Y-107703297D01*
X143667179Y-107809668D01*
X143667184Y-107809670D01*
X143667189Y-107809673D01*
X143832495Y-107883271D01*
X143832502Y-107883274D01*
X144009516Y-107920900D01*
X144009519Y-107920900D01*
X144190481Y-107920900D01*
X144190484Y-107920900D01*
X144367498Y-107883274D01*
X144532821Y-107809668D01*
X144679228Y-107703297D01*
X144800319Y-107568812D01*
X144890803Y-107412088D01*
X144946726Y-107239977D01*
X144965642Y-107060000D01*
X150854358Y-107060000D01*
X150873275Y-107239982D01*
X150929195Y-107412083D01*
X150929201Y-107412097D01*
X150983233Y-107505682D01*
X151019681Y-107568812D01*
X151140772Y-107703297D01*
X151287179Y-107809668D01*
X151287184Y-107809670D01*
X151287189Y-107809673D01*
X151452495Y-107883271D01*
X151452502Y-107883274D01*
X151629516Y-107920900D01*
X151629519Y-107920900D01*
X151810481Y-107920900D01*
X151810484Y-107920900D01*
X151987498Y-107883274D01*
X152152821Y-107809668D01*
X152299228Y-107703297D01*
X152420319Y-107568812D01*
X152510803Y-107412088D01*
X152566726Y-107239977D01*
X152585642Y-107060000D01*
X152566726Y-106880023D01*
X152510803Y-106707912D01*
X152510800Y-106707907D01*
X152510798Y-106707902D01*
X152446861Y-106597161D01*
X152420319Y-106551188D01*
X152299228Y-106416703D01*
X152152821Y-106310332D01*
X152152817Y-106310330D01*
X152152810Y-106310326D01*
X151987504Y-106236728D01*
X151987499Y-106236726D01*
X151987498Y-106236726D01*
X151987495Y-106236725D01*
X151987494Y-106236725D01*
X151953828Y-106229569D01*
X151810484Y-106199100D01*
X151629516Y-106199100D01*
X151516641Y-106223092D01*
X151452505Y-106236725D01*
X151452495Y-106236728D01*
X151287189Y-106310326D01*
X151287182Y-106310330D01*
X151140770Y-106416704D01*
X151066830Y-106498823D01*
X151019681Y-106551188D01*
X151019679Y-106551190D01*
X151019679Y-106551191D01*
X150929201Y-106707902D01*
X150929195Y-106707916D01*
X150873275Y-106880017D01*
X150873274Y-106880021D01*
X150873274Y-106880023D01*
X150854699Y-107056758D01*
X150854358Y-107060000D01*
X144965642Y-107060000D01*
X144946726Y-106880023D01*
X144890803Y-106707912D01*
X144890800Y-106707907D01*
X144890798Y-106707902D01*
X144826861Y-106597161D01*
X144800319Y-106551188D01*
X144679228Y-106416703D01*
X144532821Y-106310332D01*
X144532817Y-106310330D01*
X144532810Y-106310326D01*
X144367504Y-106236728D01*
X144367499Y-106236726D01*
X144367498Y-106236726D01*
X144367495Y-106236725D01*
X144367494Y-106236725D01*
X144333828Y-106229569D01*
X144190484Y-106199100D01*
X144009516Y-106199100D01*
X143896641Y-106223092D01*
X143832505Y-106236725D01*
X143832495Y-106236728D01*
X143667189Y-106310326D01*
X143667182Y-106310330D01*
X143520770Y-106416704D01*
X143446830Y-106498823D01*
X143399681Y-106551188D01*
X143399679Y-106551190D01*
X143399679Y-106551191D01*
X143390236Y-106567547D01*
X143344767Y-106608488D01*
X143283916Y-106614884D01*
X143230928Y-106584291D01*
X143206042Y-106528395D01*
X143205500Y-106518047D01*
X143205500Y-105061952D01*
X143224407Y-105003761D01*
X143273907Y-104967797D01*
X143335093Y-104967797D01*
X143384593Y-105003761D01*
X143390229Y-105012441D01*
X143399681Y-105028812D01*
X143520772Y-105163297D01*
X143667179Y-105269668D01*
X143667184Y-105269670D01*
X143667189Y-105269673D01*
X143832495Y-105343271D01*
X143832502Y-105343274D01*
X144009516Y-105380900D01*
X144009519Y-105380900D01*
X144190481Y-105380900D01*
X144190484Y-105380900D01*
X144367498Y-105343274D01*
X144532821Y-105269668D01*
X144679228Y-105163297D01*
X144800319Y-105028812D01*
X144890803Y-104872088D01*
X144946726Y-104699977D01*
X144965642Y-104520000D01*
X150854358Y-104520000D01*
X150873275Y-104699982D01*
X150929195Y-104872083D01*
X150929201Y-104872097D01*
X150984454Y-104967797D01*
X151019681Y-105028812D01*
X151140772Y-105163297D01*
X151287179Y-105269668D01*
X151287184Y-105269670D01*
X151287189Y-105269673D01*
X151452495Y-105343271D01*
X151452502Y-105343274D01*
X151629516Y-105380900D01*
X151629519Y-105380900D01*
X151810481Y-105380900D01*
X151810484Y-105380900D01*
X151987498Y-105343274D01*
X152152821Y-105269668D01*
X152299228Y-105163297D01*
X152420319Y-105028812D01*
X152510803Y-104872088D01*
X152566726Y-104699977D01*
X152585642Y-104520000D01*
X152566726Y-104340023D01*
X152510803Y-104167912D01*
X152510800Y-104167907D01*
X152510798Y-104167902D01*
X152453401Y-104068488D01*
X152420319Y-104011188D01*
X152299228Y-103876703D01*
X152152821Y-103770332D01*
X152152817Y-103770330D01*
X152152810Y-103770326D01*
X151987504Y-103696728D01*
X151987499Y-103696726D01*
X151987498Y-103696726D01*
X151987495Y-103696725D01*
X151987494Y-103696725D01*
X151953828Y-103689569D01*
X151810484Y-103659100D01*
X151629516Y-103659100D01*
X151516641Y-103683092D01*
X151452505Y-103696725D01*
X151452495Y-103696728D01*
X151287189Y-103770326D01*
X151287182Y-103770330D01*
X151140770Y-103876704D01*
X151089953Y-103933143D01*
X151019681Y-104011188D01*
X151019679Y-104011190D01*
X151019679Y-104011191D01*
X150929201Y-104167902D01*
X150929195Y-104167916D01*
X150873275Y-104340017D01*
X150854358Y-104520000D01*
X144965642Y-104520000D01*
X144946726Y-104340023D01*
X144890803Y-104167912D01*
X144890800Y-104167907D01*
X144890798Y-104167902D01*
X144833401Y-104068488D01*
X144800319Y-104011188D01*
X144679228Y-103876703D01*
X144532821Y-103770332D01*
X144532817Y-103770330D01*
X144532810Y-103770326D01*
X144367504Y-103696728D01*
X144367499Y-103696726D01*
X144367498Y-103696726D01*
X144367495Y-103696725D01*
X144367494Y-103696725D01*
X144333828Y-103689569D01*
X144190484Y-103659100D01*
X144009516Y-103659100D01*
X143896641Y-103683092D01*
X143832505Y-103696725D01*
X143832495Y-103696728D01*
X143667189Y-103770326D01*
X143667182Y-103770330D01*
X143520770Y-103876704D01*
X143469953Y-103933143D01*
X143399681Y-104011188D01*
X143399679Y-104011190D01*
X143399679Y-104011191D01*
X143390236Y-104027547D01*
X143344767Y-104068488D01*
X143283916Y-104074884D01*
X143230928Y-104044291D01*
X143206042Y-103988395D01*
X143205500Y-103978047D01*
X143205500Y-102521952D01*
X143224407Y-102463761D01*
X143273907Y-102427797D01*
X143335093Y-102427797D01*
X143384593Y-102463761D01*
X143390229Y-102472441D01*
X143399681Y-102488812D01*
X143520772Y-102623297D01*
X143667179Y-102729668D01*
X143667184Y-102729670D01*
X143667189Y-102729673D01*
X143832495Y-102803271D01*
X143832502Y-102803274D01*
X144009516Y-102840900D01*
X144009519Y-102840900D01*
X144190481Y-102840900D01*
X144190484Y-102840900D01*
X144367498Y-102803274D01*
X144532821Y-102729668D01*
X144679228Y-102623297D01*
X144800319Y-102488812D01*
X144890803Y-102332088D01*
X144946726Y-102159977D01*
X144965642Y-101980000D01*
X150854358Y-101980000D01*
X150873275Y-102159982D01*
X150929195Y-102332083D01*
X150929201Y-102332097D01*
X150984454Y-102427797D01*
X151019681Y-102488812D01*
X151140772Y-102623297D01*
X151287179Y-102729668D01*
X151287184Y-102729670D01*
X151287189Y-102729673D01*
X151452495Y-102803271D01*
X151452502Y-102803274D01*
X151629516Y-102840900D01*
X151629519Y-102840900D01*
X151810481Y-102840900D01*
X151810484Y-102840900D01*
X151987498Y-102803274D01*
X152152821Y-102729668D01*
X152299228Y-102623297D01*
X152420319Y-102488812D01*
X152510803Y-102332088D01*
X152566726Y-102159977D01*
X152585642Y-101980000D01*
X152566726Y-101800023D01*
X152510803Y-101627912D01*
X152510800Y-101627907D01*
X152510798Y-101627902D01*
X152453401Y-101528488D01*
X152420319Y-101471188D01*
X152299228Y-101336703D01*
X152152821Y-101230332D01*
X152152817Y-101230330D01*
X152152810Y-101230326D01*
X151987504Y-101156728D01*
X151987499Y-101156726D01*
X151987498Y-101156726D01*
X151987495Y-101156725D01*
X151987494Y-101156725D01*
X151953828Y-101149569D01*
X151810484Y-101119100D01*
X151629516Y-101119100D01*
X151516641Y-101143092D01*
X151452505Y-101156725D01*
X151452495Y-101156728D01*
X151287189Y-101230326D01*
X151287182Y-101230330D01*
X151140770Y-101336704D01*
X151066830Y-101418823D01*
X151019681Y-101471188D01*
X151019679Y-101471190D01*
X151019679Y-101471191D01*
X150929201Y-101627902D01*
X150929195Y-101627916D01*
X150873275Y-101800017D01*
X150873274Y-101800021D01*
X150873274Y-101800023D01*
X150854358Y-101980000D01*
X144965642Y-101980000D01*
X144946726Y-101800023D01*
X144890803Y-101627912D01*
X144890800Y-101627907D01*
X144890798Y-101627902D01*
X144833401Y-101528488D01*
X144800319Y-101471188D01*
X144679228Y-101336703D01*
X144532821Y-101230332D01*
X144532817Y-101230330D01*
X144532810Y-101230326D01*
X144367504Y-101156728D01*
X144367499Y-101156726D01*
X144367498Y-101156726D01*
X144367495Y-101156725D01*
X144367494Y-101156725D01*
X144333828Y-101149569D01*
X144190484Y-101119100D01*
X144009516Y-101119100D01*
X143896641Y-101143092D01*
X143832505Y-101156725D01*
X143832495Y-101156728D01*
X143667189Y-101230326D01*
X143667182Y-101230330D01*
X143520770Y-101336704D01*
X143446830Y-101418823D01*
X143399681Y-101471188D01*
X143399679Y-101471190D01*
X143399679Y-101471191D01*
X143390236Y-101487547D01*
X143344767Y-101528488D01*
X143283916Y-101534884D01*
X143230928Y-101504291D01*
X143206042Y-101448395D01*
X143205500Y-101438047D01*
X143205500Y-101099006D01*
X143205500Y-101099000D01*
X143202970Y-101066856D01*
X143198125Y-101036263D01*
X143198116Y-101036206D01*
X143197353Y-101031714D01*
X143197352Y-101031713D01*
X143161408Y-100947617D01*
X143134277Y-100910275D01*
X143125444Y-100898117D01*
X143101203Y-100870372D01*
X143022693Y-100823464D01*
X143022691Y-100823463D01*
X143022689Y-100823462D01*
X142964499Y-100804556D01*
X142964500Y-100804556D01*
X142901003Y-100794500D01*
X142901000Y-100794500D01*
X111099000Y-100794500D01*
X111066856Y-100797030D01*
X111036206Y-100801883D01*
X111031718Y-100802646D01*
X111031713Y-100802647D01*
X110947617Y-100838591D01*
X110898118Y-100874555D01*
X110870372Y-100898797D01*
X110823464Y-100977307D01*
X110823462Y-100977310D01*
X110804556Y-101035499D01*
X110794500Y-101098996D01*
X110794500Y-101099000D01*
X110794500Y-102732001D01*
X110794500Y-103400002D01*
X110794500Y-103901000D01*
X100000000Y-103901000D01*
X100000000Y-101200000D01*
X101794318Y-101200000D01*
X101814955Y-101356758D01*
X101814957Y-101356766D01*
X101875462Y-101502838D01*
X101875462Y-101502839D01*
X101900051Y-101534884D01*
X101971718Y-101628282D01*
X102097159Y-101724536D01*
X102243238Y-101785044D01*
X102356970Y-101800017D01*
X102399999Y-101805682D01*
X102400000Y-101805682D01*
X102400001Y-101805682D01*
X102431352Y-101801554D01*
X102556762Y-101785044D01*
X102702841Y-101724536D01*
X102828282Y-101628282D01*
X102924536Y-101502841D01*
X102985044Y-101356762D01*
X103005682Y-101200000D01*
X106794318Y-101200000D01*
X106814955Y-101356758D01*
X106814957Y-101356766D01*
X106875462Y-101502838D01*
X106875462Y-101502839D01*
X106900051Y-101534884D01*
X106971718Y-101628282D01*
X107097159Y-101724536D01*
X107243238Y-101785044D01*
X107356970Y-101800017D01*
X107399999Y-101805682D01*
X107400000Y-101805682D01*
X107400001Y-101805682D01*
X107431352Y-101801554D01*
X107556762Y-101785044D01*
X107702841Y-101724536D01*
X107828282Y-101628282D01*
X107924536Y-101502841D01*
X107985044Y-101356762D01*
X108005682Y-101200000D01*
X107985044Y-101043238D01*
X107957736Y-100977310D01*
X107924537Y-100897161D01*
X107924537Y-100897160D01*
X107828286Y-100771723D01*
X107828285Y-100771722D01*
X107828282Y-100771718D01*
X107828277Y-100771714D01*
X107828276Y-100771713D01*
X107702838Y-100675462D01*
X107556766Y-100614957D01*
X107556758Y-100614955D01*
X107400001Y-100594318D01*
X107399999Y-100594318D01*
X107243241Y-100614955D01*
X107243233Y-100614957D01*
X107097161Y-100675462D01*
X107097160Y-100675462D01*
X106971723Y-100771713D01*
X106971713Y-100771723D01*
X106875462Y-100897160D01*
X106875462Y-100897161D01*
X106814957Y-101043233D01*
X106814955Y-101043241D01*
X106794318Y-101199999D01*
X106794318Y-101200000D01*
X103005682Y-101200000D01*
X102985044Y-101043238D01*
X102957736Y-100977310D01*
X102924537Y-100897161D01*
X102924537Y-100897160D01*
X102828286Y-100771723D01*
X102828285Y-100771722D01*
X102828282Y-100771718D01*
X102828277Y-100771714D01*
X102828276Y-100771713D01*
X102702838Y-100675462D01*
X102556766Y-100614957D01*
X102556758Y-100614955D01*
X102400001Y-100594318D01*
X102399999Y-100594318D01*
X102243241Y-100614955D01*
X102243233Y-100614957D01*
X102097161Y-100675462D01*
X102097160Y-100675462D01*
X101971723Y-100771713D01*
X101971713Y-100771723D01*
X101875462Y-100897160D01*
X101875462Y-100897161D01*
X101814957Y-101043233D01*
X101814955Y-101043241D01*
X101794318Y-101199999D01*
X101794318Y-101200000D01*
X100000000Y-101200000D01*
X100000000Y-101001200D01*
X100000030Y-100998776D01*
X100002198Y-100910275D01*
X100004070Y-100893386D01*
X100017978Y-100823464D01*
X100038843Y-100718568D01*
X100044472Y-100700012D01*
X100112216Y-100536464D01*
X100121357Y-100519362D01*
X100219704Y-100372176D01*
X100232007Y-100357183D01*
X100357183Y-100232007D01*
X100372176Y-100219704D01*
X100519362Y-100121357D01*
X100536464Y-100112216D01*
X100700012Y-100044472D01*
X100718568Y-100038843D01*
X100893386Y-100004070D01*
X100910274Y-100002198D01*
X100981014Y-100000465D01*
X100998776Y-100000030D01*
X101001200Y-100000000D01*
X152998800Y-100000000D01*
X153001224Y-100000030D01*
G37*
%TD.AperFunction*%
%TD*%
%TA.AperFunction,Conductor*%
%TO.N,VBUS*%
G36*
X142959191Y-101018907D02*
G01*
X142995155Y-101068407D01*
X143000000Y-101099000D01*
X143000000Y-119901000D01*
X142981093Y-119959191D01*
X142931593Y-119995155D01*
X142901000Y-120000000D01*
X140816298Y-120000000D01*
X140758107Y-119981093D01*
X140722143Y-119931593D01*
X140722143Y-119870407D01*
X140737756Y-119840733D01*
X140762036Y-119809091D01*
X140822544Y-119663012D01*
X140843182Y-119506250D01*
X140822544Y-119349488D01*
X140762037Y-119203411D01*
X140762037Y-119203410D01*
X140665786Y-119077973D01*
X140665785Y-119077972D01*
X140665782Y-119077968D01*
X140665777Y-119077964D01*
X140665776Y-119077963D01*
X140540338Y-118981712D01*
X140394266Y-118921207D01*
X140394258Y-118921205D01*
X140237501Y-118900568D01*
X140237499Y-118900568D01*
X140080741Y-118921205D01*
X140080733Y-118921207D01*
X139934661Y-118981712D01*
X139934660Y-118981712D01*
X139809223Y-119077963D01*
X139809213Y-119077973D01*
X139712962Y-119203410D01*
X139712962Y-119203411D01*
X139652457Y-119349483D01*
X139652455Y-119349491D01*
X139635653Y-119477119D01*
X139624316Y-119500886D01*
X139624503Y-119501063D01*
X139635653Y-119535380D01*
X139652455Y-119663008D01*
X139652457Y-119663016D01*
X139712962Y-119809088D01*
X139737244Y-119840733D01*
X139757668Y-119898408D01*
X139740291Y-119957074D01*
X139691749Y-119994321D01*
X139658702Y-120000000D01*
X139416298Y-120000000D01*
X139358107Y-119981093D01*
X139322143Y-119931593D01*
X139322143Y-119870407D01*
X139337756Y-119840733D01*
X139362036Y-119809091D01*
X139422544Y-119663012D01*
X139439347Y-119535380D01*
X139450683Y-119511612D01*
X139450497Y-119511436D01*
X139439347Y-119477119D01*
X139422544Y-119349491D01*
X139422544Y-119349488D01*
X139362037Y-119203411D01*
X139362037Y-119203410D01*
X139265786Y-119077973D01*
X139265785Y-119077972D01*
X139265782Y-119077968D01*
X139265777Y-119077964D01*
X139265776Y-119077963D01*
X139140338Y-118981712D01*
X138994266Y-118921207D01*
X138994258Y-118921205D01*
X138837501Y-118900568D01*
X138837499Y-118900568D01*
X138680741Y-118921205D01*
X138680733Y-118921207D01*
X138534661Y-118981712D01*
X138534660Y-118981712D01*
X138409223Y-119077963D01*
X138409213Y-119077973D01*
X138312962Y-119203410D01*
X138312962Y-119203411D01*
X138252457Y-119349483D01*
X138252455Y-119349491D01*
X138231818Y-119506249D01*
X138231818Y-119506250D01*
X138252455Y-119663008D01*
X138252457Y-119663016D01*
X138312962Y-119809088D01*
X138337244Y-119840733D01*
X138357668Y-119898408D01*
X138340291Y-119957074D01*
X138291749Y-119994321D01*
X138258702Y-120000000D01*
X130316633Y-120000000D01*
X130258442Y-119981093D01*
X130222478Y-119931593D01*
X130219553Y-119913126D01*
X130218641Y-119913258D01*
X130199197Y-119778024D01*
X130145382Y-119660188D01*
X130145382Y-119660187D01*
X130060549Y-119562283D01*
X130060548Y-119562282D01*
X130060547Y-119562281D01*
X129951573Y-119492248D01*
X129951570Y-119492246D01*
X129951569Y-119492246D01*
X129951566Y-119492245D01*
X129827274Y-119455750D01*
X129827272Y-119455750D01*
X129697728Y-119455750D01*
X129697725Y-119455750D01*
X129573433Y-119492245D01*
X129573426Y-119492248D01*
X129464452Y-119562281D01*
X129379617Y-119660188D01*
X129325802Y-119778024D01*
X129306359Y-119913258D01*
X129303516Y-119912849D01*
X129288460Y-119959191D01*
X129238960Y-119995155D01*
X129208367Y-120000000D01*
X113599000Y-120000000D01*
X113540809Y-119981093D01*
X113504845Y-119931593D01*
X113500000Y-119901000D01*
X113500000Y-117000000D01*
X115394318Y-117000000D01*
X115414955Y-117156758D01*
X115414957Y-117156766D01*
X115475462Y-117302838D01*
X115475462Y-117302839D01*
X115555195Y-117406749D01*
X115571718Y-117428282D01*
X115571722Y-117428285D01*
X115571723Y-117428286D01*
X115601082Y-117450813D01*
X115697159Y-117524536D01*
X115843238Y-117585044D01*
X115960809Y-117600522D01*
X115999999Y-117605682D01*
X116000000Y-117605682D01*
X116000001Y-117605682D01*
X116031352Y-117601554D01*
X116156762Y-117585044D01*
X116302841Y-117524536D01*
X116423255Y-117432139D01*
X134332581Y-117432139D01*
X134351016Y-117560362D01*
X134404831Y-117678198D01*
X134404832Y-117678200D01*
X134489665Y-117776104D01*
X134489666Y-117776105D01*
X134598640Y-117846138D01*
X134598645Y-117846141D01*
X134722942Y-117882637D01*
X134722944Y-117882637D01*
X134852484Y-117882637D01*
X134852486Y-117882637D01*
X134976783Y-117846141D01*
X135085763Y-117776104D01*
X135170596Y-117678200D01*
X135224411Y-117560363D01*
X135242847Y-117432137D01*
X135242293Y-117428286D01*
X135224411Y-117303911D01*
X135170596Y-117186075D01*
X135170596Y-117186074D01*
X135085763Y-117088170D01*
X135085762Y-117088169D01*
X135085761Y-117088168D01*
X134976787Y-117018135D01*
X134976784Y-117018133D01*
X134976783Y-117018133D01*
X134976780Y-117018132D01*
X134852488Y-116981637D01*
X134852486Y-116981637D01*
X134722942Y-116981637D01*
X134722939Y-116981637D01*
X134598647Y-117018132D01*
X134598640Y-117018135D01*
X134489666Y-117088168D01*
X134404831Y-117186075D01*
X134351016Y-117303911D01*
X134332581Y-117432134D01*
X134332581Y-117432139D01*
X116423255Y-117432139D01*
X116428282Y-117428282D01*
X116524536Y-117302841D01*
X116585044Y-117156762D01*
X116605682Y-117000000D01*
X116603264Y-116981637D01*
X116585044Y-116843241D01*
X116585044Y-116843238D01*
X116529933Y-116710188D01*
X116524537Y-116697161D01*
X116524537Y-116697160D01*
X116428286Y-116571723D01*
X116428285Y-116571722D01*
X116428282Y-116571718D01*
X116428277Y-116571714D01*
X116428276Y-116571713D01*
X116357104Y-116517101D01*
X116334817Y-116500000D01*
X122894318Y-116500000D01*
X122914955Y-116656758D01*
X122914957Y-116656766D01*
X122975462Y-116802838D01*
X122975462Y-116802839D01*
X123071713Y-116928276D01*
X123071718Y-116928282D01*
X123197159Y-117024536D01*
X123343238Y-117085044D01*
X123460809Y-117100522D01*
X123499999Y-117105682D01*
X123500000Y-117105682D01*
X123500001Y-117105682D01*
X123531352Y-117101554D01*
X123656762Y-117085044D01*
X123802841Y-117024536D01*
X123891831Y-116956252D01*
X140082367Y-116956252D01*
X140100802Y-117084475D01*
X140133813Y-117156758D01*
X140154618Y-117202313D01*
X140239451Y-117300217D01*
X140239452Y-117300218D01*
X140348426Y-117370251D01*
X140348431Y-117370254D01*
X140472728Y-117406750D01*
X140472730Y-117406750D01*
X140602270Y-117406750D01*
X140602272Y-117406750D01*
X140726569Y-117370254D01*
X140835549Y-117300217D01*
X140920382Y-117202313D01*
X140974197Y-117084476D01*
X140992633Y-116956250D01*
X140988612Y-116928286D01*
X140974197Y-116828024D01*
X140920382Y-116710188D01*
X140920382Y-116710187D01*
X140835549Y-116612283D01*
X140835548Y-116612282D01*
X140835547Y-116612281D01*
X140726573Y-116542248D01*
X140726570Y-116542246D01*
X140726569Y-116542246D01*
X140726566Y-116542245D01*
X140602274Y-116505750D01*
X140602272Y-116505750D01*
X140472728Y-116505750D01*
X140472725Y-116505750D01*
X140348433Y-116542245D01*
X140348426Y-116542248D01*
X140239452Y-116612281D01*
X140154617Y-116710188D01*
X140100802Y-116828024D01*
X140082367Y-116956247D01*
X140082367Y-116956252D01*
X123891831Y-116956252D01*
X123928282Y-116928282D01*
X124024536Y-116802841D01*
X124085044Y-116656762D01*
X124105682Y-116500000D01*
X124085044Y-116343238D01*
X124024537Y-116197161D01*
X124024537Y-116197160D01*
X123928286Y-116071723D01*
X123928285Y-116071722D01*
X123928282Y-116071718D01*
X123928277Y-116071714D01*
X123928276Y-116071713D01*
X123802838Y-115975462D01*
X123656766Y-115914957D01*
X123656758Y-115914955D01*
X123500001Y-115894318D01*
X123499999Y-115894318D01*
X123343241Y-115914955D01*
X123343233Y-115914957D01*
X123197161Y-115975462D01*
X123197160Y-115975462D01*
X123071723Y-116071713D01*
X123071713Y-116071723D01*
X122975462Y-116197160D01*
X122975462Y-116197161D01*
X122914957Y-116343233D01*
X122914955Y-116343241D01*
X122894318Y-116499999D01*
X122894318Y-116500000D01*
X116334817Y-116500000D01*
X116302841Y-116475464D01*
X116302840Y-116475463D01*
X116302838Y-116475462D01*
X116156766Y-116414957D01*
X116156758Y-116414955D01*
X116000001Y-116394318D01*
X115999999Y-116394318D01*
X115843241Y-116414955D01*
X115843233Y-116414957D01*
X115697161Y-116475462D01*
X115697160Y-116475462D01*
X115571723Y-116571713D01*
X115571713Y-116571723D01*
X115475462Y-116697160D01*
X115475462Y-116697161D01*
X115414957Y-116843233D01*
X115414955Y-116843241D01*
X115394318Y-116999999D01*
X115394318Y-117000000D01*
X113500000Y-117000000D01*
X113500000Y-115106252D01*
X129582367Y-115106252D01*
X129600802Y-115234475D01*
X129650806Y-115343967D01*
X129654618Y-115352313D01*
X129708073Y-115414004D01*
X129739452Y-115450218D01*
X129739891Y-115450500D01*
X129848431Y-115520254D01*
X129972728Y-115556750D01*
X129972730Y-115556750D01*
X130102270Y-115556750D01*
X130102272Y-115556750D01*
X130226569Y-115520254D01*
X130335549Y-115450217D01*
X130420382Y-115352313D01*
X130474197Y-115234476D01*
X130480342Y-115191734D01*
X130492633Y-115106252D01*
X130492633Y-115106247D01*
X130474197Y-114978024D01*
X130420382Y-114860187D01*
X130335549Y-114762283D01*
X130335548Y-114762282D01*
X130335547Y-114762281D01*
X130226573Y-114692248D01*
X130226570Y-114692246D01*
X130226569Y-114692246D01*
X130226566Y-114692245D01*
X130102274Y-114655750D01*
X130102272Y-114655750D01*
X129972728Y-114655750D01*
X129972725Y-114655750D01*
X129848433Y-114692245D01*
X129848426Y-114692248D01*
X129739452Y-114762281D01*
X129654617Y-114860188D01*
X129600802Y-114978024D01*
X129582367Y-115106247D01*
X129582367Y-115106252D01*
X113500000Y-115106252D01*
X113500000Y-113906252D01*
X131432367Y-113906252D01*
X131450802Y-114034475D01*
X131493617Y-114128225D01*
X131504618Y-114152313D01*
X131585850Y-114246061D01*
X131589452Y-114250218D01*
X131698426Y-114320251D01*
X131698431Y-114320254D01*
X131822728Y-114356750D01*
X131822730Y-114356750D01*
X131952270Y-114356750D01*
X131952272Y-114356750D01*
X132076569Y-114320254D01*
X132185549Y-114250217D01*
X132270382Y-114152313D01*
X132324197Y-114034476D01*
X132329154Y-114000002D01*
X134544867Y-114000002D01*
X134563302Y-114128225D01*
X134574302Y-114152311D01*
X134617118Y-114246063D01*
X134681404Y-114320254D01*
X134701952Y-114343968D01*
X134810926Y-114414001D01*
X134810931Y-114414004D01*
X134935228Y-114450500D01*
X134935230Y-114450500D01*
X135064770Y-114450500D01*
X135064772Y-114450500D01*
X135189069Y-114414004D01*
X135298049Y-114343967D01*
X135382882Y-114246063D01*
X135436697Y-114128226D01*
X135455133Y-114000000D01*
X135441653Y-113906247D01*
X135436697Y-113871774D01*
X135382882Y-113753938D01*
X135382882Y-113753937D01*
X135298049Y-113656033D01*
X135298048Y-113656032D01*
X135298047Y-113656031D01*
X135189073Y-113585998D01*
X135189070Y-113585996D01*
X135189069Y-113585996D01*
X135189066Y-113585995D01*
X135064774Y-113549500D01*
X135064772Y-113549500D01*
X134935228Y-113549500D01*
X134935225Y-113549500D01*
X134810933Y-113585995D01*
X134810926Y-113585998D01*
X134701952Y-113656031D01*
X134617117Y-113753938D01*
X134563302Y-113871774D01*
X134544867Y-113999997D01*
X134544867Y-114000002D01*
X132329154Y-114000002D01*
X132342633Y-113906250D01*
X132324197Y-113778024D01*
X132270382Y-113660187D01*
X132185549Y-113562283D01*
X132185548Y-113562282D01*
X132185547Y-113562281D01*
X132076573Y-113492248D01*
X132076570Y-113492246D01*
X132076569Y-113492246D01*
X132076566Y-113492245D01*
X131952274Y-113455750D01*
X131952272Y-113455750D01*
X131822728Y-113455750D01*
X131822725Y-113455750D01*
X131698433Y-113492245D01*
X131698426Y-113492248D01*
X131589452Y-113562281D01*
X131504617Y-113660188D01*
X131450802Y-113778024D01*
X131432367Y-113906247D01*
X131432367Y-113906252D01*
X113500000Y-113906252D01*
X113500000Y-113300002D01*
X120044867Y-113300002D01*
X120063302Y-113428225D01*
X120092540Y-113492245D01*
X120117118Y-113546063D01*
X120201951Y-113643967D01*
X120201952Y-113643968D01*
X120227191Y-113660188D01*
X120310931Y-113714004D01*
X120435228Y-113750500D01*
X120435230Y-113750500D01*
X120564770Y-113750500D01*
X120564772Y-113750500D01*
X120689069Y-113714004D01*
X120798049Y-113643967D01*
X120882882Y-113546063D01*
X120936697Y-113428226D01*
X120955133Y-113300002D01*
X121744867Y-113300002D01*
X121763302Y-113428225D01*
X121792540Y-113492245D01*
X121817118Y-113546063D01*
X121901951Y-113643967D01*
X121901952Y-113643968D01*
X121927191Y-113660188D01*
X122010931Y-113714004D01*
X122135228Y-113750500D01*
X122135230Y-113750500D01*
X122264770Y-113750500D01*
X122264772Y-113750500D01*
X122389069Y-113714004D01*
X122498049Y-113643967D01*
X122582882Y-113546063D01*
X122636697Y-113428226D01*
X122655133Y-113300000D01*
X122648276Y-113252311D01*
X122636697Y-113171774D01*
X122582882Y-113053938D01*
X122582882Y-113053937D01*
X122541563Y-113006252D01*
X135932367Y-113006252D01*
X135950802Y-113134475D01*
X136004617Y-113252311D01*
X136004618Y-113252313D01*
X136089451Y-113350217D01*
X136089452Y-113350218D01*
X136198426Y-113420251D01*
X136198431Y-113420254D01*
X136322728Y-113456750D01*
X136322730Y-113456750D01*
X136452270Y-113456750D01*
X136452272Y-113456750D01*
X136576569Y-113420254D01*
X136685549Y-113350217D01*
X136770382Y-113252313D01*
X136824197Y-113134476D01*
X136842633Y-113006250D01*
X136834617Y-112950500D01*
X136824197Y-112878024D01*
X136808644Y-112843968D01*
X136770382Y-112760187D01*
X136685549Y-112662283D01*
X136685548Y-112662282D01*
X136685547Y-112662281D01*
X136576573Y-112592248D01*
X136576570Y-112592246D01*
X136576569Y-112592246D01*
X136576566Y-112592245D01*
X136452274Y-112555750D01*
X136452272Y-112555750D01*
X136322728Y-112555750D01*
X136322725Y-112555750D01*
X136198433Y-112592245D01*
X136198426Y-112592248D01*
X136089452Y-112662281D01*
X136004617Y-112760188D01*
X135950802Y-112878024D01*
X135932367Y-113006247D01*
X135932367Y-113006252D01*
X122541563Y-113006252D01*
X122498049Y-112956033D01*
X122498048Y-112956032D01*
X122498047Y-112956031D01*
X122389073Y-112885998D01*
X122389070Y-112885996D01*
X122389069Y-112885996D01*
X122389066Y-112885995D01*
X122264774Y-112849500D01*
X122264772Y-112849500D01*
X122135228Y-112849500D01*
X122135225Y-112849500D01*
X122010933Y-112885995D01*
X122010926Y-112885998D01*
X121901952Y-112956031D01*
X121817117Y-113053938D01*
X121763302Y-113171774D01*
X121744867Y-113299997D01*
X121744867Y-113300002D01*
X120955133Y-113300002D01*
X120955133Y-113300000D01*
X120948276Y-113252311D01*
X120936697Y-113171774D01*
X120882882Y-113053938D01*
X120882882Y-113053937D01*
X120798049Y-112956033D01*
X120798048Y-112956032D01*
X120798047Y-112956031D01*
X120689073Y-112885998D01*
X120689070Y-112885996D01*
X120689069Y-112885996D01*
X120689066Y-112885995D01*
X120564774Y-112849500D01*
X120564772Y-112849500D01*
X120435228Y-112849500D01*
X120435225Y-112849500D01*
X120310933Y-112885995D01*
X120310926Y-112885998D01*
X120201952Y-112956031D01*
X120117117Y-113053938D01*
X120063302Y-113171774D01*
X120044867Y-113299997D01*
X120044867Y-113300002D01*
X113500000Y-113300002D01*
X113500000Y-112500002D01*
X118044867Y-112500002D01*
X118063302Y-112628225D01*
X118078856Y-112662283D01*
X118117118Y-112746063D01*
X118201951Y-112843967D01*
X118201952Y-112843968D01*
X118310926Y-112914001D01*
X118310931Y-112914004D01*
X118435228Y-112950500D01*
X118435230Y-112950500D01*
X118564770Y-112950500D01*
X118564772Y-112950500D01*
X118689069Y-112914004D01*
X118798049Y-112843967D01*
X118882882Y-112746063D01*
X118936697Y-112628226D01*
X118946974Y-112556749D01*
X118955133Y-112500002D01*
X118955133Y-112499997D01*
X118936697Y-112371774D01*
X118882882Y-112253938D01*
X118882882Y-112253937D01*
X118798049Y-112156033D01*
X118798048Y-112156032D01*
X118798047Y-112156031D01*
X118720589Y-112106252D01*
X138432367Y-112106252D01*
X138450802Y-112234475D01*
X138459691Y-112253938D01*
X138504618Y-112352313D01*
X138521481Y-112371774D01*
X138589452Y-112450218D01*
X138666910Y-112499997D01*
X138698431Y-112520254D01*
X138822728Y-112556750D01*
X138822730Y-112556750D01*
X138952270Y-112556750D01*
X138952272Y-112556750D01*
X139076569Y-112520254D01*
X139185549Y-112450217D01*
X139270382Y-112352313D01*
X139324197Y-112234476D01*
X139342633Y-112106252D01*
X140032367Y-112106252D01*
X140050802Y-112234475D01*
X140059691Y-112253938D01*
X140104618Y-112352313D01*
X140121481Y-112371774D01*
X140189452Y-112450218D01*
X140266910Y-112499997D01*
X140298431Y-112520254D01*
X140422728Y-112556750D01*
X140422730Y-112556750D01*
X140552270Y-112556750D01*
X140552272Y-112556750D01*
X140676569Y-112520254D01*
X140785549Y-112450217D01*
X140870382Y-112352313D01*
X140924197Y-112234476D01*
X140942633Y-112106252D01*
X141632367Y-112106252D01*
X141650802Y-112234475D01*
X141659691Y-112253938D01*
X141704618Y-112352313D01*
X141721481Y-112371774D01*
X141789452Y-112450218D01*
X141866910Y-112499997D01*
X141898431Y-112520254D01*
X142022728Y-112556750D01*
X142022730Y-112556750D01*
X142152270Y-112556750D01*
X142152272Y-112556750D01*
X142276569Y-112520254D01*
X142385549Y-112450217D01*
X142470382Y-112352313D01*
X142524197Y-112234476D01*
X142542633Y-112106250D01*
X142539721Y-112085998D01*
X142524197Y-111978024D01*
X142470382Y-111860188D01*
X142470382Y-111860187D01*
X142385549Y-111762283D01*
X142385548Y-111762282D01*
X142385547Y-111762281D01*
X142276573Y-111692248D01*
X142276570Y-111692246D01*
X142276569Y-111692246D01*
X142276566Y-111692245D01*
X142152274Y-111655750D01*
X142152272Y-111655750D01*
X142022728Y-111655750D01*
X142022725Y-111655750D01*
X141898433Y-111692245D01*
X141898426Y-111692248D01*
X141789452Y-111762281D01*
X141704617Y-111860188D01*
X141650802Y-111978024D01*
X141632367Y-112106247D01*
X141632367Y-112106252D01*
X140942633Y-112106252D01*
X140942633Y-112106250D01*
X140939721Y-112085998D01*
X140924197Y-111978024D01*
X140870382Y-111860188D01*
X140870382Y-111860187D01*
X140785549Y-111762283D01*
X140785548Y-111762282D01*
X140785547Y-111762281D01*
X140676573Y-111692248D01*
X140676570Y-111692246D01*
X140676569Y-111692246D01*
X140676566Y-111692245D01*
X140552274Y-111655750D01*
X140552272Y-111655750D01*
X140422728Y-111655750D01*
X140422725Y-111655750D01*
X140298433Y-111692245D01*
X140298426Y-111692248D01*
X140189452Y-111762281D01*
X140104617Y-111860188D01*
X140050802Y-111978024D01*
X140032367Y-112106247D01*
X140032367Y-112106252D01*
X139342633Y-112106252D01*
X139342633Y-112106250D01*
X139339721Y-112085998D01*
X139324197Y-111978024D01*
X139270382Y-111860188D01*
X139270382Y-111860187D01*
X139185549Y-111762283D01*
X139185548Y-111762282D01*
X139185547Y-111762281D01*
X139076573Y-111692248D01*
X139076570Y-111692246D01*
X139076569Y-111692246D01*
X139076566Y-111692245D01*
X138952274Y-111655750D01*
X138952272Y-111655750D01*
X138822728Y-111655750D01*
X138822725Y-111655750D01*
X138698433Y-111692245D01*
X138698426Y-111692248D01*
X138589452Y-111762281D01*
X138504617Y-111860188D01*
X138450802Y-111978024D01*
X138432367Y-112106247D01*
X138432367Y-112106252D01*
X118720589Y-112106252D01*
X118689073Y-112085998D01*
X118689070Y-112085996D01*
X118689069Y-112085996D01*
X118689066Y-112085995D01*
X118564774Y-112049500D01*
X118564772Y-112049500D01*
X118435228Y-112049500D01*
X118435225Y-112049500D01*
X118310933Y-112085995D01*
X118310926Y-112085998D01*
X118201952Y-112156031D01*
X118117117Y-112253938D01*
X118063302Y-112371774D01*
X118044867Y-112499997D01*
X118044867Y-112500002D01*
X113500000Y-112500002D01*
X113500000Y-111400002D01*
X123444867Y-111400002D01*
X123463302Y-111528225D01*
X123485948Y-111577811D01*
X123517118Y-111646063D01*
X123557137Y-111692248D01*
X123601952Y-111743968D01*
X123683011Y-111796061D01*
X123710931Y-111814004D01*
X123835228Y-111850500D01*
X123835230Y-111850500D01*
X123964770Y-111850500D01*
X123964772Y-111850500D01*
X124089069Y-111814004D01*
X124198049Y-111743967D01*
X124282882Y-111646063D01*
X124326752Y-111550002D01*
X127294867Y-111550002D01*
X127313302Y-111678225D01*
X127344141Y-111745751D01*
X127367118Y-111796063D01*
X127422681Y-111860187D01*
X127451952Y-111893968D01*
X127560926Y-111964001D01*
X127560931Y-111964004D01*
X127685228Y-112000500D01*
X127685230Y-112000500D01*
X127814770Y-112000500D01*
X127814772Y-112000500D01*
X127939069Y-111964004D01*
X128048049Y-111893967D01*
X128132882Y-111796063D01*
X128186697Y-111678226D01*
X128201134Y-111577813D01*
X128205133Y-111550002D01*
X128205133Y-111549997D01*
X128186697Y-111421774D01*
X128176752Y-111399997D01*
X128145585Y-111331752D01*
X129344867Y-111331752D01*
X129363302Y-111459975D01*
X129394472Y-111528226D01*
X129417118Y-111577813D01*
X129476256Y-111646063D01*
X129501952Y-111675718D01*
X129608150Y-111743967D01*
X129610931Y-111745754D01*
X129735228Y-111782250D01*
X129735230Y-111782250D01*
X129864770Y-111782250D01*
X129864772Y-111782250D01*
X129989069Y-111745754D01*
X130098049Y-111675717D01*
X130182882Y-111577813D01*
X130236697Y-111459976D01*
X130255133Y-111331750D01*
X130251134Y-111303938D01*
X130236697Y-111203524D01*
X130232332Y-111193967D01*
X130182882Y-111085687D01*
X130098049Y-110987783D01*
X130098048Y-110987782D01*
X130098047Y-110987781D01*
X129989073Y-110917748D01*
X129989070Y-110917746D01*
X129989069Y-110917746D01*
X129989066Y-110917745D01*
X129864774Y-110881250D01*
X129864772Y-110881250D01*
X129735228Y-110881250D01*
X129735225Y-110881250D01*
X129610933Y-110917745D01*
X129610926Y-110917748D01*
X129501952Y-110987781D01*
X129417117Y-111085688D01*
X129363302Y-111203524D01*
X129344867Y-111331747D01*
X129344867Y-111331752D01*
X128145585Y-111331752D01*
X128132882Y-111303937D01*
X128048049Y-111206033D01*
X128048048Y-111206032D01*
X128048047Y-111206031D01*
X127939073Y-111135998D01*
X127939070Y-111135996D01*
X127939069Y-111135996D01*
X127939066Y-111135995D01*
X127814774Y-111099500D01*
X127814772Y-111099500D01*
X127685228Y-111099500D01*
X127685225Y-111099500D01*
X127560933Y-111135995D01*
X127560926Y-111135998D01*
X127451952Y-111206031D01*
X127367117Y-111303938D01*
X127313302Y-111421774D01*
X127294867Y-111549997D01*
X127294867Y-111550002D01*
X124326752Y-111550002D01*
X124336697Y-111528226D01*
X124346510Y-111459975D01*
X124355133Y-111400002D01*
X124355133Y-111399997D01*
X124336697Y-111271774D01*
X124282882Y-111153937D01*
X124198049Y-111056033D01*
X124198048Y-111056032D01*
X124198047Y-111056031D01*
X124089073Y-110985998D01*
X124089070Y-110985996D01*
X124089069Y-110985996D01*
X124089066Y-110985995D01*
X123964774Y-110949500D01*
X123964772Y-110949500D01*
X123835228Y-110949500D01*
X123835225Y-110949500D01*
X123710933Y-110985995D01*
X123710926Y-110985998D01*
X123601952Y-111056031D01*
X123517117Y-111153938D01*
X123463302Y-111271774D01*
X123444867Y-111399997D01*
X123444867Y-111400002D01*
X113500000Y-111400002D01*
X113500000Y-110850002D01*
X114544867Y-110850002D01*
X114563302Y-110978225D01*
X114612379Y-111085687D01*
X114617118Y-111096063D01*
X114701951Y-111193967D01*
X114701952Y-111193968D01*
X114720726Y-111206033D01*
X114810931Y-111264004D01*
X114935228Y-111300500D01*
X114935230Y-111300500D01*
X115064770Y-111300500D01*
X115064772Y-111300500D01*
X115189069Y-111264004D01*
X115298049Y-111193967D01*
X115382882Y-111096063D01*
X115436697Y-110978226D01*
X115455133Y-110850000D01*
X115436697Y-110721774D01*
X115382882Y-110603937D01*
X115298049Y-110506033D01*
X115298048Y-110506032D01*
X115298047Y-110506031D01*
X115189073Y-110435998D01*
X115189070Y-110435996D01*
X115189069Y-110435996D01*
X115189066Y-110435995D01*
X115064774Y-110399500D01*
X115064772Y-110399500D01*
X114935228Y-110399500D01*
X114935225Y-110399500D01*
X114810933Y-110435995D01*
X114810926Y-110435998D01*
X114701952Y-110506031D01*
X114617117Y-110603938D01*
X114563302Y-110721774D01*
X114544867Y-110849997D01*
X114544867Y-110850002D01*
X113500000Y-110850002D01*
X113500000Y-108800002D01*
X120594867Y-108800002D01*
X120613302Y-108928225D01*
X120666048Y-109043720D01*
X120667118Y-109046063D01*
X120730734Y-109119481D01*
X120751952Y-109143968D01*
X120833305Y-109196250D01*
X120860931Y-109214004D01*
X120985228Y-109250500D01*
X120985230Y-109250500D01*
X121114770Y-109250500D01*
X121114772Y-109250500D01*
X121239069Y-109214004D01*
X121348049Y-109143967D01*
X121432882Y-109046063D01*
X121486697Y-108928226D01*
X121495388Y-108867778D01*
X121505133Y-108800002D01*
X121505133Y-108799997D01*
X121492058Y-108709057D01*
X122269500Y-108709057D01*
X122310423Y-108861784D01*
X122389480Y-108998716D01*
X122501284Y-109110520D01*
X122638216Y-109189577D01*
X122663124Y-109196251D01*
X122714438Y-109229574D01*
X122736365Y-109286695D01*
X122723239Y-109341374D01*
X122713720Y-109357861D01*
X122713719Y-109357865D01*
X122674500Y-109504234D01*
X122674500Y-109655766D01*
X122709086Y-109784847D01*
X122713720Y-109802139D01*
X122789481Y-109933360D01*
X122789483Y-109933362D01*
X122789485Y-109933365D01*
X122896635Y-110040515D01*
X122896637Y-110040516D01*
X122896639Y-110040518D01*
X123027861Y-110116279D01*
X123027859Y-110116279D01*
X123027863Y-110116280D01*
X123027865Y-110116281D01*
X123174234Y-110155500D01*
X123174236Y-110155500D01*
X123625764Y-110155500D01*
X123625766Y-110155500D01*
X123772135Y-110116281D01*
X123772137Y-110116279D01*
X123772139Y-110116279D01*
X123903360Y-110040518D01*
X123903360Y-110040517D01*
X123903365Y-110040515D01*
X124010515Y-109933365D01*
X124086281Y-109802135D01*
X124125500Y-109655766D01*
X130024500Y-109655766D01*
X130059086Y-109784847D01*
X130063720Y-109802139D01*
X130139481Y-109933360D01*
X130139483Y-109933362D01*
X130139485Y-109933365D01*
X130246635Y-110040515D01*
X130246637Y-110040516D01*
X130246639Y-110040518D01*
X130377861Y-110116279D01*
X130377859Y-110116279D01*
X130377863Y-110116280D01*
X130377865Y-110116281D01*
X130524234Y-110155500D01*
X130524236Y-110155500D01*
X130675764Y-110155500D01*
X130675766Y-110155500D01*
X130822135Y-110116281D01*
X130822137Y-110116279D01*
X130822139Y-110116279D01*
X130953360Y-110040518D01*
X130953360Y-110040517D01*
X130953365Y-110040515D01*
X131060515Y-109933365D01*
X131136281Y-109802135D01*
X131175500Y-109655766D01*
X131175500Y-109504234D01*
X131136281Y-109357865D01*
X131136279Y-109357861D01*
X131134937Y-109352852D01*
X131138140Y-109291750D01*
X131176645Y-109244201D01*
X131204941Y-109231602D01*
X131209054Y-109230500D01*
X131209057Y-109230500D01*
X131361784Y-109189577D01*
X131498716Y-109110520D01*
X131610520Y-108998716D01*
X131689577Y-108861784D01*
X131730500Y-108709057D01*
X131730500Y-107950943D01*
X131689577Y-107798216D01*
X131610520Y-107661284D01*
X131498716Y-107549480D01*
X131413017Y-107500002D01*
X136844867Y-107500002D01*
X136863302Y-107628225D01*
X136908972Y-107728226D01*
X136917118Y-107746063D01*
X136968176Y-107804988D01*
X137001952Y-107843968D01*
X137005209Y-107846061D01*
X137110931Y-107914004D01*
X137235228Y-107950500D01*
X137235230Y-107950500D01*
X137364770Y-107950500D01*
X137364772Y-107950500D01*
X137489069Y-107914004D01*
X137598049Y-107843967D01*
X137682882Y-107746063D01*
X137736697Y-107628226D01*
X137755133Y-107500000D01*
X137752002Y-107478226D01*
X137736697Y-107371774D01*
X137697523Y-107285996D01*
X137682882Y-107253937D01*
X137598049Y-107156033D01*
X137598048Y-107156032D01*
X137598047Y-107156031D01*
X137489073Y-107085998D01*
X137489070Y-107085996D01*
X137489069Y-107085996D01*
X137489066Y-107085995D01*
X137364774Y-107049500D01*
X137364772Y-107049500D01*
X137235228Y-107049500D01*
X137235225Y-107049500D01*
X137110933Y-107085995D01*
X137110926Y-107085998D01*
X137001952Y-107156031D01*
X136917117Y-107253938D01*
X136863302Y-107371774D01*
X136844867Y-107499997D01*
X136844867Y-107500002D01*
X131413017Y-107500002D01*
X131361784Y-107470423D01*
X131209057Y-107429500D01*
X131050943Y-107429500D01*
X130898216Y-107470423D01*
X130761284Y-107549480D01*
X130649480Y-107661284D01*
X130570423Y-107798216D01*
X130529500Y-107950943D01*
X130529500Y-108709057D01*
X130570423Y-108861784D01*
X130570424Y-108861785D01*
X130570424Y-108861786D01*
X130571086Y-108862933D01*
X130571282Y-108863859D01*
X130572906Y-108867778D01*
X130572179Y-108868078D01*
X130583803Y-108922782D01*
X130558913Y-108978676D01*
X130510969Y-109008054D01*
X130377860Y-109043720D01*
X130246639Y-109119481D01*
X130139481Y-109226639D01*
X130063720Y-109357860D01*
X130063719Y-109357865D01*
X130024500Y-109504234D01*
X130024500Y-109655766D01*
X124125500Y-109655766D01*
X124125500Y-109504234D01*
X124086281Y-109357865D01*
X124086279Y-109357861D01*
X124086279Y-109357860D01*
X124010518Y-109226639D01*
X124010516Y-109226637D01*
X124010515Y-109226635D01*
X123903365Y-109119485D01*
X123903362Y-109119483D01*
X123903360Y-109119481D01*
X123772138Y-109043720D01*
X123772140Y-109043720D01*
X123715347Y-109028503D01*
X123625766Y-109004500D01*
X123625764Y-109004500D01*
X123518626Y-109004500D01*
X123460435Y-108985593D01*
X123424471Y-108936093D01*
X123424471Y-108874907D01*
X123427162Y-108867615D01*
X123429575Y-108861789D01*
X123429576Y-108861785D01*
X123429577Y-108861784D01*
X123470500Y-108709057D01*
X123470500Y-107950943D01*
X123429577Y-107798216D01*
X123350520Y-107661284D01*
X123289238Y-107600002D01*
X126144867Y-107600002D01*
X126163302Y-107728225D01*
X126216161Y-107843967D01*
X126217118Y-107846063D01*
X126301951Y-107943967D01*
X126301952Y-107943968D01*
X126312807Y-107950944D01*
X126410931Y-108014004D01*
X126535228Y-108050500D01*
X126535230Y-108050500D01*
X126664770Y-108050500D01*
X126664772Y-108050500D01*
X126789069Y-108014004D01*
X126898049Y-107943967D01*
X126982882Y-107846063D01*
X126987111Y-107836801D01*
X127028482Y-107791724D01*
X127088448Y-107779572D01*
X127144105Y-107804988D01*
X127167218Y-107836800D01*
X127202477Y-107914004D01*
X127217118Y-107946063D01*
X127301951Y-108043967D01*
X127301952Y-108043968D01*
X127354660Y-108077841D01*
X127410931Y-108114004D01*
X127535228Y-108150500D01*
X127535230Y-108150500D01*
X127664770Y-108150500D01*
X127664772Y-108150500D01*
X127789069Y-108114004D01*
X127898049Y-108043967D01*
X127982882Y-107946063D01*
X128036697Y-107828226D01*
X128048510Y-107746063D01*
X128055133Y-107700002D01*
X128055133Y-107699997D01*
X128036697Y-107571774D01*
X127982882Y-107453937D01*
X127898049Y-107356033D01*
X127898048Y-107356032D01*
X127898047Y-107356031D01*
X127888666Y-107350002D01*
X128819867Y-107350002D01*
X128838302Y-107478225D01*
X128857575Y-107520426D01*
X128892118Y-107596063D01*
X128976951Y-107693967D01*
X128976952Y-107693968D01*
X129030259Y-107728226D01*
X129085931Y-107764004D01*
X129210228Y-107800500D01*
X129210230Y-107800500D01*
X129339770Y-107800500D01*
X129339772Y-107800500D01*
X129464069Y-107764004D01*
X129573049Y-107693967D01*
X129657882Y-107596063D01*
X129711697Y-107478226D01*
X129718703Y-107429500D01*
X129730133Y-107350002D01*
X129730133Y-107349997D01*
X129711697Y-107221774D01*
X129695358Y-107185998D01*
X129657882Y-107103937D01*
X129573049Y-107006033D01*
X129573048Y-107006032D01*
X129573047Y-107006031D01*
X129464073Y-106935998D01*
X129464070Y-106935996D01*
X129464069Y-106935996D01*
X129464066Y-106935995D01*
X129339774Y-106899500D01*
X129339772Y-106899500D01*
X129210228Y-106899500D01*
X129210225Y-106899500D01*
X129085933Y-106935995D01*
X129085926Y-106935998D01*
X128976952Y-107006031D01*
X128892117Y-107103938D01*
X128838302Y-107221774D01*
X128819867Y-107349997D01*
X128819867Y-107350002D01*
X127888666Y-107350002D01*
X127789073Y-107285998D01*
X127789070Y-107285996D01*
X127789069Y-107285996D01*
X127789066Y-107285995D01*
X127664774Y-107249500D01*
X127664772Y-107249500D01*
X127535228Y-107249500D01*
X127535225Y-107249500D01*
X127410933Y-107285995D01*
X127410926Y-107285998D01*
X127301952Y-107356031D01*
X127217115Y-107453940D01*
X127212885Y-107463203D01*
X127171510Y-107508279D01*
X127111543Y-107520426D01*
X127055888Y-107495005D01*
X127032781Y-107463199D01*
X126982882Y-107353938D01*
X126982882Y-107353937D01*
X126898049Y-107256033D01*
X126898048Y-107256032D01*
X126898047Y-107256031D01*
X126789073Y-107185998D01*
X126789070Y-107185996D01*
X126789069Y-107185996D01*
X126789066Y-107185995D01*
X126664774Y-107149500D01*
X126664772Y-107149500D01*
X126535228Y-107149500D01*
X126535225Y-107149500D01*
X126410933Y-107185995D01*
X126410926Y-107185998D01*
X126301952Y-107256031D01*
X126217117Y-107353938D01*
X126163302Y-107471774D01*
X126144867Y-107599997D01*
X126144867Y-107600002D01*
X123289238Y-107600002D01*
X123238716Y-107549480D01*
X123101784Y-107470423D01*
X122949057Y-107429500D01*
X122790943Y-107429500D01*
X122638216Y-107470423D01*
X122501284Y-107549480D01*
X122389480Y-107661284D01*
X122310423Y-107798216D01*
X122269500Y-107950943D01*
X122269500Y-108709057D01*
X121492058Y-108709057D01*
X121486697Y-108671774D01*
X121432882Y-108553938D01*
X121432882Y-108553937D01*
X121348049Y-108456033D01*
X121348048Y-108456032D01*
X121348047Y-108456031D01*
X121239073Y-108385998D01*
X121239070Y-108385996D01*
X121239069Y-108385996D01*
X121220971Y-108380682D01*
X121114774Y-108349500D01*
X121114772Y-108349500D01*
X120985228Y-108349500D01*
X120985225Y-108349500D01*
X120860933Y-108385995D01*
X120860926Y-108385998D01*
X120751952Y-108456031D01*
X120667117Y-108553938D01*
X120613302Y-108671774D01*
X120594867Y-108799997D01*
X120594867Y-108800002D01*
X113500000Y-108800002D01*
X113500000Y-105000002D01*
X136744867Y-105000002D01*
X136763302Y-105128225D01*
X136817117Y-105246061D01*
X136817118Y-105246063D01*
X136901951Y-105343967D01*
X136901952Y-105343968D01*
X137010926Y-105414001D01*
X137010931Y-105414004D01*
X137135228Y-105450500D01*
X137135230Y-105450500D01*
X137264770Y-105450500D01*
X137264772Y-105450500D01*
X137389069Y-105414004D01*
X137498049Y-105343967D01*
X137582882Y-105246063D01*
X137636697Y-105128226D01*
X137655133Y-105000000D01*
X137636697Y-104871774D01*
X137582882Y-104753937D01*
X137498049Y-104656033D01*
X137498048Y-104656032D01*
X137498047Y-104656031D01*
X137389073Y-104585998D01*
X137389070Y-104585996D01*
X137389069Y-104585996D01*
X137389066Y-104585995D01*
X137264774Y-104549500D01*
X137264772Y-104549500D01*
X137135228Y-104549500D01*
X137135225Y-104549500D01*
X137010933Y-104585995D01*
X137010926Y-104585998D01*
X136901952Y-104656031D01*
X136817117Y-104753938D01*
X136763302Y-104871774D01*
X136744867Y-104999997D01*
X136744867Y-105000002D01*
X113500000Y-105000002D01*
X113500000Y-104000001D01*
X113500000Y-104000000D01*
X113499999Y-104000000D01*
X111099000Y-104000000D01*
X111040809Y-103981093D01*
X111004845Y-103931593D01*
X111000000Y-103901000D01*
X111000000Y-103400002D01*
X136744867Y-103400002D01*
X136763302Y-103528225D01*
X136817117Y-103646061D01*
X136817118Y-103646063D01*
X136901951Y-103743967D01*
X136901952Y-103743968D01*
X137010926Y-103814001D01*
X137010931Y-103814004D01*
X137135228Y-103850500D01*
X137135230Y-103850500D01*
X137264770Y-103850500D01*
X137264772Y-103850500D01*
X137389069Y-103814004D01*
X137498049Y-103743967D01*
X137582882Y-103646063D01*
X137636697Y-103528226D01*
X137655133Y-103400000D01*
X137636697Y-103271774D01*
X137582882Y-103153937D01*
X137498049Y-103056033D01*
X137498048Y-103056032D01*
X137498047Y-103056031D01*
X137389073Y-102985998D01*
X137389070Y-102985996D01*
X137389069Y-102985996D01*
X137389066Y-102985995D01*
X137264774Y-102949500D01*
X137264772Y-102949500D01*
X137135228Y-102949500D01*
X137135225Y-102949500D01*
X137010933Y-102985995D01*
X137010926Y-102985998D01*
X136901952Y-103056031D01*
X136817117Y-103153938D01*
X136763302Y-103271774D01*
X136744867Y-103399997D01*
X136744867Y-103400002D01*
X111000000Y-103400002D01*
X111000000Y-102759057D01*
X121909500Y-102759057D01*
X121950423Y-102911784D01*
X122029480Y-103048716D01*
X122141284Y-103160520D01*
X122278216Y-103239577D01*
X122430943Y-103280500D01*
X122430945Y-103280500D01*
X122589055Y-103280500D01*
X122589057Y-103280500D01*
X122741784Y-103239577D01*
X122878716Y-103160520D01*
X122990520Y-103048716D01*
X123069577Y-102911784D01*
X123110500Y-102759057D01*
X130889500Y-102759057D01*
X130930423Y-102911784D01*
X131009480Y-103048716D01*
X131121284Y-103160520D01*
X131258216Y-103239577D01*
X131410943Y-103280500D01*
X131410945Y-103280500D01*
X131569055Y-103280500D01*
X131569057Y-103280500D01*
X131721784Y-103239577D01*
X131858716Y-103160520D01*
X131970520Y-103048716D01*
X132049577Y-102911784D01*
X132090500Y-102759057D01*
X132090500Y-102000943D01*
X132049577Y-101848216D01*
X132021741Y-101800002D01*
X136644867Y-101800002D01*
X136663302Y-101928225D01*
X136717117Y-102046061D01*
X136717118Y-102046063D01*
X136801951Y-102143967D01*
X136801952Y-102143968D01*
X136910926Y-102214001D01*
X136910931Y-102214004D01*
X137035228Y-102250500D01*
X137035230Y-102250500D01*
X137164770Y-102250500D01*
X137164772Y-102250500D01*
X137289069Y-102214004D01*
X137398049Y-102143967D01*
X137482882Y-102046063D01*
X137536697Y-101928226D01*
X137555133Y-101800000D01*
X137536697Y-101671774D01*
X137482882Y-101553937D01*
X137398049Y-101456033D01*
X137398048Y-101456032D01*
X137398047Y-101456031D01*
X137289073Y-101385998D01*
X137289070Y-101385996D01*
X137289069Y-101385996D01*
X137289066Y-101385995D01*
X137164774Y-101349500D01*
X137164772Y-101349500D01*
X137035228Y-101349500D01*
X137035225Y-101349500D01*
X136910933Y-101385995D01*
X136910926Y-101385998D01*
X136801952Y-101456031D01*
X136717117Y-101553938D01*
X136663302Y-101671774D01*
X136644867Y-101799997D01*
X136644867Y-101800002D01*
X132021741Y-101800002D01*
X131970520Y-101711284D01*
X131858716Y-101599480D01*
X131721784Y-101520423D01*
X131569057Y-101479500D01*
X131410943Y-101479500D01*
X131258216Y-101520423D01*
X131121284Y-101599480D01*
X131009480Y-101711284D01*
X130930423Y-101848216D01*
X130889500Y-102000943D01*
X130889500Y-102759057D01*
X123110500Y-102759057D01*
X123110500Y-102000943D01*
X123069577Y-101848216D01*
X122990520Y-101711284D01*
X122878716Y-101599480D01*
X122741784Y-101520423D01*
X122589057Y-101479500D01*
X122430943Y-101479500D01*
X122278216Y-101520423D01*
X122141284Y-101599480D01*
X122029480Y-101711284D01*
X121950423Y-101848216D01*
X121909500Y-102000943D01*
X121909500Y-102759057D01*
X111000000Y-102759057D01*
X111000000Y-101099000D01*
X111018907Y-101040809D01*
X111068407Y-101004845D01*
X111099000Y-101000000D01*
X142901000Y-101000000D01*
X142959191Y-101018907D01*
G37*
%TD.AperFunction*%
%TD*%
M02*
