%TF.GenerationSoftware,KiCad,Pcbnew,8.0.0*%
%TF.CreationDate,2024-03-04T20:39:57-05:00*%
%TF.ProjectId,USB C breadboard power supply,55534220-4320-4627-9265-6164626f6172,0.1*%
%TF.SameCoordinates,Original*%
%TF.FileFunction,Paste,Top*%
%TF.FilePolarity,Positive*%
%FSLAX46Y46*%
G04 Gerber Fmt 4.6, Leading zero omitted, Abs format (unit mm)*
G04 Created by KiCad (PCBNEW 8.0.0) date 2024-03-04 20:39:57*
%MOMM*%
%LPD*%
G01*
G04 APERTURE LIST*
G04 Aperture macros list*
%AMRoundRect*
0 Rectangle with rounded corners*
0 $1 Rounding radius*
0 $2 $3 $4 $5 $6 $7 $8 $9 X,Y pos of 4 corners*
0 Add a 4 corners polygon primitive as box body*
4,1,4,$2,$3,$4,$5,$6,$7,$8,$9,$2,$3,0*
0 Add four circle primitives for the rounded corners*
1,1,$1+$1,$2,$3*
1,1,$1+$1,$4,$5*
1,1,$1+$1,$6,$7*
1,1,$1+$1,$8,$9*
0 Add four rect primitives between the rounded corners*
20,1,$1+$1,$2,$3,$4,$5,0*
20,1,$1+$1,$4,$5,$6,$7,0*
20,1,$1+$1,$6,$7,$8,$9,0*
20,1,$1+$1,$8,$9,$2,$3,0*%
G04 Aperture macros list end*
%ADD10R,2.510000X1.000000*%
%ADD11RoundRect,0.237500X0.237500X-0.300000X0.237500X0.300000X-0.237500X0.300000X-0.237500X-0.300000X0*%
%ADD12RoundRect,0.237500X-0.250000X-0.237500X0.250000X-0.237500X0.250000X0.237500X-0.250000X0.237500X0*%
%ADD13RoundRect,0.250000X-0.315000X-0.315000X0.315000X-0.315000X0.315000X0.315000X-0.315000X0.315000X0*%
%ADD14RoundRect,0.062500X-0.325000X-0.062500X0.325000X-0.062500X0.325000X0.062500X-0.325000X0.062500X0*%
%ADD15RoundRect,0.062500X-0.062500X-0.325000X0.062500X-0.325000X0.062500X0.325000X-0.062500X0.325000X0*%
%ADD16RoundRect,0.237500X0.237500X-0.250000X0.237500X0.250000X-0.237500X0.250000X-0.237500X-0.250000X0*%
%ADD17RoundRect,0.150000X0.512500X0.150000X-0.512500X0.150000X-0.512500X-0.150000X0.512500X-0.150000X0*%
%ADD18RoundRect,0.237500X0.250000X0.237500X-0.250000X0.237500X-0.250000X-0.237500X0.250000X-0.237500X0*%
%ADD19RoundRect,0.237500X-0.237500X0.250000X-0.237500X-0.250000X0.237500X-0.250000X0.237500X0.250000X0*%
%ADD20RoundRect,0.237500X-0.237500X0.300000X-0.237500X-0.300000X0.237500X-0.300000X0.237500X0.300000X0*%
%ADD21RoundRect,0.150000X-0.725000X-0.150000X0.725000X-0.150000X0.725000X0.150000X-0.725000X0.150000X0*%
%ADD22R,1.150000X3.600000*%
%ADD23RoundRect,0.237500X-0.300000X-0.237500X0.300000X-0.237500X0.300000X0.237500X-0.300000X0.237500X0*%
%ADD24RoundRect,0.250000X-1.100000X0.412500X-1.100000X-0.412500X1.100000X-0.412500X1.100000X0.412500X0*%
%ADD25RoundRect,0.250000X-0.300000X0.300000X-0.300000X-0.300000X0.300000X-0.300000X0.300000X0.300000X0*%
%ADD26R,0.300000X0.700000*%
G04 APERTURE END LIST*
D10*
%TO.C,J4*%
X106355000Y-134740000D03*
X103045000Y-132200000D03*
X106355000Y-129660000D03*
%TD*%
D11*
%TO.C,C11*%
X122100000Y-116362500D03*
X122100000Y-114637500D03*
%TD*%
D12*
%TO.C,R6*%
X131275000Y-122406250D03*
X133100000Y-122406250D03*
%TD*%
%TO.C,R5*%
X131175000Y-119106250D03*
X133000000Y-119106250D03*
%TD*%
D13*
%TO.C,U1*%
X138887500Y-119406250D03*
X138887500Y-120806250D03*
X140287500Y-119406250D03*
X140287500Y-120806250D03*
D14*
X137600000Y-118856250D03*
X137600000Y-119356250D03*
X137600000Y-119856250D03*
X137600000Y-120356250D03*
X137600000Y-120856250D03*
X137600000Y-121356250D03*
D15*
X138337500Y-122093750D03*
X138837500Y-122093750D03*
X139337500Y-122093750D03*
X139837500Y-122093750D03*
X140337500Y-122093750D03*
X140837500Y-122093750D03*
D14*
X141575000Y-121356250D03*
X141575000Y-120856250D03*
X141575000Y-120356250D03*
X141575000Y-119856250D03*
X141575000Y-119356250D03*
X141575000Y-118856250D03*
D15*
X140837500Y-118118750D03*
X140337500Y-118118750D03*
X139837500Y-118118750D03*
X139337500Y-118118750D03*
X138837500Y-118118750D03*
X138337500Y-118118750D03*
%TD*%
D16*
%TO.C,R15*%
X104000000Y-108087500D03*
X104000000Y-109912500D03*
%TD*%
D17*
%TO.C,U2*%
X114437500Y-116950000D03*
X114437500Y-116000000D03*
X114437500Y-115050000D03*
X112162500Y-115050000D03*
X112162500Y-116000000D03*
X112162500Y-116950000D03*
%TD*%
D18*
%TO.C,R13*%
X133100000Y-123906250D03*
X131275000Y-123906250D03*
%TD*%
D11*
%TO.C,C1*%
X142087500Y-115168750D03*
X142087500Y-113443750D03*
%TD*%
D12*
%TO.C,R7*%
X138687500Y-105000000D03*
X140512500Y-105000000D03*
%TD*%
%TO.C,R9*%
X138687500Y-103400000D03*
X140512500Y-103400000D03*
%TD*%
D11*
%TO.C,C4*%
X137387500Y-115168750D03*
X137387500Y-113443750D03*
%TD*%
D19*
%TO.C,R17*%
X103000000Y-103400000D03*
X103000000Y-105225000D03*
%TD*%
D20*
%TO.C,C8*%
X114000000Y-107727500D03*
X114000000Y-109452500D03*
%TD*%
D18*
%TO.C,R2*%
X146900000Y-122906250D03*
X145075000Y-122906250D03*
%TD*%
D21*
%TO.C,Q1*%
X107425000Y-102260000D03*
X107425000Y-103530000D03*
X107425000Y-104800000D03*
X107425000Y-106070000D03*
X112575000Y-106070000D03*
X112575000Y-104800000D03*
X112575000Y-103530000D03*
X112575000Y-102260000D03*
%TD*%
D11*
%TO.C,C2*%
X140487500Y-115168750D03*
X140487500Y-113443750D03*
%TD*%
D18*
%TO.C,R10*%
X140512500Y-107400000D03*
X138687500Y-107400000D03*
%TD*%
%TO.C,R12*%
X133000000Y-120706250D03*
X131175000Y-120706250D03*
%TD*%
D20*
%TO.C,C13*%
X117400000Y-112537500D03*
X117400000Y-114262500D03*
%TD*%
D22*
%TO.C,L1*%
X114125000Y-120900000D03*
X117075000Y-120900000D03*
%TD*%
D16*
%TO.C,R16*%
X102000000Y-109912500D03*
X102000000Y-108087500D03*
%TD*%
D11*
%TO.C,C9*%
X111200000Y-121362500D03*
X111200000Y-119637500D03*
%TD*%
D10*
%TO.C,J3*%
X150855000Y-134740000D03*
X147545000Y-132200000D03*
X150855000Y-129660000D03*
%TD*%
D18*
%TO.C,R1*%
X146900000Y-124606250D03*
X145075000Y-124606250D03*
%TD*%
D23*
%TO.C,C7*%
X145125000Y-120906250D03*
X146850000Y-120906250D03*
%TD*%
D11*
%TO.C,C12*%
X112400000Y-109462500D03*
X112400000Y-107737500D03*
%TD*%
D19*
%TO.C,R14*%
X115600000Y-107677500D03*
X115600000Y-109502500D03*
%TD*%
D23*
%TO.C,C6*%
X146850000Y-119406250D03*
X145125000Y-119406250D03*
%TD*%
D12*
%TO.C,R4*%
X131175000Y-116806250D03*
X133000000Y-116806250D03*
%TD*%
D24*
%TO.C,C5*%
X118950000Y-104727500D03*
X118950000Y-107852500D03*
%TD*%
D25*
%TO.C,D1*%
X105000000Y-105800000D03*
X105000000Y-103000000D03*
%TD*%
D12*
%TO.C,R3*%
X138687500Y-109000000D03*
X140512500Y-109000000D03*
%TD*%
D26*
%TO.C,USB1*%
X129750000Y-110240000D03*
X129250000Y-110240000D03*
X128750000Y-110240000D03*
X128250000Y-110240000D03*
X127750000Y-110240000D03*
X127250000Y-110240000D03*
X126750000Y-110240000D03*
X126250000Y-110240000D03*
X125750000Y-110240000D03*
X125250000Y-110240000D03*
X124750000Y-110240000D03*
X124250000Y-110240000D03*
X124500000Y-108540000D03*
X125000000Y-108540000D03*
X125500000Y-108540000D03*
X126000000Y-108540000D03*
X126500000Y-108540000D03*
X127000000Y-108540000D03*
X127500000Y-108540000D03*
X128000000Y-108540000D03*
X128500000Y-108540000D03*
X129000000Y-108540000D03*
X129500000Y-108540000D03*
X130000000Y-108540000D03*
%TD*%
D12*
%TO.C,R8*%
X138687500Y-101800000D03*
X140512500Y-101800000D03*
%TD*%
D11*
%TO.C,C10*%
X120500000Y-116362500D03*
X120500000Y-114637500D03*
%TD*%
D18*
%TO.C,R11*%
X133000000Y-115206250D03*
X131175000Y-115206250D03*
%TD*%
D11*
%TO.C,C3*%
X138887500Y-115168750D03*
X138887500Y-113443750D03*
%TD*%
M02*
